<!-- Generated by IcoMoon.io -->
<svg version="1.1" xmlns="http://www.w3.org/2000/svg" width="34" height="32" viewBox="0 0 34 32">
<title>add-staff2</title>
<path d="M19.158 18.293c-1.507-0.906-3.211-1.451-4.846-1.451h-5.045c-3.723 0-7.639 2.875-8.747 6.421l-0.197 0.631c-1.103 3.531 1.005 6.421 4.72 6.421h13.917c-1.323-1.602-2.117-3.655-2.117-5.895 0-2.349 0.875-4.495 2.316-6.128zM12.070 15.158c-4.186 0-7.579-3.393-7.579-7.579s3.393-7.579 7.579-7.579c4.186 0 7.579 3.393 7.579 7.579s-3.393 7.579-7.579 7.579zM26.105 32c-4.186 0-7.579-3.393-7.579-7.579s3.393-7.579 7.579-7.579c4.186 0 7.579 3.393 7.579 7.579s-3.393 7.579-7.579 7.579zM25.263 23.579h-3.368v1.684h3.368v3.368h1.684v-3.368h3.368v-1.684h-3.368v-3.368h-1.684v3.368z"></path>
</svg>
