<!-- Generated by IcoMoon.io -->
<svg version="1.1" xmlns="http://www.w3.org/2000/svg" width="32" height="32" viewBox="0 0 32 32">
<title>add-position</title>
<path d="M16 14.9c0.9 0 1.6 0.7 1.6 1.6s-0.7 1.6-1.6 1.6c-0.9 0-1.6-0.7-1.6-1.6s0.7-1.6 1.6-1.6zM16 13.3c-1.8 0-3.2 1.4-3.2 3.2s1.4 3.2 3.2 3.2c1.8 0 3.2-1.4 3.2-3.2s-1.4-3.2-3.2-3.2v0zM19.2 2.1c0.9 0 1.6 0.7 1.6 1.6s-0.7 1.6-1.6 1.6h-6.4c-0.9 0-1.6-0.7-1.6-1.6s0.7-1.6 1.6-1.6h6.4zM19.2 0.5h-6.4c-1.8 0-3.2 1.4-3.2 3.2s1.4 3.2 3.2 3.2h6.4c1.8 0 3.2-1.4 3.2-3.2s-1.4-3.2-3.2-3.2v0zM0.8 13.3h30.4c0.4 0 0.8 0.4 0.8 0.8s-0.4 0.8-0.8 0.8h-30.4c-0.4 0-0.8-0.4-0.8-0.8 0-0.5 0.4-0.8 0.8-0.8zM28.8 6.9c0.9 0 1.6 0.7 1.6 1.6v17.6c0 0.9-0.7 1.6-1.6 1.6h-25.6c-0.9 0-1.6-0.7-1.6-1.6v-17.6c0-0.9 0.7-1.6 1.6-1.6h25.6zM28.8 5.3h-25.6c-1.8 0-3.2 1.4-3.2 3.2v17.6c0 1.8 1.4 3.2 3.2 3.2h25.6c1.8 0 3.2-1.4 3.2-3.2v-17.6c0-1.8-1.4-3.2-3.2-3.2v0z"></path>
</svg>
