<!-- Generated by IcoMoon.io -->
<svg version="1.1" xmlns="http://www.w3.org/2000/svg" width="32" height="32" viewBox="0 0 32 32">
<title>addperson</title>
<path d="M14.97 1.164c-4.422 0-8.006 3.582-8.006 8s3.584 8 8.006 8c4.422 0 8.006-3.582 8.006-8 0-4.42-3.584-8-8.006-8zM14.942 15.154c-3.316 0-6.004-2.69-6.004-6.010s2.688-6.010 6.004-6.010 6.004 2.69 6.004 6.010c0 3.32-2.688 6.010-6.004 6.010zM4.848 28.176c0-6.156 4.98-11.148 11.122-11.148 1.374 0 2.682 0.262 3.896 0.718 0.444-0.54 0.926-1.026 1.442-1.464-1.626-0.734-3.428-1.154-5.33-1.154-7.178 0-12.998 5.83-12.998 13.020 0 0.338 0.026 0.67 0.050 1.002h1.866c-0.026-0.322-0.048-0.644-0.048-0.974zM22.984 20.63l-0.010 7.046c0 0.82 0.44 1.484 0.986 1.484 0.544 0 0.986-0.664 0.986-1.484l-0.022-7.046c0-0.82-0.41-1.484-0.954-1.484s-0.986 0.664-0.986 1.484zM20.484 25.138l6.966 0.008c0.826 0 1.494-0.444 1.494-0.99s-0.67-0.99-1.494-0.99l-6.966 0.022c-0.826 0-1.494 0.412-1.494 0.96s0.668 0.99 1.494 0.99z"></path>
</svg>
