<!-- Generated by IcoMoon.io -->
<svg version="1.1" xmlns="http://www.w3.org/2000/svg" width="32" height="32" viewBox="0 0 32 32">
<title>advertising</title>
<path d="M3.81 13.714v15.238h24.381v-15.238h-24.381zM2.286 10.667h27.429c0.842 0 1.524 0.682 1.524 1.524v18.286c0 0.842-0.682 1.524-1.524 1.524h-27.429c-0.842 0-1.524-0.682-1.524-1.524v-18.286c0-0.842 0.682-1.524 1.524-1.524zM8.381 19.81h6.095v3.048h-6.095v-3.048zM17.524 19.81h6.095v3.048h-6.095v-3.048zM25.006 11.764l-4.285-7.73-12.883 7.141-5.92-0.203 18.668-10.348c0.731-0.405 1.663-0.121 2.081 0.635l5.89 10.626-3.552-0.122z"></path>
</svg>
