<!-- Generated by IcoMoon.io -->
<svg version="1.1" xmlns="http://www.w3.org/2000/svg" width="32" height="32" viewBox="0 0 32 32">
<title>analyzing</title>
<path d="M16.017 0.035c-8.827 0-15.982 7.156-15.982 15.982s7.156 15.983 15.982 15.983 15.983-7.156 15.983-15.983-7.156-15.982-15.983-15.982zM15.98 27.197c-6.157-0.020-11.142-5.017-11.142-11.179 0-3.982 2.082-7.477 5.216-9.458l0.055 0.088 5.127 5.127-3.462 3.462-1.555-1.555c-0.287 0.712-0.446 1.489-0.446 2.304 0 3.404 2.76 6.164 6.164 6.164 0.014 0 0.028-0 0.042-0.001v5.047zM21.989 25.47l-0.060-0.094-5.171-5.171 3.462-3.462 1.468 1.468c0.267-0.69 0.415-1.44 0.415-2.225 0-3.39-2.737-6.141-6.122-6.163v-4.984c0.012-0 0.025-0 0.037-0 6.174 0 11.179 5.005 11.179 11.179-0 3.978-2.078 7.471-5.207 9.452z"></path>
</svg>
