<!-- Generated by IcoMoon.io -->
<svg version="1.1" xmlns="http://www.w3.org/2000/svg" width="38" height="32" viewBox="0 0 38 32">
<title>appaulse</title>
<path d="M6.862 11.348l-4.462 2.252-0.971-2.823 5.434 0.571zM7.123 8.864l-4.723-2.464c0 0-0.69-0.739 1.6-2.4l3.123 4.864zM9.496 7.039l-1.758-5.678c0 0 3.043-0.375 3.461 0.239l-1.704 5.439zM17.884 6.343c-0.271 0.343-0.448 0.727-0.536 1.133l-0.804-0.803c-0.546-0.547-0.627-1.427-0.153-2.031 0.3-0.382 0.74-0.572 1.18-0.572 0.384 0 0.77 0.148 1.061 0.44 0 0 0.83 0.825 0.83 0.825-0.617 0.148-1.172 0.496-1.578 1.008zM36.8 21.6l-2.148-9.65c-0.046-1.311-0.985-2.394-2.221-2.671l0.038-1.396c0-0.821 0.669-1.494 1.485-1.494s1.485 0.673 1.485 1.494c1.982 9.064 2.969 13.6 2.962 13.608-0.533 0.606-1.067 0.642-1.6 0.109zM30.163 9.749c-0.707 0.512-1.171 1.346-1.175 2.282l-0.026 0.914-7.733-7.906c-0.546-0.546-0.625-1.426-0.152-2.031 0.3-0.381 0.74-0.571 1.18-0.571 0.384 0 0.769 0.149 1.061 0.44l6.844 6.873zM11.836 18.535c0.267-0.211 0.587-0.313 0.91-0.313 0.406 0 0.812 0.161 1.113 0.466l3.362 3.378c0.135 0.135 0.313 0.203 0.49 0.203 0.179 0 0.356-0.068 0.491-0.203 0.3-0.305 0.292-0.169 0-0.465l-5.414-6.057c-0.546-0.546-0.627-1.426-0.153-2.031 0.3-0.381 0.74-0.572 1.18-0.572 0.386 0 0.77 0.149 1.063 0.44 3.949 3.538 5.923 5.307 5.923 5.307s0.435 0.33 0.578 0.191c0.287-0.288 0.287-0.37 0-0.657l-6.967-7.377c-0.546-0.546-0.627-1.426-0.153-2.031 0.3-0.381 0.74-0.572 1.18-0.572 0.386 0 0.77 0.149 1.063 0.44l6.995 7.026c0.145 0.144 0.364-0.022 0.503-0.165 0.189-0.189-1.45-2.298-4.915-6.327-0.546-0.546-0.625-1.426-0.152-2.031 0.299-0.381 0.739-0.572 1.179-0.572 0.386 0 0.77 0.149 1.063 0.44l7.91 7.932c0.139 0.139 0.313 0.203 0.482 0.203 0.346 0 0.681-0.267 0.693-0.673l0.072-2.459c0-0.821 0.669-1.494 1.485-1.494s1.485 0.673 1.485 1.494l2.698 11.144c0.009 2.667-1.058 4.8-3.2 6.4s-5.342 1.867-9.6 0.8c-2.859-1.584-5.395-3.488-7.608-5.711 0 0-3.887-3.902-3.887-3.902-0.627-0.627-0.579-1.685 0.131-2.252z"></path>
</svg>
