<!-- Generated by IcoMoon.io -->
<svg version="1.1" xmlns="http://www.w3.org/2000/svg" width="32" height="32" viewBox="0 0 32 32">
<title>arrow-left</title>
<path d="M9.891 15.971l14.072-14.072c0.341-0.339 0.341-0.891 0-1.232v0c-0.339-0.341-0.891-0.341-1.232 0l-14.418 14.418c-0.121 0.042-0.235 0.111-0.331 0.208-0.185 0.186-0.27 0.435-0.253 0.678-0.017 0.243 0.068 0.492 0.253 0.678 0.097 0.097 0.21 0.166 0.331 0.208l14.418 14.418c0.341 0.341 0.893 0.341 1.232 0 0.341-0.341 0.341-0.893 0-1.232l-14.072-14.072z"></path>
</svg>
