<!-- Generated by IcoMoon.io -->
<svg version="1.1" xmlns="http://www.w3.org/2000/svg" width="32" height="32" viewBox="0 0 32 32">
<title>at</title>
<path d="M26.713 26.37c-1.442 1.134-2.163 1.539-3.564 2.066-2.083 0.81-4.486 1.256-6.768 1.256-8.13 0-13.817-5.428-13.817-13.246 0-8.101 6.328-14.218 14.738-14.218 7.289 0 12.255 4.537 12.255 11.22 0 3.646-1.482 6.805-4.045 8.749-1.121 0.81-2.483 1.377-3.404 1.377-0.881 0-1.242-0.365-1.242-1.175 0-0.284 0.040-0.608 0.16-0.932l2.884-11.099c0.521-1.985 0.761-2.795 1.161-3.808h-2.643l-0.561 2.106c-0.481-1.742-1.962-2.714-4.245-2.714-2.803 0-5.527 1.58-7.369 4.294-1.602 2.349-2.603 5.59-2.603 8.466 0 4.051 2.203 6.684 5.567 6.684 1.161 0 2.363-0.284 3.364-0.81 0.841-0.446 1.322-0.891 2.163-1.985-0.040 0.203-0.040 0.365-0.040 0.486 0 1.661 1.161 2.714 2.964 2.714 1.402 0 3.204-0.567 4.726-1.499 3.564-2.228 5.607-6.197 5.607-10.937 0-8.020-5.887-13.367-14.738-13.367-10.012 0-17.262 6.886-17.262 16.405 0 9.235 6.608 15.595 16.22 15.595 2.363 0 4.846-0.405 7.129-1.094 1.802-0.567 2.803-1.053 4.886-2.349l-1.522-2.187zM17.662 8.142c1.962 0 2.964 1.215 2.964 3.524 0 2.39-0.761 5.347-1.922 7.534-1.282 2.39-3.284 3.929-5.207 3.929-2.043 0-3.204-1.539-3.204-4.253 0-2.471 0.921-5.468 2.323-7.656 1.282-1.985 3.084-3.079 5.046-3.079z"></path>
</svg>
