<!-- Generated by IcoMoon.io -->
<svg version="1.1" xmlns="http://www.w3.org/2000/svg" width="32" height="32" viewBox="0 0 32 32">
<title>bind-dingding</title>
<path d="M17.3 32l2.1-8.2h-3l1-4.2c-0.7 0.2-1.4 0.4-2.2 0.6-0.1 0.1-0.4 0.2-1 0.2-0.8 0-2.2-0.4-4.1-2.1-0.4-0.3-1.5-1.4-1.4-2.3 0-0.2 0.2-0.5 0.6-0.7 0.2-0.1 0.5-0.1 0.9-0.2-0.6 0-1-0.1-1.3-0.1-1.7-0.3-3.7-2.8-4.2-5.2-0.1-0.2-0.2-0.6 0-1 0.1-0.2 0.4-0.4 0.9-0.4 0.3 0 0.6 0.1 1 0.2 0.4 0.2 1 0.4 1.7 0.5-1.7-0.6-3.1-1.1-3.3-1.4-0.8-0.9-2.2-4.6-2-6.8 0-0.4 0.3-0.9 0.9-0.9 0.1 0 0.2 0 0.3 0h0.1c0.1 0 7.9 3.6 13.2 5.5 0.9 0.3 1.9 0.7 2.8 1 4.2 1.4 7.5 2.6 6.9 5 0 0.1-0.1 0.2-0.1 0.3l-0.3 0.7c-1 2.2-3.7 6.4-3.8 6.6l-0.4 0.6h3.9l-9.2 12.3zM17.5 22.9h3l-1.2 4.9 5.3-7.1h-3.7l1.6-2.7c0.8-1.3 2.5-4.2 3.3-5.8v0c0.2-0.5 0.3-0.7 0.3-0.8 0.4-1.7-2.6-2.7-6.3-4-0.9-0.3-1.8-0.6-2.8-1-5-1.8-12.5-5.2-13.1-5.5 0 0 0 0 0 0s0 0 0 0c-0.2 2.1 1.2 5.5 1.8 6.1 0.5 0.5 6 2.3 11.1 3.9l-0.2 0.9c-0.3-0.1-8.2-1.7-10.2-2.2-0.5-0.1-0.8-0.1-0.9-0.1 0 0 0 0.1 0 0.1v0.1c0.5 2 2.2 4.3 3.5 4.5 0.6 0.1 2.4 0.2 5 0.2 1.5 0 2.8 0 2.8 0l0.1 0.9c0 0-1.3 0.1-3.3 0.4l-0.6 0.1c-1.3 0.2-2.9 0.4-3.3 0.5-0.1 0-0.1 0-0.1 0 0 0.2 0.5 0.9 1.1 1.4 1.8 1.6 3 1.8 3.5 1.8 0.4 0 0.6-0.1 0.6-0.1h0.1c1.1-0.4 2.1-0.6 3-0.9l0.7-0.2-1.1 4.6z"></path>
</svg>
