<!-- Generated by IcoMoon.io -->
<svg version="1.1" xmlns="http://www.w3.org/2000/svg" width="32" height="32" viewBox="0 0 32 32">
<title>briefcase</title>
<path d="M28.67 13.947v-2.98c0-1.652-1.344-2.995-2.995-2.995h-4.263v-1.844c0-0.857-0.697-1.554-1.554-1.554h-7.547c-0.857 0-1.554 0.697-1.554 1.554v1.844h-4.327c-1.652 0-2.995 1.344-2.995 2.995v10.152c0 0 0 0.001 0 0.002v3.151c0 1.652 1.344 2.995 2.995 2.995h19.245c1.652 0 2.995-1.344 2.995-2.995v-10.322c-0-0-0-0.001-0-0.002zM12.439 6.255h7.292v1.716h-7.292v-1.716zM5.116 10.967c0-0.724 0.589-1.314 1.314-1.314h13.941c0.064 0.016 0.131 0.024 0.201 0.024s0.136-0.009 0.201-0.024h4.903c0.724 0 1.314 0.589 1.314 1.314v2.012c-0.019 0.007-0.038 0.015-0.056 0.024-3.377 1.585-6.931 2.114-10.052 2.157v-0.568c0-0.464-0.376-0.841-0.841-0.841s-0.841 0.376-0.841 0.841v0.546c-1.060-0.042-2.049-0.134-2.938-0.249-3.999-0.516-6.885-1.588-7.145-1.687v-0.11l-0-2.124zM26.989 24.271c0 0.724-0.589 1.314-1.314 1.314h-19.245c-0.724 0-1.314-0.589-1.314-1.314l-0-9.284c1.118 0.379 3.626 1.139 6.883 1.563 1.081 0.141 2.149 0.232 3.2 0.273v1.139c0 0.464 0.376 0.841 0.841 0.841s0.841-0.376 0.841-0.841v-1.116c0.865-0.010 1.716-0.056 2.55-0.136 2.712-0.261 5.251-0.897 7.558-1.89l0 7.156-0 2.295z"></path>
</svg>
