<!-- Generated by IcoMoon.io -->
<svg version="1.1" xmlns="http://www.w3.org/2000/svg" width="32" height="32" viewBox="0 0 32 32">
<title>business-license</title>
<path d="M25.379 12.69c-3.625 0-6.621 2.995-6.621 6.621 0 3.626 2.995 6.621 6.621 6.621s6.621-2.994 6.621-6.621c0-3.625-2.995-6.621-6.621-6.621zM25.359 14.124c1.444 0 2.729 0.481 3.691 1.606 0.963 1.123 1.606 2.247 1.606 3.691s-0.481 2.729-1.606 3.692c-1.123 0.962-2.247 1.604-3.691 1.604s-2.729-0.481-3.691-1.604c-0.963-0.963-1.606-2.248-1.606-3.692s0.481-2.729 1.606-3.691c1.123-1.124 2.407-1.606 3.691-1.606zM15.904 23.172h-10.681c-0.324 0-0.809-0.331-0.809-0.828 0-0.496 0.324-0.827 0.809-0.827h10.52c0.324 0 0.809 0.331 0.809 0.827 0 0.497-0.324 0.828-0.648 0.828zM15.904 18.207h-10.681c-0.324 0-0.809-0.331-0.809-0.827 0-0.331 0.324-0.828 0.809-0.828h10.52c0.324 0 0.809 0.331 0.809 0.828 0 0.496-0.324 0.827-0.648 0.827zM15.743 13.241h-10.681c-0.324 0-0.648-0.367-0.648-0.735s0.324-0.921 0.81-0.921h10.519c0.324 0 0.809 0.368 0.809 0.921 0 0.551-0.485 0.735-0.809 0.735zM20.323 7.724h-15.106c-0.322 0-0.803-0.331-0.803-0.827 0-0.331 0.322-0.828 0.803-0.828h14.944c0.322 0 0.804 0.331 0.804 0.828 0 0.496-0.322 0.827-0.643 0.827zM21.904 31.897c-0.313 0-0.781-0.157-0.938-0.629v-6.441l1.407 0.942v-0.157 4.556l2.97-2.043c0.313-0.157 0.781-0.157 1.094 0l2.501 2.043v-4.399l1.408-0.942v6.284c0 0.314-0.157 0.629-0.47 0.785s-0.625 0.157-0.938-0.157l-2.969-2.357-3.439 2.357c-0.157 0-0.313 0.157-0.625 0.157zM25.379 16.552c1.532 0 2.759 1.227 2.759 2.759 0 1.533-1.227 2.759-2.759 2.759-1.533 0-2.759-1.225-2.759-2.759 0-1.532 1.225-2.759 2.759-2.759zM25.359 17.976c-0.802 0-1.444 0.642-1.444 1.444s0.642 1.444 1.444 1.444c0.802 0 1.444-0.642 1.444-1.444s-0.642-1.444-1.444-1.444zM18.716 29.793h-15.996c-1.6 0-2.72-1.275-2.72-2.709v-24.376c0-1.434 1.279-2.709 2.72-2.709h21.595c1.599 0 2.72 1.275 2.72 2.709v8.125h-1.44v-8.125c0-0.797-0.64-1.275-1.28-1.275h-21.595c-0.801 0-1.28 0.637-1.28 1.275v24.217c0 0.796 0.64 1.274 1.28 1.274h15.996c0 0 0 1.594 0 1.594z"></path>
</svg>
