<!-- Generated by IcoMoon.io -->
<svg version="1.1" xmlns="http://www.w3.org/2000/svg" width="32" height="32" viewBox="0 0 32 32">
<title>call-fail</title>
<path d="M25.7 25.7c-2.6 2.6-6 4-9.7 4s-7.1-1.4-9.7-4c-2.6-2.6-4-6-4-9.7s1.4-7.1 4-9.7c2.6-2.6 6-4 9.7-4s7.1 1.4 9.7 4c2.6 2.6 4 6 4 9.7s-1.4 7.1-4 9.7zM16 0c-8.8 0-16 7.2-16 16s7.2 16 16 16c8.8 0 16-7.2 16-16s-7.2-16-16-16zM22.7 23.4c-0.1-0.1-2-2.8-6.7-2.8s-6.6 2.7-6.7 2.8c-0.3 0.5-0.2 1.2 0.3 1.6 0.2 0.1 0.4 0.2 0.7 0.2 0.4 0 0.7-0.2 0.9-0.5 0 0 1.3-1.8 4.8-1.8 3.4 0 4.8 1.8 4.8 1.8 0.2 0.3 0.6 0.5 0.9 0.5 0.2 0 0.5-0.1 0.7-0.2 0.5-0.4 0.6-1.1 0.3-1.6zM11.8 15.8c-1-0.6-2.2-1-3.6-0.4-1.4 0.5-2.1 1.5-2.4 2.7-0.2 0.6 0.2 1.2 0.8 1.4 0.2 0.1 0.5 0 0.7-0.1 0.4-0.1 0.7-0.4 0.8-0.8s0.3-0.8 0.9-1.1c0.6-0.2 1.1 0 1.4 0.2s0.7 0.2 1.1 0.1c0.2-0.1 0.5-0.2 0.6-0.4 0.4-0.6 0.2-1.3-0.3-1.6zM26.2 18c-0.4-1.2-1-2.1-2.4-2.7-1.4-0.5-2.5-0.2-3.6 0.4-0.5 0.3-0.7 1-0.3 1.6 0.1 0.2 0.4 0.3 0.6 0.4 0.4 0.1 0.8 0.1 1.1-0.1s0.8-0.5 1.4-0.2c0.6 0.2 0.8 0.7 0.9 1.1s0.4 0.6 0.8 0.8c0.2 0.1 0.5 0.1 0.7 0.1 0.7-0.2 1-0.8 0.8-1.4z"></path>
</svg>
