<!-- Generated by IcoMoon.io -->
<svg version="1.1" xmlns="http://www.w3.org/2000/svg" width="32" height="32" viewBox="0 0 32 32">
<title>call-1</title>
<path d="M6.3 21c-4.8-8.5-4.7-17.4 0.2-20.2 1.1-0.6 2.3-0.9 3.6-0.8 0.1 0 0.2 0 0.3 0 0 0 0.1 0 0.1 0 2.2 0 4.2 2.7 4.6 6.4 0.3 2.4-0.1 4.5-1.2 5.7-0.6 0.6-1.3 1-2 1 0 0-0.1 0-0.1 0.1 0 0-0.1 0.2 0 0.6 0.5 1.1 1 2.2 1.6 3.3 0.7 1.2 1.4 2.3 2.2 3.3 0 0 0 0 0 0 0.1 0.2 0.2 0.2 0.3 0.2 0.2 0 0.3-0.1 0.5-0.2 0.5-0.7 1.4-1.1 2.4-1.1 1.4 0 3.1 0.7 4.7 1.9 2.8 2.2 4 5.2 3 7.1-0.1 0.2-0.1 0.2-0.2 0.4-0.7 1.1-1.5 2-2.5 2.6s-2.1 0.8-3.3 0.8v0c-4.8-0.1-10.5-4.5-14.2-11.1zM17.7 21.4c0 0.1-0.1 0.1-0.2 0.2s-0.8 0.7-1.7 0.7c-0.6 0-1.1-0.2-1.5-0.7 0 0-0.1-0.1-0.1-0.1-0.9-1.1-1.7-2.3-2.4-3.6-0.7-1.2-1.2-2.4-1.7-3.6 0-0.1 0-0.1 0-0.2-0.2-0.9-0.1-1.6 0.4-2.1 0.6-0.7 1.4-0.7 1.5-0.7s0.4 0 0.7-0.4c0.7-0.8 1-2.5 0.8-4.3-0.3-2.7-1.8-4.8-2.9-4.8 0 0-0.1 0-0.1 0-0.1 0-0.1 0-0.2 0-1-0.1-1.9 0.1-2.7 0.6-3.9 2.2-3.7 10.4 0.4 17.7 3.3 5.9 8.5 10 12.5 10 0.9 0 1.7-0.2 2.4-0.6 0.8-0.4 1.5-1.2 2-2 0-0.1 0.1-0.2 0.2-0.3 0.5-0.9-0.5-3.1-2.6-4.8-1.2-1-2.5-1.5-3.6-1.5-0.5 0.1-1 0.2-1.2 0.5zM23.5 15.1c-0.5-0.1-0.8-0.6-0.7-1.1 0.4-2-1-4-3-4.3-0.5-0.1-0.8-0.6-0.7-1.1s0.6-0.8 1.1-0.7c3 0.6 5 3.4 4.5 6.5-0.1 0.4-0.5 0.7-0.9 0.7-0.2 0-0.2 0-0.3 0zM27.2 15.9c-0.5-0.1-0.8-0.6-0.7-1.1 0.4-2-0.1-4.1-1.2-5.8-1.2-1.7-2.9-2.8-5-3.2-0.5-0.1-0.8-0.6-0.7-1.1s0.6-0.8 1.1-0.7c2.5 0.5 4.7 1.9 6.1 4s2 4.6 1.5 7.1c-0.1 0.4-0.5 0.7-0.9 0.7-0.1 0.1-0.1 0.1-0.2 0.1z"></path>
</svg>
