<!-- Generated by IcoMoon.io -->
<svg version="1.1" xmlns="http://www.w3.org/2000/svg" width="30" height="32" viewBox="0 0 30 32">
<title>campus-edit</title>
<path d="M28.047 3.074c0.342-0.342 0.906-0.332 1.237-0 0.342 0.342 0.335 0.902-0 1.237l-13.604 13.604c-0.342 0.342-0.906 0.332-1.237 0-0.342-0.342-0.335-0.902 0-1.237l13.604-13.604zM19.824 2.124h-17.627c-0.005 0-0.011 25.473-0.011 25.473 0 0.011 21.858 0.015 21.858 0.015-0.002 0 0.005-10.701 0.005-10.701h2.186v10.707c0 1.17-0.996 2.118-2.192 2.118h-21.853c-1.21 0-2.192-0.956-2.192-2.138v-25.458c0-1.181 0.983-2.138 2.197-2.138h17.627v2.124z"></path>
</svg>
