<!-- Generated by IcoMoon.io -->
<svg version="1.1" xmlns="http://www.w3.org/2000/svg" width="32" height="32" viewBox="0 0 32 32">
<title>center-help</title>
<path d="M16 30.545c-8.033 0-14.545-6.512-14.545-14.545s6.512-14.545 14.545-14.545c8.033 0 14.545 6.512 14.545 14.545s-6.512 14.545-14.545 14.545zM11.636 14.631c6.395-0.763-0.002 6.28 1.455 8.642 1.91 3.098 7.005 0.346 7.273-0.021-5.428 1.394-1.769-5.758-1.418-7.251s-0.588-2.91-2.946-2.91c-2.358 0-3.757 1.032-4.364 1.54zM18.271 7.915c-0.426-0.428-0.938-0.642-1.538-0.642s-1.114 0.214-1.543 0.642c-0.43 0.428-0.644 0.944-0.644 1.546s0.214 1.116 0.644 1.54c0.429 0.424 0.944 0.636 1.543 0.636s1.112-0.212 1.538-0.636c0.426-0.424 0.638-0.937 0.638-1.54s-0.213-1.118-0.638-1.546z"></path>
</svg>
