<!-- Generated by IcoMoon.io -->
<svg version="1.1" xmlns="http://www.w3.org/2000/svg" width="32" height="32" viewBox="0 0 32 32">
<title>change</title>
<path d="M19.823 14.962c0.588 0 1.067 0.475 1.067 1.067v1.57l5.945-5.936-5.945-5.949v1.563c0 0.585-0.479 1.088-1.067 1.088h-7.639c-0.596 0-1.078-0.502-1.078-1.088 0-0.599 0.482-1.081 1.078-1.081h6.554v-3.091c0-0.585 0.489-1.074 1.085-1.074 0.282 0 0.564 0.124 0.764 0.317l8.541 8.552c0.409 0.413 0.409 1.102 0 1.522l-8.541 8.531c-0.427 0.44-1.116 0.44-1.529 0-0.213-0.2-0.32-0.475-0.32-0.751v-3.098h-6.554c-0.596 0-1.078-0.475-1.078-1.074v-1.563l-5.949 5.936 5.949 5.949v-1.563c0-0.592 0.482-1.088 1.078-1.088h7.639c0.588 0 1.067 0.496 1.067 1.088 0 0.613-0.479 1.074-1.067 1.074h-6.562v3.098c0 0.289-0.099 0.558-0.32 0.751-0.42 0.44-1.108 0.44-1.522 0l-8.523-8.517-0.024-0.013c-0.42-0.427-0.42-1.102 0-1.529l8.547-8.538c0.2-0.2 0.476-0.331 0.765-0.331 0.589 0 1.077 0.496 1.077 1.088v3.091h6.562z"></path>
</svg>
