<!-- Generated by IcoMoon.io -->
<svg version="1.1" xmlns="http://www.w3.org/2000/svg" width="32" height="32" viewBox="0 0 32 32">
<title>chat-service</title>
<path d="M24.591 15.999c-1.178 0.032-2.158-0.897-2.19-2.075-0.033-1.177 0.897-2.158 2.074-2.19 0.039-0.001 0.079-0.001 0.118 0 1.177 0.033 2.105 1.014 2.073 2.192-0.032 1.132-0.943 2.042-2.075 2.073v0zM16 16c-1.178 0-2.133-0.955-2.133-2.134 0-1.178 0.956-2.133 2.133-2.133s2.133 0.955 2.133 2.133c0 1.179-0.956 2.134-2.133 2.134v0zM8.604 15.999c-1.185 0.032-2.171-0.897-2.203-2.075-0.033-1.177 0.902-2.158 2.086-2.19 0.040-0.001 0.079-0.001 0.119 0 1.184 0.047 2.105 1.039 2.059 2.216-0.044 1.113-0.942 2.005-2.061 2.047v0.002zM16 0c-8.837 0-16 6.269-16 14 0 4.419 2.345 8.355 6.001 10.921v7.079l7.009-4.251c0.969 0.159 1.966 0.253 2.99 0.253 8.837 0 16-6.269 16-14.002 0-7.731-7.163-14-16-14v0z"></path>
</svg>
