<!-- Generated by IcoMoon.io -->
<svg version="1.1" xmlns="http://www.w3.org/2000/svg" width="32" height="32" viewBox="0 0 32 32">
<title>chat-1</title>
<path d="M16 28.6c-1.2 0-2.3-0.1-3.4-0.3l-4.4 2.9c-0.1 0.1-0.3 0.1-0.5 0.1-0.5 0-0.9-0.4-0.9-0.9v-4.3c-4.1-2.6-6.9-6.8-6.9-11.5 0-7.7 7.2-14 16-14 8.9 0 16 6.3 16 14.1 0.1 7.7-7.1 13.9-15.9 13.9zM16 3c-7.6 0-13.7 5.2-13.7 11.7 0 3.8 2.2 7.3 5.8 9.5l0.6 0.4c0.3 0.2 0.6 0.6 0.6 1v2.3l2.1-1.4 0.4-0.3c0.3-0.2 0.6-0.2 0.9-0.2l0.5 0.1c1 0.2 2 0.3 3 0.3 7.5 0 13.7-5.3 13.6-11.7-0.1-6.5-6.2-11.7-13.8-11.7zM23.2 16.9c-1.1 0-1.9-0.9-1.9-1.9 0-1.1 0.9-1.9 1.9-1.9 1.1 0 1.9 0.9 1.9 1.9 0 1.1-0.8 1.9-1.9 1.9zM16.2 16.9c-1.1 0-1.9-0.9-1.9-1.9 0-1.1 0.9-1.9 1.9-1.9 1.1 0 1.9 0.9 1.9 1.9 0 1.1-0.9 1.9-1.9 1.9zM8.9 16.9c-1.1 0-1.9-0.9-1.9-1.9 0-1.1 0.9-1.9 1.9-1.9 1.1 0 1.9 0.9 1.9 1.9 0 1.1-0.9 1.9-1.9 1.9z"></path>
</svg>
