<!-- Generated by IcoMoon.io -->
<svg version="1.1" xmlns="http://www.w3.org/2000/svg" width="32" height="32" viewBox="0 0 32 32">
<title>checkedbox</title>
<path d="M27.077 0h-22.154c-2.72 0-4.923 2.203-4.923 4.923v22.154c0 2.718 2.203 4.923 4.923 4.923h22.154c2.72 0 4.923-2.206 4.923-4.923v-22.154c0-2.72-2.203-4.923-4.923-4.923zM26.641 12.116l-12.064 12.064c-0.286 0.288-0.665 0.406-1.039 0.384-0.374 0.022-0.753-0.096-1.039-0.382l-4.679-4.682c-0.532-0.529-0.532-1.391 0-1.92 0.529-0.529 1.391-0.529 1.92 0l3.798 3.798 11.183-11.183c0.529-0.529 1.391-0.529 1.92 0 0.532 0.529 0.532 1.391 0 1.92z"></path>
</svg>
