<!-- Generated by IcoMoon.io -->
<svg version="1.1" xmlns="http://www.w3.org/2000/svg" width="32" height="32" viewBox="0 0 32 32">
<title>checkbox</title>
<path d="M29.121 0h-26.244c-1.588 0-2.876 1.289-2.876 2.876v26.247c0 1.588 1.289 2.876 2.876 2.876h26.247c1.588 0 2.876-1.289 2.876-2.876v-26.247c-0.003-1.591-1.289-2.876-2.879-2.876v0zM2.897 30.545c-0.797 0-1.443-0.662-1.443-1.443v-26.206c0-0.797 0.662-1.443 1.443-1.443h26.206c0.797 0 1.443 0.662 1.443 1.443v26.206c0 0.797-0.662 1.443-1.443 1.443h-26.206z"></path>
</svg>
