<!-- Generated by IcoMoon.io -->
<svg version="1.1" xmlns="http://www.w3.org/2000/svg" width="32" height="32" viewBox="0 0 32 32">
<title>checked</title>
<path d="M31.181 5.975v0c-0.691-0.691-1.878-0.691-2.569 0l-16.231 16.322-9.125-9.213c-0.691-0.691-1.875-0.691-2.569 0v0c-0.691 0.691-0.691 1.778 0 2.469l10.272 10.272c-0.516-0.688-0.459-1.644 0.169-2.272v0c-0.628 0.628-0.684 1.584-0.169 2.272 0.050 0.069 0.106 0.134 0.169 0.197 0.35 0.35 0.8 0.522 1.247 0.519 0.45 0.003 0.897-0.169 1.247-0.519 0.063-0.063 0.119-0.128 0.169-0.197 0.003-0.003 0.003-0.006 0.006-0.009l17.375-17.375c0.7-0.688 0.7-1.775 0.009-2.466z"></path>
</svg>
