<!-- Generated by IcoMoon.io -->
<svg version="1.1" xmlns="http://www.w3.org/2000/svg" width="32" height="32" viewBox="0 0 32 32">
<title>dingding</title>
<path d="M23.414 13.87c-0.032 0.139-0.115 0.346-0.23 0.592h0.003l-0.013 0.024c-0.672 1.437-2.426 4.256-2.426 4.256l-0.008-0.019-0.512 0.893h2.469l-4.717 6.27 1.072-4.266h-1.944l0.676-2.82c-0.546 0.131-1.192 0.312-1.957 0.558 0 0-1.034 0.605-2.979-1.165 0 0-1.312-1.157-0.551-1.445 0.323-0.123 1.57-0.28 2.551-0.411 1.328-0.179 2.142-0.275 2.142-0.275s-4.088 0.061-5.058-0.091c-0.969-0.152-2.2-1.771-2.462-3.194 0 0-0.405-0.781 0.872-0.411s6.562 1.44 6.562 1.44c0 0-6.872-2.107-7.332-2.622-0.457-0.512-1.345-2.807-1.23-4.215 0 0 0.050-0.352 0.411-0.256 0 0 5.082 2.32 8.555 3.592 3.476 1.272 6.496 1.919 6.106 3.565zM16 0c-8.837 0-16 7.163-16 16 0 8.836 7.163 16 16 16 8.836 0 16-7.164 16-16 0-8.837-7.164-16-16-16z"></path>
</svg>
