<!-- Generated by IcoMoon.io -->
<svg version="1.1" xmlns="http://www.w3.org/2000/svg" width="29" height="32" viewBox="0 0 29 32">
<title>double-arrow-right</title>
<path d="M14.327 15.559l-14.072-14.072c-0.341-0.339-0.341-0.891 0-1.232v0c0.339-0.341 0.891-0.341 1.232 0l14.418 14.418c0.121 0.042 0.235 0.111 0.331 0.208 0.185 0.186 0.27 0.435 0.253 0.678 0.017 0.243-0.068 0.492-0.253 0.678-0.096 0.097-0.21 0.166-0.331 0.208l-14.418 14.418c-0.341 0.341-0.893 0.341-1.232 0v0c-0.341-0.341-0.341-0.893 0-1.232l14.072-14.072zM25.756 15.559l-14.072-14.072c-0.341-0.339-0.341-0.891 0-1.232v0c0.339-0.341 0.891-0.341 1.232 0l14.418 14.418c0.121 0.042 0.235 0.111 0.331 0.208 0.185 0.186 0.27 0.435 0.253 0.678 0.017 0.243-0.068 0.492-0.253 0.678-0.096 0.097-0.21 0.166-0.331 0.208l-14.418 14.418c-0.341 0.341-0.893 0.341-1.232 0v0c-0.341-0.341-0.341-0.893 0-1.232l14.072-14.072z"></path>
</svg>
