<!-- Generated by IcoMoon.io -->
<svg version="1.1" xmlns="http://www.w3.org/2000/svg" width="32" height="32" viewBox="0 0 32 32">
<title>edit</title>
<path d="M31.708 4.567c0.418 0.418 0.418 1.099 0 1.517l-14.882 12.747c-0.418 0.418-1.099 0.418-1.517 0s-0.418-1.097 0-1.517l14.882-12.749c0.418-0.416 1.099-0.416 1.517 0.002v0zM23.008 27.733h2.667v-7.467c0-0.589 0.478-1.067 1.067-1.067s1.067 0.478 1.067 1.067v8.533c0 0.294-0.119 0.561-0.313 0.754s-0.46 0.313-0.754 0.313h-24.533c-1.178 0-2.133-0.956-2.133-2.133v-23.467c0-1.178 0.956-2.133 2.133-2.133h22.4c0.589 0 1.067 0.478 1.067 1.067s-0.478 1.067-1.067 1.067h-22.4v23.467h20.8z"></path>
</svg>
