<!-- Generated by IcoMoon.io -->
<svg version="1.1" xmlns="http://www.w3.org/2000/svg" width="32" height="32" viewBox="0 0 32 32">
<title>email</title>
<path d="M25.393 7.267h-18.467c-1.693 0-3.078 1.385-3.078 3.078v12.311c0 1.693 1.385 3.078 3.078 3.078h18.467c1.693 0 3.078-1.385 3.078-3.078v-12.311c-0-1.693-1.385-3.078-3.078-3.078zM20.507 16.231l6.352-6.352c0.047 0.147 0.073 0.304 0.073 0.466v12.311l-6.425-6.425zM25.393 8.805c0.118 0 0.233 0.015 0.344 0.040l-9.655 9.655-9.566-9.638c0.131-0.036 0.268-0.057 0.409-0.057h18.467zM5.388 22.656v-12.311c0-0.139 0.020-0.273 0.055-0.402l6.306 6.351-6.362 6.361zM6.927 24.195c-0.266 0-0.516-0.068-0.735-0.188l6.631-6.631 2.722 2.741c0.154 0.154 0.308 0.231 0.539 0.231s0.385-0.077 0.539-0.231l2.808-2.808 6.698 6.698c-0.219 0.12-0.469 0.188-0.735 0.188h-18.467z"></path>
</svg>
