<!-- Generated by IcoMoon.io -->
<svg version="1.1" xmlns="http://www.w3.org/2000/svg" width="39" height="32" viewBox="0 0 39 32">
<title>empty-heart</title>
<path d="M19.138 32l-0.448-0.227c-0.434-0.219-10.668-5.474-14.515-13.747-0.337-0.644-0.702-1.762-0.742-1.888-0.457-1.422-0.689-2.863-0.689-4.283 0-5.676 4.432-10.295 9.88-10.295 2.401 0 4.723 0.92 6.515 2.556 1.792-1.636 4.115-2.556 6.515-2.556 5.447 0 9.88 4.619 9.88 10.295 0 1.366-0.223 2.761-0.684 4.268-0.23 0.752-0.721 1.846-0.741 1.892-3.852 8.284-14.086 13.539-14.52 13.758l-0.449 0.227zM12.624 3.547c-4.352 0-7.892 3.727-7.892 8.308 0 1.213 0.2 2.449 0.594 3.674 0.095 0.295 0.396 1.165 0.633 1.62 3.141 6.753 11.191 11.514 13.181 12.61 1.99-1.098 10.043-5.863 13.161-12.571v0c0 0 0.455-1.014 0.649-1.646 0.402-1.316 0.597-2.521 0.597-3.687 0-4.581-3.541-8.308-7.892-8.308-2.211 0-4.261 0.937-5.771 2.641l-0.743 0.838-0.743-0.838c-1.511-1.704-3.56-2.641-5.771-2.641z"></path>
</svg>
