<!-- Generated by IcoMoon.io -->
<svg version="1.1" xmlns="http://www.w3.org/2000/svg" width="32" height="32" viewBox="0 0 32 32">
<title>error</title>
<path d="M30.741 9.771c-0.806-1.905-1.959-3.616-3.428-5.085s-3.18-2.623-5.085-3.428c-1.973-0.835-4.069-1.258-6.227-1.258-2.159 0-4.255 0.423-6.228 1.258-1.905 0.806-3.616 1.959-5.085 3.428s-2.623 3.18-3.428 5.085c-0.835 1.973-1.258 4.069-1.258 6.229s0.423 4.255 1.258 6.228c0.806 1.905 1.959 3.616 3.428 5.085s3.18 2.623 5.085 3.428c1.973 0.835 4.069 1.258 6.228 1.258 2.158 0 4.253-0.423 6.227-1.258 1.905-0.806 3.616-1.959 5.085-3.428s2.623-3.18 3.428-5.085c0.835-1.973 1.258-4.069 1.258-6.228s-0.423-4.256-1.258-6.229zM22.608 22.77c-0 0-0 0-0.001 0.001-0.444 0.444-1.165 0.445-1.609 0.001l-5.136-5.126-5.126 5.136c-0 0-0.001 0.001-0.001 0.001-0.444 0.444-1.164 0.445-1.609 0.001s-0.446-1.165-0.002-1.61l5.126-5.136-5.136-5.127c-0.445-0.444-0.446-1.165-0.001-1.61 0-0 0-0.001 0.001-0.001 0.444-0.444 1.164-0.444 1.609-0l5.136 5.126 5.127-5.137c0.444-0.444 1.165-0.445 1.61-0s0.446 1.165 0.001 1.61l-5.127 5.136 5.136 5.126c0.445 0.444 0.446 1.165 0.002 1.609z"></path>
</svg>
