<!-- Generated by IcoMoon.io -->
<svg version="1.1" xmlns="http://www.w3.org/2000/svg" width="32" height="32" viewBox="0 0 32 32">
<title>expend</title>
<path d="M16.024 0c1.431 0 2.818 0.194 4.137 0.547 0.331 0.092 0.66 0.19 0.982 0.299v11.352c-0.287-0.396-11.083-11.041-11.083-11.041 1.309-0.525 2.702-0.887 4.155-1.051 0.593-0.070 1.195-0.106 1.809-0.106zM27.3 4.624c1.012 1.007 1.853 2.122 2.536 3.301 0.171 0.296 0.334 0.598 0.485 0.901l-8.058 8.028c0.079-0.483 0-15.612 0-15.612 1.297 0.549 2.538 1.277 3.683 2.183 0.468 0.37 0.922 0.768 1.354 1.199zM30.837 10.085c0.529 1.303 0.89 2.691 1.055 4.139 0.070 0.591 0.108 1.193 0.108 1.803 0 1.427-0.195 2.805-0.551 4.122-0.090 0.33-0.189 0.658-0.299 0.978h-11.394c0.4-0.286 11.080-11.042 11.080-11.042zM14.993 22.323c0.486 0.078 15.671-0.001 15.671-0.001-0.55 1.294-1.283 2.528-2.191 3.669-0.372 0.467-0.771 0.92-1.202 1.349-1.013 1.010-2.131 1.849-3.314 2.527-0.298 0.172-0.598 0.332-0.905 0.483l-8.058-8.028zM10.858 19.801c0.288 0.398 11.082 11.041 11.080 11.040-1.309 0.527-2.702 0.887-4.155 1.052-0.592 0.068-1.196 0.106-1.806 0.106-1.432 0-2.817-0.194-4.137-0.548-0.33-0.089-0.659-0.188-0.982-0.298v-11.353zM9.724 15.066c-0.078 0.484 0.004 15.614 0.004 15.614-1.301-0.548-2.538-1.276-3.684-2.183-0.468-0.37-0.923-0.767-1.354-1.198-1.013-1.008-1.856-2.122-2.536-3.304-0.171-0.295-0.334-0.595-0.485-0.902l8.055-8.028zM0.549 11.858c0.090-0.33 0.189-0.659 0.299-0.978h11.395c-0.4 0.285-11.079 11.041-11.079 11.041-0.531-1.302-0.891-2.69-1.056-4.139-0.070-0.59-0.108-1.193-0.108-1.801 0-1.427 0.194-2.807 0.549-4.122zM7.967 2.194c0.296-0.171 0.598-0.33 0.905-0.483l8.057 8.028c-0.485-0.078-15.672 0.003-15.672 0.003 0.552-1.295 1.283-2.531 2.192-3.672 0.371-0.464 0.768-0.917 1.204-1.349 1.011-1.007 2.128-1.846 3.314-2.526z"></path>
</svg>
