<!-- Generated by IcoMoon.io -->
<svg version="1.1" xmlns="http://www.w3.org/2000/svg" width="32" height="32" viewBox="0 0 32 32">
<title>discover-talent</title>
<path d="M16 4.6c3.2 0 6.3 0.9 8.8 2.6 1.7 1.1 4.6 3.3 5.7 6.5-1.2 3.1-4.1 5.4-5.8 6.5-2.5 1.7-5.6 2.6-8.8 2.6s-6.3-0.9-8.8-2.6c-1.7-1.1-4.6-3.3-5.7-6.5 1.2-3.1 4.1-5.4 5.8-6.5 2.5-1.7 5.6-2.6 8.8-2.6zM16 3.2c-3.5 0-6.9 1-9.6 2.8s-5.3 4.3-6.4 7.3c0 0.2 0 0.3 0 0.4s0 0.2 0.1 0.3c1.1 3 3.6 5.6 6.4 7.3 2.7 1.8 6 2.8 9.6 2.8s6.9-1 9.6-2.8c2.7-1.8 5.3-4.3 6.4-7.3 0-0.1 0.1-0.2 0.1-0.3s0-0.2-0.1-0.3c-1.1-3-3.6-5.6-6.4-7.3-2.8-1.9-6.2-2.9-9.7-2.9v0zM16 10.2c1.9 0 3.5 1.6 3.5 3.5s-1.6 3.5-3.5 3.5-3.5-1.6-3.5-3.5c0-2 1.6-3.5 3.5-3.5zM16 8.8c-2.7 0-4.9 2.2-4.9 4.9s2.2 4.9 4.9 4.9c2.7 0 4.9-2.2 4.9-4.9s-2.2-4.9-4.9-4.9v0z"></path>
</svg>
