<!-- Generated by IcoMoon.io -->
<svg version="1.1" xmlns="http://www.w3.org/2000/svg" width="32" height="32" viewBox="0 0 32 32">
<title>file</title>
<path d="M1.686 28.551c-0.768-0.259-1.285-0.761-1.566-1.522-0.098-0.266-0.098-0.289-0.111-10.823-0.008-6.736 0.004-10.667 0.033-10.861 0.070-0.454 0.322-0.942 0.663-1.283 0.413-0.413 0.878-0.63 1.48-0.689 0.144-0.014 2.808-0.009 5.92 0.011 5.583 0.037 5.662 0.039 5.93 0.137 0.416 0.153 0.682 0.328 0.945 0.623 0.216 0.241 0.614 0.949 0.614 1.092 0 0.042 0.564 0.057 2.271 0.061 1.249 0.004 4.507 0.020 7.24 0.039 4.947 0.033 4.971 0.034 5.286 0.138 0.381 0.126 0.832 0.418 1.065 0.69 0.094 0.109 0.238 0.338 0.32 0.508 0.139 0.287 0.152 0.358 0.184 0.998 0.018 0.379 0.035 4.789 0.037 9.798 0.003 7.921-0.005 9.144-0.067 9.38-0.217 0.833-0.84 1.481-1.649 1.715-0.246 0.072-1.433 0.078-14.313 0.073-13.024-0.004-14.062-0.011-14.282-0.085v0zM30.764 7.739c0-0.314-0.021-0.449-0.096-0.595-0.109-0.213-0.402-0.447-0.659-0.523-0.179-0.054-14.078-0.156-14.212-0.104-0.056 0.021-0.062 0.147-0.034 0.744 0.018 0.395 0.040 0.725 0.047 0.733 0.017 0.019 10.461 0.136 12.993 0.144l1.962 0.007v-0.406h0z"></path>
</svg>
