<!-- Generated by IcoMoon.io -->
<svg version="1.1" xmlns="http://www.w3.org/2000/svg" width="32" height="32" viewBox="0 0 32 32">
<title>file-open</title>
<path d="M1.371 27.429c0 0.686 0.457 1.143 1.143 1.143h24.686c0.686 0 0.914-0.457 1.143-1.143 0 0 0 0 0-0.229l2.514-13.943c0-0.457-0.457-1.143-1.143-1.143h-24.686c-0.686 0-1.143 0.457-1.143 1.143v0l-2.514 14.171zM26.971 29.714h-24.457c-1.371 0-2.743-0.686-2.286-2.514 0.686-3.657 2.514-13.943 2.514-13.943 0-1.371 1.143-2.286 2.286-2.286h24.686c1.371 0 2.286 1.143 2.286 2.286v0l-2.514 14.171c0 1.143-1.143 2.286-2.514 2.286zM28.343 10.971v-2.514c0-0.686-0.457-1.143-1.143-1.143h-12.8c-0.457 0-0.686-0.229-0.686-0.686s0.457-0.686 0.686-0.686h12.8c1.371 0 2.514 1.143 2.514 2.286v2.514c0 0.229-1.143 0.229-1.371 0.229v0zM0 27.2v-22.629c0-1.371 1.143-2.286 2.514-2.286h10.057c1.371 0 2.514 1.143 2.514 2.286v1.371h-0.686c-0.457 0-0.686 0.457-0.686 0.686s0-1.829 0-1.829c0-0.686-0.457-1.143-1.143-1.143h-10.057c-0.686 0-1.143 0.457-1.143 0.914v15.314l-1.371 7.314z"></path>
</svg>
