<!-- Generated by IcoMoon.io -->
<svg version="1.1" xmlns="http://www.w3.org/2000/svg" width="32" height="32" viewBox="0 0 32 32">
<title>fullscreen</title>
<path d="M26.453 4.907h-11.84v-1.6h13.44v12.693h-1.6v-11.093zM5.227 27.093h11.84v1.6h-13.44v-12.693h1.6v11.093zM0 0v32h32v-32h-32zM1.6 1.28h28.8v28.8h-28.8v-28.8zM6.187 23.68h1.92v1.92h-1.92v-1.92zM8.107 21.76h1.92v1.92h-1.92v-1.92zM10.027 19.84h1.92v1.92h-1.92v-1.92zM11.947 17.92h1.92v1.92h-1.92v-1.92zM13.867 16h1.92v1.92h-1.92v-1.92zM15.893 14.080h1.92v1.92h-1.92v-1.92zM17.813 12.16h1.92v1.92h-1.92v-1.92zM19.733 10.24h1.92v1.92h-1.92v-1.92zM21.653 8.32h1.92v1.92h-1.92v-1.92zM23.573 6.4h1.92v1.92h-1.92v-1.92z"></path>
</svg>
