<!-- Generated by IcoMoon.io -->
<svg version="1.1" xmlns="http://www.w3.org/2000/svg" width="32" height="32" viewBox="0 0 32 32">
<title>help-center</title>
<path d="M16 0c-8.837 0-16 7.163-16 16s7.163 16 16 16c8.837 0 16-7.163 16-16s-7.163-16-16-16zM16 28.8c-7.069 0-12.8-5.731-12.8-12.8s5.731-12.8 12.8-12.8c7.069 0 12.8 5.731 12.8 12.8s-5.731 12.8-12.8 12.8zM14.502 20.845v2.411h2.552v-2.411h-2.552zM16.968 19.384c-0.035-0.334-0.053-0.616-0.053-0.898 0-0.933 0.264-1.355 1.373-2.094 1.443-0.986 1.76-1.25 2.165-1.795 0.422-0.581 0.616-1.232 0.616-2.077 0-2.077-1.954-3.52-4.789-3.52-1.654 0-2.992 0.422-3.89 1.232-0.757 0.685-1.109 1.354-1.39 2.638l2.605 0.317c0.070-0.669 0.176-0.968 0.422-1.32 0.422-0.634 1.181-1.003 2.096-1.003 1.514 0 2.446 0.669 2.446 1.742 0 0.792-0.422 1.355-1.549 2.112-1.144 0.739-1.285 0.862-1.654 1.32-0.493 0.616-0.722 1.338-0.722 2.27l0.018 0.334c0 0.229-0.018 0.44-0.053 0.739h2.358l0.001 0.003z"></path>
</svg>
