<!-- Generated by IcoMoon.io -->
<svg version="1.1" xmlns="http://www.w3.org/2000/svg" width="32" height="32" viewBox="0 0 32 32">
<title>home</title>
<path d="M16 0c-8.837 0-16 7.163-16 16s7.163 16 16 16 16-7.163 16-16-7.163-16-16-16zM24.128 14.912c-0.135 0.322-0.451 0.531-0.8 0.531h-0.82v6.491c0 0.958-0.777 1.735-1.735 1.735h-1.735c-0.958 0-1.735-0.777-1.735-1.735v-2.35c0-0.479-0.388-0.868-0.868-0.868h-0.868c-0.479 0-0.868 0.388-0.868 0.868v2.35c0 0.958-0.777 1.735-1.735 1.735h-1.735c-0.958 0-1.735-0.777-1.735-1.735v-6.491h-0.82c-0.349 0-0.664-0.209-0.8-0.531-0.135-0.322-0.065-0.694 0.18-0.943l7.328-7.486c0.163-0.167 0.387-0.261 0.62-0.261s0.457 0.094 0.62 0.261l7.328 7.486c0.242 0.249 0.313 0.621 0.178 0.943z"></path>
</svg>
