<!-- Generated by IcoMoon.io -->
<svg version="1.1" xmlns="http://www.w3.org/2000/svg" width="32" height="32" viewBox="0 0 32 32">
<title>index</title>
<path d="M31.517 14.529l-14.324-14.065c-0.631-0.619-1.735-0.619-2.361 0l-14.313 14.029c-0.508 0.468-0.658 1.185-0.38 1.835 0.279 0.619 0.868 1.001 1.537 1.001h1.538c0.439 0 0.796 0.35 0.796 0.781v12.239c0 0.911 0.751 1.65 1.675 1.65h5.825c0.924 0 1.675-0.739 1.675-1.65v-8.865c0-0.43 0.357-0.78 0.795-0.78h4.111c0.437 0 0.795 0.35 0.795 0.78v8.865c0 0.911 0.751 1.65 1.676 1.65h5.825c0.938 0 1.702-0.739 1.702-1.65v-12.213c0-0.244 0.062-0.401 0.223-0.559 0.149-0.147 0.341-0.22 0.57-0.22h1.438c0.669 0 1.257-0.385 1.541-1.010 0.274-0.629 0.139-1.341-0.344-1.818z"></path>
</svg>
