<!-- Generated by IcoMoon.io -->
<svg version="1.1" xmlns="http://www.w3.org/2000/svg" width="32" height="32" viewBox="0 0 32 32">
<title>infinite</title>
<path d="M16 0c-8.8 0-16 7.2-16 16s7.2 16 16 16c8.8 0 16-7.2 16-16s-7.2-16-16-16zM20.9 20.6c-2.3 0-3.6-1.7-4-2.2 0 0 0-0.1-0.1-0.1-0.3-0.3-0.3-0.9-0.1-1.3 0.3-0.4 0.8-0.4 1.2-0.1 0.1 0.1 0.1 0.2 0.2 0.3 0.3 0.4 1.1 1.5 2.7 1.5 0.8 0 1.3-0.4 1.7-1.1 0.3-0.7 0.4-1.4 0.4-1.6 0-0.3 0-1-0.3-1.7-0.3-0.8-1-1.1-2-1.1-1.7 0-2.9 1.7-4.2 3.5-1.4 1.9-2.9 4-5.1 4-2.4 0-4.1-2.5-4.1-4.7s1.7-4.6 4.2-4.6c2.5 0 3.7 2.2 3.8 2.3 0.2 0.4 0.1 1-0.3 1.3s-0.9 0.1-1.2-0.3c0-0.1-0.8-1.4-2.3-1.4-1.4-0.1-2.4 1.5-2.4 2.6 0 1.2 0.9 2.9 2.4 2.9 1.4 0 2.6-1.6 3.8-3.3 1.4-2 3.1-4.2 5.5-4.2 2.1 0 3 1.2 3.5 2.2 0.3 0.7 0.5 1.5 0.5 2.5 0 1.5-1 4.6-3.8 4.6z"></path>
</svg>
