<!-- Generated by IcoMoon.io -->
<svg version="1.1" xmlns="http://www.w3.org/2000/svg" width="16" height="32" viewBox="0 0 16 32">
<title>job</title>
<path d="M3.562 6h8.877l1-4h-10.877l1 4zM0 0h16l-2 8h-12l-2-8zM8 28.642l5.857-3.661-1.842-14.733 1.985-0.248 2 16-8 5-8-5 2-16 1.985 0.248-1.842 14.733 5.857 3.661zM8.963 18.694c0.383-0.383 1.022-0.366 1.401 0.013v0c0.391 0.391 0.403 1.011 0.013 1.401l-4.27 4.27c-0.383 0.383-1.022 0.366-1.401-0.013v0c-0.391-0.391-0.403-1.011-0.013-1.401l4.27-4.27zM8.963 12.694c0.383-0.383 1.022-0.366 1.401 0.013v0c0.391 0.391 0.403 1.011 0.013 1.401l-4.27 4.27c-0.383 0.383-1.022 0.366-1.401-0.013v0c-0.391-0.391-0.403-1.011-0.013-1.401l4.27-4.27z"></path>
</svg>
