<!-- Generated by IcoMoon.io -->
<svg version="1.1" xmlns="http://www.w3.org/2000/svg" width="32" height="32" viewBox="0 0 32 32">
<title>location</title>
<path d="M14.302 29.119c-1.592-1.728-9.643-10.376-9.643-15.98 0.001-6.207 5.050-11.256 11.257-11.256s11.257 5.049 11.257 11.257c0 5.591-8.029 14.208-9.639 15.975-1.638 1.733-1.638 1.733-3.232 0.004v0 0zM15.916 3.486c-5.312 0-9.634 4.322-9.634 9.634 0 5.019 5.952 11.422 9.508 15.249l0.127 0.135 0.131-0.141c3.555-3.829 9.505-10.236 9.505-15.244-0.002-5.312-4.323-9.634-9.636-9.634v0 0zM15.916 18.727c-3.043 0-5.519-2.475-5.519-5.519 0-3.042 2.475-5.518 5.519-5.518 3.043 0 5.519 2.475 5.519 5.518-0 3.045-2.475 5.519-5.519 5.519v0 0zM15.916 9.271c-2.192 0-3.976 1.782-3.976 3.975s1.783 3.976 3.976 3.976c2.192 0 3.976-1.784 3.976-3.976 0.001-2.192-1.783-3.975-3.976-3.975v0 0z"></path>
</svg>
