<!-- Generated by IcoMoon.io -->
<svg version="1.1" xmlns="http://www.w3.org/2000/svg" width="32" height="32" viewBox="0 0 32 32">
<title>man</title>
<path d="M18.15 13.914c-2.627-2.439-6.746-2.284-9.183 0.34-2.441 2.626-2.286 6.746 0.338 9.184 2.627 2.437 6.745 2.284 9.183-0.341v0h0c2.437-2.626 2.286-6.746-0.338-9.183zM29.279 0h-26.557c-1.503 0-2.721 1.218-2.721 2.721v26.557c0 1.503 1.218 2.721 2.721 2.721h26.558c1.503 0 2.721-1.218 2.721-2.721v-26.557c0-1.503-1.218-2.721-2.721-2.721zM26.047 14.177c-0.591 0-1.071-0.479-1.071-1.071 0-0.039 0.002-0.077 0.006-0.115v-4.954l-4.579 4.933c2.998 3.561 2.75 8.367-0.286 11.636-3.307 3.559-8.851 3.804-12.409 0.499-3.561-3.305-3.793-8.914-0.489-12.473 3.036-3.27 8.143-3.568 11.491-1.235l4.356-4.69h-4.329c-0.084 0.021-0.172 0.033-0.262 0.033-0.602 0-1.090-0.488-1.090-1.090s0.488-1.090 1.090-1.090c0.084 0 0.165 0.010 0.244 0.028h8.384v8.348c0.009 0.055 0.015 0.111 0.015 0.169 0 0.591-0.479 1.070-1.071 1.070z"></path>
</svg>
