<!-- Generated by IcoMoon.io -->
<svg version="1.1" xmlns="http://www.w3.org/2000/svg" width="32" height="32" viewBox="0 0 32 32">
<title>manage</title>
<path d="M0 11.187c0-1.76 1.437-3.187 3.185-3.187h25.629c1.759 0 3.185 1.429 3.185 3.187v17.626c0 1.76-1.437 3.187-3.185 3.187h-25.629c-1.759 0-3.185-1.429-3.185-3.187v-17.626zM0 16v1.6h32v-1.6h-32zM11.2 3.175c0 0 0 4.804 0 4.804h-3.2v-4.802c0-1.754 1.42-3.176 3.199-3.176h9.601c1.767 0 3.199 1.43 3.199 3.162v4.838l-3.2-0.004v-4.834c0 0.013-9.6 0.013-9.6 0.013z"></path>
</svg>
