<!-- Generated by IcoMoon.io -->
<svg version="1.1" xmlns="http://www.w3.org/2000/svg" width="32" height="32" viewBox="0 0 32 32">
<title>money</title>
<path d="M16.176 2.16c-7.181 0-13.024 5.842-13.024 13.023s5.843 13.024 13.024 13.024 13.024-5.842 13.024-13.024c0-7.181-5.843-13.023-13.024-13.023zM16.176 26.65c-6.322 0-11.466-5.144-11.466-11.466s5.143-11.466 11.466-11.466 11.466 5.143 11.466 11.466c0 6.323-5.143 11.466-11.466 11.466zM19.327 8.371l-2.068 3.811c-0.552 1.033-0.888 1.719-1.012 2.059h-0.036c-0.364-0.827-1.39-2.784-3.080-5.87h-1.945l3.617 6.214h-2.966v1.374h3.477v1.892h-3.476v1.39h3.477v2.756h1.725v-2.756h3.354v-1.39h-3.354v-1.892h3.354v-1.374h-2.878l3.653-6.214h-1.84z"></path>
</svg>
