<!-- Generated by IcoMoon.io -->
<svg version="1.1" xmlns="http://www.w3.org/2000/svg" width="32" height="32" viewBox="0 0 32 32">
<title>no</title>
<path d="M28.8 15.771c0 6.857-5.714 12.571-12.571 12.571s-12.571-5.714-12.571-12.571c0-6.857 5.714-12.571 12.571-12.571s12.571 5.714 12.571 12.571v0zM31.086 15.771c0-8.229-6.629-14.857-14.857-14.857s-14.857 6.629-14.857 14.857c0 8.229 6.629 14.857 14.857 14.857s14.857-6.629 14.857-14.857v0 0zM26.286 5.714c-0.457-0.229-1.143-0.229-1.6 0l-18.286 18.286c-0.457 0.457-0.457 1.143 0 1.6s1.143 0.457 1.6 0l18.286-18.286c0.457-0.229 0.457-1.143 0-1.6v0z"></path>
</svg>
