<!-- Generated by IcoMoon.io -->
<svg version="1.1" xmlns="http://www.w3.org/2000/svg" width="32" height="32" viewBox="0 0 32 32">
<title>notice</title>
<path d="M26.56 19.2v-6.4c0-5.28-4.32-11.2-9.6-11.2v-1.6h-3.2v1.6c-5.28 0-9.6 5.92-9.6 11.2v6.4l-1.6 6.4c0 0.96 0.64 1.6 1.6 1.6h22.4c0.96 0 1.6-0.64 1.6-1.6l-1.6-6.4zM16.96 24h-10.72l0.96-4 0.16-0.32v-6.88c0-3.68 2.88-8 6.4-8h3.2c3.52 0 6.4 4.32 6.4 8v6.72l0.16 0.32 0.96 4-7.52 0.16zM15.36 32c1.76 0 3.2-1.44 3.2-3.2h-6.4c0 1.76 1.44 3.2 3.2 3.2z"></path>
</svg>
