<!-- Generated by IcoMoon.io -->
<svg version="1.1" xmlns="http://www.w3.org/2000/svg" width="32" height="32" viewBox="0 0 32 32">
<title>paying</title>
<path d="M2.7 23h20.3c0.9 0 1.7-0.8 1.7-1.7l-0.4-3.1h7.1c0.4 0 0.7-0.3 0.7-0.7s-0.3-0.7-0.7-0.7h-7.3l-0.2-1.4h5.4c0.4 0 0.7-0.3 0.7-0.7s-0.3-0.7-0.7-0.7h-5.6l-0.2-1h3.6c0.4 0 0.7-0.3 0.7-0.7s-0.3-0.7-0.7-0.7h-3.8l-0.2-1.8c0-0.9-0.8-1.6-1.7-1.6h-19.7c-1 0-1.7 0.7-1.7 1.7l1 11.5c0 0.9 0.8 1.6 1.7 1.6zM1.7 9.2h19.8c0.3 0 0.6 0.3 0.6 0.6l0.2 1.8h-3.3c-0.4 0-0.7 0.3-0.7 0.7s0.3 0.7 0.7 0.7h3.5l0.1 1.1h-1.5c-0.4 0-0.7 0.3-0.7 0.7s0.3 0.7 0.7 0.7h1.7l0.2 1.3h-21.3l-0.6-7c0-0.3 0.2-0.6 0.6-0.6zM23 22h-20.3c-0.3 0-0.6-0.3-0.6-0.7l-0.1-0.8h21.4l0.1 0.9c0.1 0.3-0.2 0.6-0.5 0.6z"></path>
</svg>
