<!-- Generated by IcoMoon.io -->
<svg version="1.1" xmlns="http://www.w3.org/2000/svg" width="27" height="32" viewBox="0 0 27 32">
<title>pdf</title>
<path d="M25.802 8.589h-4.489c-1.358 0-2.464-1.067-2.464-2.378v-4.64h-16.386c-0.463 0-0.838 0.363-0.838 0.81v27.241c0 0.446 0.375 0.809 0.838 0.809h22.501c0.461 0 0.838-0.363 0.838-0.809v-21.032zM20.476 2.741v3.469c0 0.446 0.375 0.808 0.838 0.808h3.399l-4.237-4.277zM20.238 0.231l0.012 0.012 7.179 7.246v22.132c0 1.312-1.106 2.379-2.464 2.379h-22.501c-1.358 0-2.464-1.067-2.464-2.379v-27.241c0-1.313 1.106-2.38 2.464-2.38h17.545l0.228 0.231zM24.609 19.379v-0.001c-0.135 0.084-0.527 0.13-0.778 0.13-0.811 0-1.815-0.36-3.224-0.947 0.542-0.039 1.036-0.060 1.482-0.060 0.814 0 1.056-0.001 1.852 0.196 0.797 0.197 0.807 0.598 0.669 0.682v0zM10.481 19.501h-0.001c0.31-0.542 0.633-1.111 0.964-1.715 0.804-1.481 1.313-2.64 1.692-3.592 0.752 1.334 1.691 2.466 2.793 3.373 0.138 0.114 0.283 0.227 0.435 0.341-2.241 0.432-4.178 0.956-5.883 1.593v0zM13.095 5.506c0.445 0 0.7 1.093 0.72 2.117 0.020 1.024-0.225 1.743-0.531 2.275-0.253-0.787-0.376-2.030-0.376-2.841 0 0-0.018-1.551 0.187-1.551v0zM4.329 25.145c0.252-0.673 1.254-2.004 2.734-3.183 0.092-0.073 0.321-0.282 0.532-0.477-1.548 2.403-2.586 3.359-3.267 3.66v0zM25.373 18.518c-0.025-0.179-0.171-0.402-0.329-0.553h-0.002c-0.448-0.429-1.442-0.658-2.956-0.677-1.024-0.011-2.259 0.077-3.555 0.254-0.582-0.327-1.179-0.679-1.649-1.108-1.263-1.148-2.318-2.742-2.977-4.495 0.043-0.163 0.079-0.307 0.114-0.455 0 0 0.711-3.933 0.523-5.263-0.026-0.182-0.042-0.236-0.092-0.378l-0.061-0.154c-0.194-0.434-0.573-0.895-1.169-0.87l-0.358-0.011c-0.664 0-1.205 0.33-1.348 0.824-0.432 1.548 0.015 3.864 0.821 6.865l-0.207 0.488c-0.579 1.371-1.302 2.751-1.941 3.97l-0.084 0.158c-0.671 1.28-1.281 2.365-1.834 3.287l-0.571 0.293c-0.043 0.022-1.021 0.525-1.249 0.659-1.948 1.132-3.239 2.416-3.451 3.435-0.068 0.325-0.017 0.74 0.329 0.933l0.552 0.272c0.24 0.115 0.492 0.176 0.75 0.176 1.388 0 2.998-1.682 5.214-5.447 2.561-0.811 5.476-1.486 8.031-1.856 1.948 1.067 4.341 1.807 5.854 1.807 0.269 0 0.499-0.024 0.687-0.073 0.29-0.075 0.534-0.236 0.684-0.455 0.294-0.429 0.353-1.021 0.273-1.627v0z"></path>
</svg>
