<!-- Generated by IcoMoon.io -->
<svg version="1.1" xmlns="http://www.w3.org/2000/svg" width="32" height="32" viewBox="0 0 32 32">
<title>people</title>
<path d="M23.588 20.026c-1.266-1.266-2.794-2.174-4.462-2.675 2.417-1.155 4.091-3.624 4.091-6.477 0-3.956-3.218-7.175-7.175-7.175s-7.175 3.219-7.175 7.175c0 2.853 1.674 5.322 4.091 6.477-1.668 0.501-3.196 1.409-4.462 2.675-2.015 2.015-3.125 4.695-3.125 7.545 0 0.446 0.35 0.806 0.79 0.83v0.004h0.029v0.012l19.687-0.012c0.461 0 0.835-0.374 0.835-0.835-0-2.85-1.11-5.53-3.125-7.545zM10.538 10.874c0-3.035 2.469-5.505 5.505-5.505s5.505 2.469 5.505 5.505-2.469 5.505-5.505 5.505-5.505-2.469-5.505-5.505zM16.043 18.571c4.691 0 8.55 3.608 8.96 8.194h-17.92c0.41-4.586 4.269-8.194 8.96-8.194z"></path>
</svg>
