<!-- Generated by IcoMoon.io -->
<svg version="1.1" xmlns="http://www.w3.org/2000/svg" width="1024" height="1024" viewBox="0 0 1024 1024">
<title></title>
<g id="icomoon-ignore">
</g>
<path d="M620.599 512.020c85.523 0 155.026-70.447 155.026-157.558s-69.503-157.558-155.026-157.558v-62.976c120.495 0 218.002 98.831 218.002 220.534 0 74.984-37.015 141.286-93.615 181.14 127.611 50.399 217.958 176.059 217.958 322.983h-62.976c0-156.716-125.174-283.589-279.369-283.589v-62.976zM331.483 557.99c-85.638-34.962-146.084-119.967-146.084-219.282 0-130.509 104.382-236.308 233.143-236.308s233.143 105.799 233.143 236.308c0 94.797-55.072 176.556-134.556 214.203 166.047 38.262 289.985 188.805 289.985 368.689h-62.976c0-174.223-139.007-315.116-310.053-315.116s-310.053 140.894-310.053 315.116h-62.976c0-172.747 114.3-318.436 270.427-363.61zM418.542 512.039c93.789 0 170.167-77.415 170.167-173.332s-76.378-173.332-170.167-173.332c-93.789 0-170.167 77.415-170.167 173.332s76.378 173.332 170.167 173.332z"></path>
</svg>
