<!-- Generated by IcoMoon.io -->
<svg version="1.1" xmlns="http://www.w3.org/2000/svg" width="32" height="32" viewBox="0 0 32 32">
<title>phone</title>
<path d="M22.080 29.92c-4.029 0-8.856-3.708-12.012-9.228-4.089-7.153-4-14.616 0.202-16.991 0.908-0.513 1.945-0.79 3.080-0.74 0.083-0.007 0.162 0.009 0.25 0.007 0.021-0 0.068 0.003 0.073 0.003 1.95 0.11 3.536 2.309 3.928 5.358 0.256 1.989-0.122 3.787-1.010 4.809-0.472 0.543-1.065 0.839-1.73 0.854-0.001 0-0.074 0.019-0.098 0.049-0.034 0.042-0.074 0.189-0.021 0.485 0.384 0.937 0.839 1.867 1.353 2.767 0.56 0.979 1.187 1.916 1.865 2.786 0.008 0.008 0.015 0.016 0.023 0.024 0.116 0.13 0.194 0.13 0.231 0.13 0.13 0 0.289-0.080 0.384-0.142 0.444-0.601 1.177-0.929 2.083-0.929 1.219 0 2.671 0.587 3.984 1.609 2.41 1.877 3.4 4.4 2.519 5.995-0.078 0.142-0.086 0.157-0.164 0.296-0.584 0.885-1.273 1.654-2.156 2.153-0.827 0.467-1.764 0.704-2.785 0.704h0zM20.682 20.678c-0.298 0-0.691 0.060-0.871 0.345-0.040 0.064-0.090 0.122-0.148 0.171-0.066 0.057-0.67 0.555-1.448 0.555-0.491 0-0.938-0.192-1.3-0.557-0.040-0.034-0.077-0.072-0.11-0.114-0.745-0.948-1.432-1.97-2.042-3.038-0.56-0.979-1.054-1.994-1.469-3.014-0.017-0.042-0.030-0.086-0.039-0.13-0.156-0.75-0.049-1.358 0.319-1.808 0.482-0.589 1.2-0.611 1.266-0.611 0.077-0.002 0.313-0.007 0.591-0.327 0.592-0.682 0.848-2.107 0.652-3.63-0.297-2.304-1.349-3.8-2.45-4.005-0.036 0.001-0.206-0.002-0.269-0.005-0.865-0.051-1.662 0.127-2.333 0.506-3.345 1.89-3.174 8.727 0.372 14.929 2.848 4.981 7.238 8.459 10.678 8.459 0.751 0 1.432-0.169 2.024-0.504 0.653-0.369 1.259-0.999 1.663-1.692 0.034-0.059 0.078-0.131 0.14-0.246 0.406-0.754-0.388-2.597-2.19-4-1.033-0.804-2.168-1.285-3.037-1.285v0z"></path>
</svg>
