<!-- Generated by IcoMoon.io -->
<svg version="1.1" xmlns="http://www.w3.org/2000/svg" width="32" height="32" viewBox="0 0 32 32">
<title>plus-tips</title>
<path d="M0 15.1c0 0.5 0.4 0.9 0.9 0.9h1.8c0.5 0 0.9-0.4 0.9-0.9s-0.4-0.9-0.9-0.9h-1.8c-0.5 0-0.9 0.4-0.9 0.9zM28.4 15.1c0 0.5 0.4 0.9 0.9 0.9h1.8c0.5 0 0.9-0.4 0.9-0.9s-0.4-0.9-0.9-0.9h-1.8c-0.5 0-0.9 0.4-0.9 0.9zM28.1 5.6c0.4 0.4 0.4 1.1 0 1.5l-1.5 1.5c-0.4 0.4-1.1 0.4-1.5 0s-0.4-1.1 0-1.5l1.5-1.5c0.4-0.4 1.1-0.4 1.5 0zM3.9 5.6c-0.4 0.4-0.4 1.1 0 1.5l1.5 1.5c0.4 0.4 1 0.4 1.4 0s0.4-1.1 0-1.5l-1.4-1.5c-0.4-0.4-1.1-0.4-1.5 0zM15.1 0c0.5 0 0.9 0.4 0.9 0.9v1.8c0 0.5-0.4 0.9-0.9 0.9s-0.9-0.4-0.9-0.9v-1.8c0-0.5 0.4-0.9 0.9-0.9zM13.3 26.7h5.3c0.5 0 0.9 0.4 0.9 0.9s-0.4 0.9-0.9 0.9h-5.3c-0.5 0-0.9-0.4-0.9-0.9s0.4-0.9 0.9-0.9zM15.1 30.2h1.8c0.5 0 0.9 0.4 0.9 0.9s-0.4 0.9-0.9 0.9h-1.8c-0.5 0-0.9-0.4-0.9-0.9s0.4-0.9 0.9-0.9zM16 8.9c3.9 0 7.1 3.2 7.1 7.1s-3.2 7.1-7.1 7.1-7.1-3.2-7.1-7.1 3.2-7.1 7.1-7.1zM16 7.1c-4.9 0-8.9 4-8.9 8.9s4 8.9 8.9 8.9 8.9-4 8.9-8.9c0-4.9-4-8.9-8.9-8.9v0z"></path>
</svg>
