<!-- Generated by IcoMoon.io -->
<svg version="1.1" xmlns="http://www.w3.org/2000/svg" width="32" height="32" viewBox="0 0 32 32">
<title>plus</title>
<path d="M31.695 10.848l-5.899-6.263c-0.264-0.28-0.631-0.438-1.015-0.438h-17.487c-0.385 0-0.752 0.159-1.015 0.438l-5.899 6.263c-0.517 0.549-0.505 1.409 0.029 1.942l14.643 14.655c0.261 0.262 0.617 0.409 0.986 0.409s0.725-0.147 0.987-0.409l14.643-14.655c0.533-0.533 0.545-1.393 0.029-1.942zM9.514 12.64l3.573 9.733-9.467-9.76 5.893 0.027zM17.567 6.427l2.48 4.080-7.92-0.027 2.907-4.080 2.533 0.027zM15.967 25.227v-0.080l-4.213-12.533 8.48-0.027-4.267 12.56v0.080zM22.474 12.64l6.107-0.080-9.52 9.813 3.413-9.733zM28.207 10.453l-5.878-0.032-2.575-4.102 4.507 0.027 3.947 4.107zM7.754 6.32h4.853l-2.861 4.102-5.592 0.005 3.6-4.107z"></path>
</svg>
