<!-- Generated by IcoMoon.io -->
<svg version="1.1" xmlns="http://www.w3.org/2000/svg" width="32" height="32" viewBox="0 0 32 32">
<title>plus-chat</title>
<path d="M16-0.1c-8.8 0-16 7.2-16 16s7.2 16 16 16c8.8 0 16-7.2 16-16s-7.2-16-16-16zM16 23.7c-0.3 0-0.6 0-0.9 0l-4.7 1.6v-3.7c-1.5-1.3-2.4-3.1-2.4-5.1 0-4 3.6-7.2 8-7.2s8 3.2 8 7.2c0 3.9-3.6 7.2-8 7.2zM13.3 14.6c0.7 0 1.3 0.6 1.3 1.3s-0.6 1.3-1.3 1.3c-0.7 0-1.3-0.6-1.3-1.3s0.6-1.3 1.3-1.3zM18.7 14.6c0.7 0 1.3 0.6 1.3 1.3s-0.6 1.3-1.3 1.3c-0.7 0-1.3-0.6-1.3-1.3-0.1-0.7 0.5-1.3 1.3-1.3z"></path>
</svg>
