<!-- Generated by IcoMoon.io -->
<svg version="1.1" xmlns="http://www.w3.org/2000/svg" width="32" height="32" viewBox="0 0 32 32">
<title>process</title>
<path d="M16 29.538c7.477 0 13.538-6.061 13.538-13.538s-6.061-13.538-13.538-13.538c-7.477 0-13.538 6.061-13.538 13.538s6.061 13.538 13.538 13.538zM22.055 14.769h-13.439c-0.68 0-1.231 0.551-1.231 1.231s0.551 1.231 1.231 1.231h13.439l-3.323 4.154c-0.425 0.531-0.339 1.305 0.192 1.73s1.305 0.339 1.73-0.192l4.923-6.154c0.36-0.45 0.36-1.088 0-1.538l-4.923-6.154c-0.425-0.531-1.199-0.617-1.73-0.192s-0.617 1.199-0.192 1.73l3.323 4.154zM16 32c-8.837 0-16-7.163-16-16s7.163-16 16-16c8.837 0 16 7.163 16 16s-7.163 16-16 16z"></path>
</svg>
