<!-- Generated by IcoMoon.io -->
<svg version="1.1" xmlns="http://www.w3.org/2000/svg" width="26" height="32" viewBox="0 0 26 32">
<title>profile</title>
<path d="M13.176 18.776c1.663 0 3.012-1.348 3.012-3.012s-1.348-3.012-3.012-3.012c-1.663 0-3.012 1.348-3.012 3.012s1.348 3.012 3.012 3.012zM11.030 19.416c-1.25-0.736-2.089-2.096-2.089-3.652 0-2.339 1.896-4.235 4.235-4.235s4.235 1.896 4.235 4.235c0 1.556-0.839 2.915-2.089 3.652 2.585 0.89 4.442 3.344 4.442 6.231h-1.224c0-2.963-2.402-5.365-5.365-5.365s-5.365 2.402-5.365 5.365h-1.224c0-2.887 1.857-5.34 4.442-6.231zM5.647 4.471v1.412h-4.235v24.471h23.059v-24.471h-4.235v-1.412h4.235c0.78 0 1.412 0.632 1.412 1.412v24.471c0 0.78-0.632 1.412-1.412 1.412h-23.059c-0.78 0-1.412-0.632-1.412-1.412v-24.471c0-0.78 0.632-1.412 1.412-1.412h4.235zM8 3.529v1.882h9.882v-1.882h-2.821l-0.37-0.846c-0.399-0.912-0.916-1.272-1.75-1.272-0.837 0-1.362 0.363-1.769 1.279l-0.373 0.838h-2.8zM7.059 2.118h2.824c0.627-1.412 1.647-2.118 3.059-2.118s2.426 0.706 3.044 2.118h2.839c0.26 0 0.471 0.211 0.471 0.471v3.765c0 0.26-0.211 0.471-0.471 0.471h-11.765c-0.26 0-0.471-0.211-0.471-0.471v-3.765c0-0.26 0.211-0.471 0.471-0.471z"></path>
</svg>
