<!-- Generated by IcoMoon.io -->
<svg version="1.1" xmlns="http://www.w3.org/2000/svg" width="48" height="32" viewBox="0 0 48 32">
<title>question2</title>
<path d="M24 3.491c-6.909 0-12.509 5.599-12.509 12.509s5.6 12.509 12.509 12.509 12.509-5.6 12.509-12.509-5.599-12.509-12.509-12.509zM24 26.781c-5.953 0-10.781-4.828-10.781-10.781s4.828-10.781 10.781-10.781 10.781 4.828 10.781 10.781-4.828 10.781-10.781 10.781zM22.96 21.131h1.903v2.003h-1.903v-2.003zM28.279 12.714c0 0.525-0.1 0.996-0.303 1.421s-0.635 0.957-1.297 1.591c-0.659 0.634-1.1 1.087-1.315 1.353-0.216 0.269-0.378 0.587-0.491 0.962-0.112 0.372-0.159 0.871-0.147 1.5h-1.725c0-0.731 0.058-1.319 0.178-1.756s0.294-0.822 0.532-1.147c0.234-0.328 0.659-0.806 1.275-1.444 0.615-0.635 1.009-1.097 1.187-1.385s0.265-0.715 0.265-1.284-0.203-1.072-0.61-1.513c-0.406-0.437-0.994-0.657-1.766-0.657-1.741 0-2.61 1.034-2.61 3.1h-1.731c0.024-0.939 0.137-1.657 0.334-2.147s0.51-0.928 0.941-1.315c0.432-0.385 0.913-0.672 1.444-0.853 0.532-0.184 1.090-0.275 1.678-0.275 1.191 0 2.182 0.35 2.972 1.050s1.188 1.631 1.189 2.799z"></path>
</svg>
