<!-- Generated by IcoMoon.io -->
<svg version="1.1" xmlns="http://www.w3.org/2000/svg" width="32" height="32" viewBox="0 0 32 32">
<title>read-callback</title>
<path d="M16 0.8c8.4 0 15.2 6.8 15.2 15.2s-6.8 15.2-15.2 15.2-15.2-6.9-15.2-15.2c0-8.4 6.8-15.2 15.2-15.2zM16 0c-8.8 0-16 7.1-16 16 0 8.8 7.2 16 16 16s16-7.1 16-16c0-8.9-7.2-16-16-16v0zM11.5 21.6v-10.6h9.1v7.2h0.8v-7.5c0-0.3-0.2-0.5-0.5-0.5h-9.6c-0.3 0-0.5 0.2-0.5 0.5v11.2c0 0.3 0.2 0.5 0.5 0.5h4.3v-0.8h-4.1zM13.1 13.4h5.9c0.1 0 0.3 0.1 0.3 0.3 0 0.1-0.1 0.3-0.3 0.3h-5.9c-0.1 0-0.3-0.1-0.3-0.3s0.1-0.3 0.3-0.3zM13.1 15.5h5.9c0.1 0 0.3 0.1 0.3 0.3 0 0.1-0.1 0.3-0.3 0.3h-5.9c-0.1 0-0.3-0.1-0.3-0.3s0.1-0.3 0.3-0.3zM13.1 17.7h5.9c0.1 0 0.3 0.1 0.3 0.3s-0.1 0.3-0.3 0.3h-5.9c-0.1 0-0.3-0.1-0.3-0.3s0.1-0.3 0.3-0.3zM18.3 22.6l-1.8-1.6c-0.2-0.2-0.2-0.4 0-0.6s0.4-0.2 0.6 0l1.2 1.1 3.1-2.9c0.2-0.2 0.4-0.1 0.6 0 0.2 0.2 0.1 0.4 0 0.6l-3.7 3.4z"></path>
</svg>
