<!-- Generated by IcoMoon.io -->
<svg version="1.1" xmlns="http://www.w3.org/2000/svg" width="40" height="32" viewBox="0 0 40 32">
<title>refresh</title>
<path d="M29.333 28.355c-2.82 2.276-6.451 3.645-10.414 3.645-8.976 0-16.253-7.028-16.253-15.698 0-1.015 0.1-2.007 0.29-2.968l2.651 1.51c-0.056 0.481-0.084 0.968-0.084 1.458 0 7.146 5.997 12.938 13.395 12.938 2.831 0 5.521-0.848 7.764-2.393l2.649 1.509zM29.333 28.355c-2.82 2.276-6.451 3.645-10.414 3.645-8.976 0-16.253-7.028-16.253-15.698 0-1.015 0.1-2.007 0.29-2.968l2.651 1.51c-0.056 0.481-0.084 0.968-0.084 1.458 0 7.146 5.997 12.938 13.395 12.938 2.831 0 5.521-0.848 7.764-2.393l2.649 1.509zM18.592 2.64c7.317 0 13.248 5.54 13.248 12.373 0 0.744-0.070 1.477-0.208 2.196l2.554 1.458c0.313-1.17 0.479-2.394 0.479-3.654 0-8.291-7.197-15.013-16.075-15.013-4.057 0-7.764 1.404-10.592 3.72l2.553 1.457c2.286-1.633 5.084-2.537 8.039-2.537zM18.592 2.64c7.317 0 13.248 5.54 13.248 12.373 0 0.744-0.070 1.477-0.208 2.196l2.554 1.458c0.313-1.17 0.479-2.394 0.479-3.654 0-8.291-7.197-15.013-16.075-15.013-4.057 0-7.764 1.404-10.592 3.72l2.553 1.457c2.286-1.633 5.084-2.537 8.039-2.537zM29.333 16h10.667l-5.333 8-5.333-8zM0 16h10.667l-5.333-8-5.333 8z"></path>
</svg>
