<!-- Generated by IcoMoon.io -->
<svg version="1.1" xmlns="http://www.w3.org/2000/svg" width="34" height="32" viewBox="0 0 34 32">
<title>scan</title>
<path d="M33.231 16.869h-32c-0.679 0-1.231-0.54-1.231-1.205s0.551-1.205 1.231-1.205h32c0.681 0 1.231 0.54 1.231 1.205s-0.55 1.205-1.231 1.205v0zM29.538 31.329h-7.385c-0.681 0-1.231-0.539-1.231-1.205s0.55-1.205 1.231-1.205h7.385c0.679 0 1.231-0.54 1.231-1.205v-6.025c0-0.666 0.55-1.205 1.231-1.205s1.231 0.539 1.231 1.205v6.025c0 1.993-1.657 3.615-3.692 3.615v0zM11.077 31.329h-6.154c-2.036 0-3.692-1.622-3.692-3.615v-6.025c0-0.666 0.551-1.205 1.231-1.205s1.231 0.539 1.231 1.205v6.025c0 0.665 0.553 1.205 1.231 1.205h6.154c0.679 0 1.231 0.539 1.231 1.205s-0.551 1.205-1.231 1.205v0zM2.462 10.845c-0.679 0-1.231-0.54-1.231-1.205v-6.025c0-1.993 1.657-3.615 3.692-3.615h6.154c0.679 0 1.231 0.54 1.231 1.205s-0.551 1.205-1.231 1.205h-6.154c-0.678 0-1.231 0.541-1.231 1.205v6.025c0 0.665-0.551 1.205-1.231 1.205v0zM32 10.845c-0.681 0-1.231-0.54-1.231-1.205v-6.025c0-0.664-0.551-1.205-1.231-1.205h-7.385c-0.681 0-1.231-0.54-1.231-1.205s0.55-1.205 1.231-1.205h7.385c2.036 0 3.692 1.622 3.692 3.615v6.025c0 0.665-0.55 1.205-1.231 1.205v0z"></path>
</svg>
