<!-- Generated by IcoMoon.io -->
<svg version="1.1" xmlns="http://www.w3.org/2000/svg" width="32" height="32" viewBox="0 0 32 32">
<title>search-talet</title>
<path d="M13.4 10.1c1.8 0 3.3 1.5 3.3 3.3s-1.5 3.3-3.3 3.3c-1.8 0-3.3-1.5-3.3-3.3s1.5-3.3 3.3-3.3zM13.4 8.4c-2.8 0-5 2.2-5 5s2.2 5 5 5 5-2.2 5-5c0-2.8-2.2-5-5-5v0zM6.8 21.8c1.5-2 3.9-3.4 6.7-3.4 2.7 0 5.1 1.3 6.7 3.3 0 0 0 0 0 0s0.7-0.4 1.5-0.7c-1.8-2.6-4.8-4.3-8.2-4.3-3.3 0-6.2 1.6-8 4 0.1 0.3 0.5 0.6 1.3 1.1-0.1 0 0 0 0 0zM14.3 1.7c6.9 0 12.5 5.6 12.5 12.5s-5.6 12.5-12.5 12.5-12.6-5.6-12.6-12.5c0-6.9 5.6-12.5 12.6-12.5zM14.3 0c-7.9 0-14.3 6.4-14.3 14.2s6.4 14.2 14.2 14.2c7.8 0 14.2-6.4 14.2-14.2s-6.3-14.2-14.1-14.2v0zM23.9 22.3c-0.3 0.3-0.3 0.9 0 1.2l6.6 6.6c0.3 0.3 0.9 0.3 1.2 0s0.3-0.9 0-1.2l-6.6-6.6c-0.3-0.3-0.8-0.3-1.2 0z"></path>
</svg>
