<!-- Generated by IcoMoon.io -->
<svg version="1.1" xmlns="http://www.w3.org/2000/svg" width="32" height="32" viewBox="0 0 32 32">
<title>search</title>
<path d="M13.912 3.52c-5.742 0-10.397 4.661-10.397 10.41s4.654 10.41 10.397 10.41c5.742 0 10.397-4.661 10.397-10.41-0.002-5.749-4.656-10.41-10.397-10.41zM13.907 22.734c-4.851 0-8.784-3.941-8.784-8.803s3.933-8.803 8.784-8.803c4.851 0 8.784 3.941 8.784 8.803 0 4.861-3.933 8.803-8.784 8.803zM21.33 21.302c0.291-0.298 0.765-0.299 1.058-0.005l6.466 6.496c0.293 0.294 0.296 0.774 0.005 1.072s-0.765 0.299-1.058 0.005l-6.466-6.496c-0.293-0.294-0.294-0.774-0.005-1.072z"></path>
</svg>
