<!-- Generated by IcoMoon.io -->
<svg version="1.1" xmlns="http://www.w3.org/2000/svg" width="32" height="32" viewBox="0 0 32 32">
<title>search-style1</title>
<path d="M21.599 20.145c3.882-3.882 4.124-9.933 0.541-13.516s-9.634-3.341-13.516 0.541c-3.882 3.882-4.124 9.933-0.541 13.516s9.634 3.341 13.516-0.541zM22.575 23.178c-5.101 4.156-12.322 4.134-16.721-0.264-4.719-4.719-4.4-12.689 0.712-17.801s13.082-5.431 17.801-0.712c4.398 4.398 4.42 11.62 0.264 16.721l6.631 6.631c0.561 0.561 0.539 1.493-0.012 2.045-0.568 0.568-1.486 0.571-2.045 0.012l-6.631-6.631z"></path>
</svg>
