<!-- Generated by IcoMoon.io -->
<svg version="1.1" xmlns="http://www.w3.org/2000/svg" width="32" height="32" viewBox="0 0 32 32">
<title>send</title>
<path d="M26.8 5.4l-2.4 0.8-11.6 9.8 1.4 1.4 12-10.2zM11 22.4v-5l-2-1v8c0 0 0 0 0 0 0 0.2 0 0.2 0 0.4s0.2 0.4 0.4 0.4 0.6 0.4 1 0.2c0.2 0 0.2-0.2 0.4-0.2l4-3.2-1-1.6-2.8 2zM28 2.8l-26 8.4c-0.8 0.2-1 1.4 0 1.8l7 3.4 3.2 1.6 1.4 2.4 1.2 1.6 5 7.8c0.4 0.8 1.6 0.6 1.8-0.2l7.8-25.4c0.2-0.8-0.6-1.6-1.4-1.4zM20.2 26.8l-6-9.4-1.4-1.4-7.8-3.6 19.4-6.2 2.4-0.8-0.6 1.8-6 19.6z"></path>
</svg>
