<!-- Generated by IcoMoon.io -->
<svg version="1.1" xmlns="http://www.w3.org/2000/svg" width="32" height="32" viewBox="0 0 32 32">
<title>senior-link</title>
<path d="M25.436 14.646c-0.707 1.161-1.884 2.050-3.293 2.46-0.036 0.010-0.071 0.021-0.107 0.031-0.217 0.062-0.441 0.1-0.662 0.1-0.976 0-1.528-0.66-1.231-1.473 0.216-0.595 0.785-1.098 1.479-1.33 1.076-0.393 1.827-1.287 1.827-2.328 0-1.403-1.365-2.54-3.047-2.54s-3.048 1.137-3.048 2.54v7.788c0 1.873-1.085 3.515-2.709 4.444-0.885 0.506-1.928 0.804-3.047 0.804-3.175 0-5.757-2.354-5.757-5.248 0-0.921 0.263-1.786 0.722-2.54 0.711-1.165 1.894-2.059 3.312-2.465 0.001-0.001 0.002-0.001 0.003-0.001 0.239-0.075 0.487-0.116 0.732-0.116 0.98 0 1.534 0.663 1.237 1.48-0.202 0.553-0.744 1.031-1.377 1.284-0.076 0.025-0.149 0.053-0.222 0.084-1.006 0.415-1.698 1.276-1.698 2.274 0 1.402 1.364 2.54 3.047 2.54s3.047-1.137 3.047-2.54v-7.788c0-1.873 1.085-3.516 2.709-4.445 0.885-0.506 1.928-0.804 3.048-0.804 3.174 0 5.756 2.354 5.756 5.249 0 0.921-0.263 1.786-0.722 2.54zM16 0c-8.837 0-16 7.164-16 16.001s7.163 16 16 16 16-7.164 16-16c0-8.837-7.163-16.001-16-16.001z"></path>
</svg>
