<!-- Generated by IcoMoon.io -->
<svg version="1.1" xmlns="http://www.w3.org/2000/svg" width="32" height="32" viewBox="0 0 32 32">
<title>service</title>
<path d="M16.8 1.603c-7.51 0-13.6 5.694-13.6 12.717 0 3.928 1.904 7.434 4.898 9.768l-0.411 6.309 5.589-3.81c1.126 0.283 2.302 0.446 3.525 0.446 7.512 0 13.6-5.693 13.6-12.715s-6.088-12.715-13.6-12.715zM17.579 22.307h-1.939v-1.774h1.939v1.774zM18.922 15.635c-1.043 0.664-1.542 1.49-1.493 2.485 0 0.283 0 0.498 0 0.637h-1.565c0-0.235 0-0.472 0-0.709-0.050-1.323 0.597-2.435 1.939-3.334 1.541-0.994 2.237-2.058 2.088-3.194-0.198-1.371-1.094-2.13-2.685-2.27-2.040-0.094-3.256 0.875-3.654 2.909l-1.566-0.496c0.645-2.602 2.435-3.856 5.37-3.762 2.634 0.142 4.051 1.373 4.25 3.691 0.099 1.466-0.794 2.814-2.683 4.043z"></path>
</svg>
