<!-- Generated by IcoMoon.io -->
<svg version="1.1" xmlns="http://www.w3.org/2000/svg" width="32" height="32" viewBox="0 0 32 32">
<title>shine</title>
<path d="M16 0c-8.8 0-16 7.2-16 16s7.2 16 16 16c8.8 0 16-7.2 16-16s-7.2-16-16-16zM20.5 10.8l1.1-1.1c0.2-0.2 0.6-0.2 0.8 0s0.2 0.6 0 0.8l-1.1 1.1c-0.2 0.2-0.6 0.2-0.8 0-0.3-0.3-0.3-0.6 0-0.8zM15.5 7.9c0-0.3 0.2-0.5 0.5-0.5s0.5 0.2 0.5 0.5v1.6c0 0.3-0.2 0.5-0.5 0.5s-0.5-0.2-0.5-0.5v-1.6zM9.9 9.9c0.2-0.2 0.6-0.2 0.8 0l1.1 1.1c0.2 0.2 0.2 0.6 0 0.8s-0.6 0.2-0.8 0l-1.1-1.1c-0.2-0.3-0.2-0.6 0-0.8zM9.5 16.5h-1.6c-0.3 0-0.5-0.2-0.5-0.5s0.2-0.5 0.5-0.5h1.6c0.3 0 0.5 0.2 0.5 0.5s-0.2 0.5-0.5 0.5zM12.1 20.7l-1.1 1.1c-0.2 0.2-0.6 0.2-0.8 0s-0.2-0.6 0-0.8l1.1-1.1c0.2-0.2 0.5-0.2 0.8 0 0.2 0.2 0.2 0.5 0 0.8zM16.5 24.1c0 0.3-0.2 0.5-0.5 0.5s-0.5-0.2-0.5-0.5v-1.6c0-0.3 0.2-0.5 0.5-0.5s0.5 0.2 0.5 0.5v1.6zM16 20.9c-2.7 0-4.9-2.2-4.9-4.9s2.2-4.9 4.9-4.9 4.9 2.2 4.9 4.9c0 2.7-2.2 4.9-4.9 4.9zM22.1 22.1c-0.2 0.2-0.6 0.2-0.8 0l-1.1-1.1c-0.2-0.2-0.2-0.6 0-0.8s0.6-0.2 0.8 0l1.1 1.1c0.2 0.3 0.2 0.6 0 0.8zM24.1 16.5h-1.6c-0.3 0-0.5-0.2-0.5-0.5s0.2-0.5 0.5-0.5h1.6c0.3 0 0.5 0.2 0.5 0.5 0.1 0.3-0.2 0.5-0.5 0.5z"></path>
</svg>
