<!-- Generated by IcoMoon.io -->
<svg version="1.1" xmlns="http://www.w3.org/2000/svg" width="30" height="32" viewBox="0 0 30 32">
<title>show-tutorial</title>
<path d="M4 0h22c2.209 0 4 1.791 4 4v24c0 2.209-1.791 4-4 4h-22c-2.209 0-4-1.791-4-4v-24c0-2.209 1.791-4 4-4zM7 8c-0.552 0-1 0.448-1 1s0.448 1 1 1h16c0.552 0 1-0.448 1-1s-0.448-1-1-1h-16zM7 14c-0.552 0-1 0.448-1 1s0.448 1 1 1h16c0.552 0 1-0.448 1-1s-0.448-1-1-1h-16zM7 20c-0.552 0-1 0.448-1 1s0.448 1 1 1h10c0.552 0 1-0.448 1-1s-0.448-1-1-1h-10z"></path>
</svg>
