<!-- Generated by IcoMoon.io -->
<svg version="1.1" xmlns="http://www.w3.org/2000/svg" width="32" height="32" viewBox="0 0 32 32">
<title>smile</title>
<path d="M16 30.4c7.953 0 14.4-6.447 14.4-14.4s-6.447-14.4-14.4-14.4c-7.953 0-14.4 6.447-14.4 14.4s6.447 14.4 14.4 14.4zM16 32c-8.837 0-16-7.163-16-16s7.163-16 16-16c8.837 0 16 7.163 16 16s-7.163 16-16 16zM24 16c0 4.418-3.582 8-8 8s-8-3.582-8-8h1.6c0 3.535 2.865 6.4 6.4 6.4s6.4-2.865 6.4-6.4h1.6zM22.4 16h1.6c0 4.418-3.582 8-8 8s-8-3.582-8-8h1.6c0 3.535 2.865 6.4 6.4 6.4s6.4-2.865 6.4-6.4zM11.2 12.8c0.884 0 1.6-0.716 1.6-1.6s-0.716-1.6-1.6-1.6c-0.884 0-1.6 0.716-1.6 1.6s0.716 1.6 1.6 1.6zM20.8 12.8c0.884 0 1.6-0.716 1.6-1.6s-0.716-1.6-1.6-1.6c-0.884 0-1.6 0.716-1.6 1.6s0.716 1.6 1.6 1.6z"></path>
</svg>
