<!-- Generated by IcoMoon.io -->
<svg version="1.1" xmlns="http://www.w3.org/2000/svg" width="32" height="32" viewBox="0 0 32 32">
<title>smiling-face</title>
<path d="M16 1.333v1.333c-7.33 0-13.333 6.003-13.333 13.333s6.003 13.333 13.333 13.333c7.33 0 13.333-6.003 13.333-13.333s-6.003-13.333-13.333-13.333v-1.333zM16 1.333v-1.333c8.803 0 16 7.197 16 16s-7.197 16-16 16c-8.803 0-16-7.197-16-16s7.197-16 16-16v1.333zM9.333 17.333c0-0.736 0.597-1.333 1.333-1.333s1.333 0.597 1.333 1.333c0 2.209 1.791 4 4 4s4-1.791 4-4c0-0.736 0.597-1.333 1.333-1.333s1.333 0.597 1.333 1.333c0 3.682-2.985 6.667-6.667 6.667s-6.667-2.985-6.667-6.667zM11.333 13.333c1.105 0 2-0.895 2-2s-0.895-2-2-2c-1.105 0-2 0.895-2 2s0.895 2 2 2zM20.667 13.333c1.105 0 2-0.895 2-2s-0.895-2-2-2c-1.105 0-2 0.895-2 2s0.895 2 2 2z"></path>
</svg>
