<!-- Generated by IcoMoon.io -->
<svg version="1.1" xmlns="http://www.w3.org/2000/svg" width="36" height="32" viewBox="0 0 36 32">
<title>solid-heart</title>
<path d="M18.105 32c-0.177 0-0.354-0.035-0.52-0.107-0.995-0.429-5.355-3.119-9.28-6.628-2.386-2.133-4.291-4.264-5.663-6.334-1.753-2.647-2.643-5.211-2.643-7.621 0-3.773 0.984-6.674 2.926-8.623 1.777-1.783 4.245-2.686 7.337-2.686 2.98 0 5.759 1.354 7.842 3.771 2.082-2.417 4.861-3.771 7.842-3.771 3.092 0 5.561 0.904 7.337 2.686 1.942 1.949 2.926 4.851 2.926 8.623 0 2.41-0.889 4.974-2.643 7.62-1.373 2.071-3.277 4.201-5.663 6.334-3.925 3.509-8.285 6.199-9.28 6.628-0.166 0.072-0.343 0.108-0.52 0.108v0z"></path>
</svg>
