<!-- Generated by IcoMoon.io -->
<svg version="1.1" xmlns="http://www.w3.org/2000/svg" width="32" height="32" viewBox="0 0 32 32">
<title>speaker</title>
<path d="M2.033 12.033v7.934h5.454v-7.934h-5.454zM19.775 2.197c0.946-0.605 2.203-0.329 2.808 0.617 0.209 0.327 0.32 0.707 0.32 1.095v24.202c0 1.123-0.91 2.033-2.033 2.033-0.392 0-0.775-0.113-1.104-0.326l-12.108-7.826c-0.057 0.005-0.114 0.007-0.172 0.007h-5.454c-1.123 0-2.033-0.91-2.033-2.033v-7.934c0-1.123 0.91-2.033 2.033-2.033h5.454c0.029 0 0.058 0.001 0.086 0.002l12.202-7.805zM9.594 11.122v9.701l11.276 7.289v-24.202l-11.276 7.213zM32.058 16.041c0 0.561-0.455 1.016-1.016 1.016h-3.967c-0.561 0-1.016-0.455-1.016-1.016v-0.083c0-0.561 0.455-1.016 1.016-1.016h3.967c0.561 0 1.016 0.455 1.016 1.016v0.083zM31.635 5.464l0.041 0.072c0.281 0.486 0.114 1.108-0.372 1.388l-3.436 1.984c-0.486 0.281-1.108 0.114-1.388-0.372l-0.041-0.072c-0.281-0.486-0.114-1.108 0.372-1.388l3.436-1.984c0.486-0.281 1.108-0.114 1.388 0.372zM31.677 26.464l-0.041 0.072c-0.281 0.486-0.902 0.653-1.388 0.372l-3.436-1.984c-0.486-0.281-0.653-0.902-0.372-1.388l0.041-0.072c0.281-0.486 0.902-0.653 1.388-0.372l3.436 1.984c0.486 0.281 0.653 0.902 0.372 1.388z"></path>
</svg>
