<!-- Generated by IcoMoon.io -->
<svg version="1.1" xmlns="http://www.w3.org/2000/svg" width="32" height="32" viewBox="0 0 32 32">
<title>success</title>
<path d="M16 32c-8.837 0-16-7.164-16-16s7.163-16 16-16 16 7.164 16 16c0 8.836-7.163 16-16 16zM25.776 10.374l-0.514-0.514c-0.284-0.284-0.744-0.284-1.028 0l-10.665 10.444-3.915-4.098c-0.129-0.129-0.463-0.002-0.747 0.282l-0.514 0.514c-0.284 0.284-0.41 0.619-0.281 0.747l5.224 5.467c0.128 0.129 0.462 0.002 0.746-0.282l0.514-0.514c0.091-0.090 0.158-0.184 0.213-0.276l10.969-10.742c0.284-0.284 0.284-0.745-0-1.029z"></path>
</svg>
