<!-- Generated by IcoMoon.io -->
<svg version="1.1" xmlns="http://www.w3.org/2000/svg" width="32" height="32" viewBox="0 0 32 32">
<title>switch</title>
<path d="M1.2 5l29.5 0.1c0.7 0 1.2 0.6 1.2 1.2 0 0.7-0.6 1.2-1.2 1.2l-29.5-0.1c-0.6 0-1.2-0.5-1.2-1.2s0.6-1.2 1.2-1.2zM24.9 0.4c0.5-0.5 1.2-0.5 1.7 0l5 5c0.5 0.5 0.5 1.2 0 1.7s-1.2 0.5-1.7 0l-5-5c-0.5-0.5-0.5-1.2 0-1.7zM1.2 17.2h29.5c0.7 0 1.2 0.6 1.2 1.2 0 0.7-0.6 1.2-1.2 1.2h-29.5c-0.7 0-1.2-0.6-1.2-1.2 0-0.7 0.6-1.2 1.2-1.2zM7.2 24.4c-0.5 0.5-1.2 0.5-1.7 0l-5.1-5.1c-0.5-0.5-0.5-1.2 0-1.7s1.2-0.5 1.7 0l5.1 5.1c0.5 0.5 0.5 1.2 0 1.7z"></path>
</svg>
