<!-- Generated by IcoMoon.io -->
<svg version="1.1" xmlns="http://www.w3.org/2000/svg" width="32" height="32" viewBox="0 0 32 32">
<title>time</title>
<path d="M28.361 11.264c-1.31-3.174-3.879-5.751-7.055-7.055-3.196-1.313-6.82-1.318-10.014 0-3.15 1.3-5.737 3.861-7.055 7.055-1.3 3.15-1.305 6.809 0 9.986 1.313 3.196 3.905 5.756 7.055 7.055 3.194 1.318 6.818 1.313 10.014 0 3.176-1.305 5.751-3.879 7.055-7.055 1.313-3.196 1.308-6.815 0-9.986zM26.853 20.624c-1.15 2.755-3.419 5.023-6.173 6.174-2.765 1.154-5.928 1.122-8.762 0-5.644-2.235-8.486-9.274-6.173-14.907 2.326-5.665 9.334-8.62 14.936-6.174 2.735 1.195 5.013 3.366 6.173 6.174 1.144 2.769 1.154 5.969 0 8.734zM21.931 17.153h-5.405v-8.051c0-1.053-1.65-1.053-1.65 0v8.961c0 0.32 0.128 0.555 0.383 0.704 0.161 0.131 0.367 0.206 0.584 0.206h6.088c0.484 0 0.91-0.37 0.91-0.91 0-0.484-0.427-0.91-0.91-0.91z"></path>
</svg>
