<!-- Generated by IcoMoon.io -->
<svg version="1.1" xmlns="http://www.w3.org/2000/svg" width="32" height="32" viewBox="0 0 32 32">
<title>tip-work</title>
<path d="M16 32c-8.837 0-16-7.163-16-16s7.163-16 16-16c8.837 0 16 7.163 16 16s-7.163 16-16 16zM8.754 8.686v5.371h-0.983c-0.731 0-1.12-0.023-1.623-0.114v1.463c0.526-0.091 0.891-0.114 1.531-0.114h1.074v6.423c-0.16 0.046-0.183 0.069-0.571 0.206-1.166 0.457-1.943 0.663-2.629 0.754l0.457 1.669c0.297-0.16 0.457-0.229 0.914-0.411 2.629-1.006 3.68-1.463 5.897-2.583l0.046-1.44c-1.326 0.64-1.806 0.869-2.743 1.257v-5.874h0.617c0.594 0 1.006 0.023 1.509 0.114v-1.463c-0.571 0.091-0.823 0.114-1.509 0.114h-0.617v-5.371h0.777c0.846 0 1.303 0.023 1.897 0.114v-1.531c-0.549 0.114-1.051 0.137-1.943 0.137h-3.086c-0.869 0-1.349-0.023-1.92-0.137v1.531c0.526-0.091 1.006-0.114 1.829-0.114h1.074zM21.531 8.709v6.56h-0.937c-0.709 0-1.051-0.023-1.577-0.114v1.486c0.503-0.091 0.891-0.114 1.554-0.114h0.96v8h-1.943c-1.006 0-1.417-0.023-2.011-0.137v1.554c0.594-0.114 1.051-0.137 2.057-0.137h4.571c0.96 0 1.44 0.023 2.080 0.137v-1.554c-0.617 0.114-1.006 0.137-2.034 0.137h-1.303v-8h1.143c0.594 0 1.006 0.023 1.509 0.091v-1.463c-0.503 0.091-0.846 0.114-1.509 0.114h-1.143v-6.56h1.28c0.8 0 1.234 0.023 1.806 0.091v-1.509c-0.549 0.114-0.983 0.137-1.874 0.137h-3.543c-0.823 0-1.189-0.023-1.737-0.137v1.531c0.549-0.091 0.983-0.114 1.737-0.114h0.914zM13.966 18.377c0.709-2.514 0.914-3.954 1.211-8.046l-1.417-0.023c-0.183 4.16-0.343 5.189-1.12 7.566l1.326 0.503zM18.057 8.617c0-1.029 0.023-1.646 0.114-2.309h-1.6c0.091 0.571 0.137 1.371 0.137 2.309v3.474c0 4.823-0.366 7.177-1.417 9.326-0.823 1.691-1.806 2.811-3.589 4.046 0.503 0.366 0.777 0.617 1.12 1.097 1.851-1.463 2.926-2.72 3.726-4.434 1.143-2.423 1.509-4.96 1.509-10.331v-3.177z"></path>
</svg>
