<!-- Generated by IcoMoon.io -->
<svg version="1.1" xmlns="http://www.w3.org/2000/svg" width="32" height="32" viewBox="0 0 32 32">
<title>unfold</title>
<path d="M25.7 8.9l-8.5-8.5c-0.356-0.297-0.816-0.416-1.256-0.362-0.406-0.013-0.819 0.138-1.144 0.463l-8.5 8.5c-0.6 0.6-0.6 1.4 0 2s1.5 0.6 2.1 0l7.6-7.6 7.6 7.6c0.6 0.6 1.5 0.6 2.1 0s0.6-1.5 0-2.1zM25.6 21c-0.6-0.6-1.5-0.6-2.1 0l-7.55 7.55-7.55-7.55c-0.6-0.6-1.5-0.6-2.1 0s-0.6 1.5 0 2.1l8.5 8.5c0.278 0.278 0.716 0.403 1.15 0.369 0.434 0.034 0.872-0.091 1.15-0.369l8.5-8.5c0.6-0.6 0.6-1.5 0-2.1z"></path>
</svg>
