<!-- Generated by IcoMoon.io -->
<svg version="1.1" xmlns="http://www.w3.org/2000/svg" width="32" height="32" viewBox="0 0 32 32">
<title>upload</title>
<path d="M28 11.5h-4.4v1.8h4.4c1 0 1.8 0.8 1.8 1.8v13.1c0 1-0.8 1.8-1.8 1.8h-24c-1 0-1.8-0.8-1.8-1.8v-13c0-1 0.8-1.8 1.8-1.8h4.4v-1.8h-4.4c-2 0-3.7 1.7-3.7 3.7v13.1c0 1.9 1.7 3.6 3.7 3.6h24c2 0 3.7-1.7 3.7-3.7v-13.1c0-2-1.7-3.7-3.7-3.7v0zM9.9 8.2l5.1-5.1v17.3c0 0.5 0.4 0.9 0.9 0.9s0.9-0.4 0.9-0.9v-17.2l5 5c0.2 0.2 0.4 0.3 0.7 0.3 0.2 0 0.5-0.1 0.7-0.3 0.4-0.4 0.4-0.9 0-1.3l-6.6-6.7c-0.2-0.1-0.4-0.2-0.7-0.2 0 0 0 0 0 0-0.2 0-0.5 0.1-0.7 0.3l-6.6 6.6c-0.4 0.4-0.4 0.9 0 1.3s1 0.4 1.3 0v0z"></path>
</svg>
