<!-- Generated by IcoMoon.io -->
<svg version="1.1" xmlns="http://www.w3.org/2000/svg" width="32" height="32" viewBox="0 0 32 32">
<title>upload-resume</title>
<path d="M32 19.7c0-0.5-0.4-0.9-0.9-0.9-0.6 0-1 0.5-0.9 0.9v8.5h-28.3v-8.5c0-0.5-0.4-0.9-0.9-0.9s-1 0.5-0.9 0.9v9.184c-0.016 0.072-0.019 0.147 0 0.216 0 0.5 0.4 0.9 0.9 0.9h30.1c0.5 0 0.9-0.4 0.9-0.9v0 0-9.4zM24.1 7.6l-7.3-7.3c-0.212-0.212-0.481-0.313-0.762-0.3-0.012 0-0.025 0-0.038 0-0.019 0-0.034 0-0.053 0.003-0.281-0.016-0.578 0.084-0.847 0.297l-7.3 7.3c-0.4 0.4-0.4 1.1 0 1.5s1.1 0.4 1.5 0l5.9-5.9v18.5c0 0.5 0.4 0.9 0.9 0.9s0.9-0.4 0.9-0.9v-18.2l5.6 5.6c0.4 0.4 1.1 0.4 1.5 0s0.4-1.1 0-1.5z"></path>
</svg>
