<!-- Generated by IcoMoon.io -->
<svg version="1.1" xmlns="http://www.w3.org/2000/svg" width="32" height="32" viewBox="0 0 32 32">
<title>wage</title>
<path d="M15.289 17.031v2.347h-5.689v1.92h5.689v3.769h1.92v-3.769h5.191v-1.92h-5.191v-2.347h5.191v-1.92h-4.375l4.786-5.704-1.471-1.234-4.852 5.782-4.852-5.782-1.471 1.234 4.786 5.704h-5.353v1.92h5.689zM0 4.791c0-2.646 2.149-4.791 4.791-4.791h22.419c2.646 0 4.791 2.149 4.791 4.791v22.419c0 2.646-2.149 4.791-4.791 4.791h-22.419c-2.646 0-4.791-2.149-4.791-4.791v-22.419z"></path>
</svg>
