<!-- Generated by IcoMoon.io -->
<svg version="1.1" xmlns="http://www.w3.org/2000/svg" width="32" height="32" viewBox="0 0 32 32">
<title>warning-big</title>
<path d="M18.889 9.593l-1.096 8.906h-0.004c-0.151 0.851-0.891 1.5-1.786 1.5s-1.634-0.648-1.785-1.5h-0.004l-1.103-8.906h0.021c-0.015-0.121-0.037-0.239-0.037-0.364 0-1.607 1.302-2.908 2.908-2.908s2.908 1.301 2.908 2.908c0 0.124-0.021 0.243-0.036 0.364h0.014zM16.003 26.043c-1.204 0-2.181-0.976-2.181-2.181s0.977-2.181 2.181-2.181c1.205 0 2.181 0.976 2.181 2.181s-0.976 2.181-2.181 2.181v0zM16 0c-8.822 0-16 7.178-16 16s7.178 16 16 16c8.822 0 16-7.178 16-16s-7.178-16-16-16v0z"></path>
</svg>
