<!-- Generated by IcoMoon.io -->
<svg version="1.1" xmlns="http://www.w3.org/2000/svg" width="32" height="32" viewBox="0 0 32 32">
<title>warning</title>
<path d="M16.002 0.118c-8.792 0-15.92 7.127-15.92 15.92s7.127 15.92 15.92 15.92c8.792 0 15.92-7.127 15.92-15.92s-7.127-15.92-15.92-15.92zM17.557 7.838l-0.247 11.913h-2.664l-0.236-11.913h3.148zM17.294 23.704c-0.349 0.354-0.766 0.533-1.239 0.533-0.544 0-0.997-0.179-1.346-0.533-0.347-0.351-0.523-0.771-0.523-1.248 0-0.509 0.183-0.942 0.544-1.288 0.354-0.34 0.784-0.513 1.277-0.513 0.491 0 0.92 0.18 1.275 0.535s0.535 0.781 0.535 1.266c0 0.477-0.176 0.896-0.523 1.248z"></path>
</svg>
