<!-- Generated by IcoMoon.io -->
<svg version="1.1" xmlns="http://www.w3.org/2000/svg" width="32" height="32" viewBox="0 0 32 32">
<title>woman</title>
<path d="M13.658 9.058c-2.553 2.553-2.553 6.692-0.003 9.248l0.006 0.007c2.555 2.551 6.696 2.55 9.248-0.003 2.555-2.555 2.555-6.697 0-9.251-2.553-2.555-6.697-2.555-9.251 0zM29.279 0h-26.557c-1.503 0-2.721 1.218-2.721 2.721v26.557c0 1.503 1.218 2.721 2.721 2.721h26.558c1.503 0 2.721-1.218 2.721-2.721v-26.557c0-1.503-1.218-2.721-2.721-2.721zM24.53 19.93c-3.18 3.181-8.183 3.425-11.648 0.74l-1.733 1.699 2.835 2.835c0.253 0.2 0.416 0.508 0.416 0.855 0 0.602-0.488 1.090-1.090 1.090-0.324 0-0.614-0.142-0.814-0.366l-2.896-2.896-1.788 1.754c-0.016 0.017-0.034 0.034-0.051 0.050l-0.008 0.008-0-0c-0.193 0.175-0.449 0.283-0.731 0.283-0.602 0-1.090-0.488-1.090-1.090 0-0.354 0.169-0.668 0.431-0.867l1.704-1.671-2.819-2.819c-0.032-0.028-0.062-0.058-0.090-0.090l-0.037-0.037 0.003-0.003c-0.151-0.187-0.242-0.425-0.242-0.684 0-0.602 0.488-1.090 1.090-1.090 0.347 0 0.656 0.163 0.855 0.416l2.789 2.789 1.726-1.693c-2.734-3.467-2.504-8.506 0.694-11.706 3.45-3.449 9.044-3.449 12.494 0s3.45 9.044 0 12.493z"></path>
</svg>
