<!-- Generated by IcoMoon.io -->
<svg version="1.1" xmlns="http://www.w3.org/2000/svg" width="27" height="32" viewBox="0 0 27 32">
<title>word</title>
<path d="M25.802 8.589h-4.489c-1.358 0-2.464-1.067-2.464-2.378v-4.64h-16.386c-0.463 0-0.838 0.363-0.838 0.81v27.241c0 0.446 0.375 0.809 0.838 0.809h22.501c0.461 0 0.838-0.363 0.838-0.809v-21.032zM20.476 2.741v3.469c0 0.446 0.375 0.808 0.838 0.808h3.399l-4.237-4.277zM20.238 0.231l0.012 0.012 7.179 7.246v22.132c0 1.312-1.106 2.379-2.464 2.379h-22.501c-1.358 0-2.464-1.067-2.464-2.379v-27.241c0-1.313 1.106-2.38 2.464-2.38h17.545l0.228 0.231zM12.463 11.136h3.171l2.255 9.981h0.070l2.115-9.981h2.607l-3.312 13.285h-3.102l-2.326-10.125-2.537 10.125h-3.171l-3.172-13.285h2.89l1.974 9.981 2.537-9.981z"></path>
</svg>
