<?xml version="1.0" standalone="no"?>
<!DOCTYPE svg PUBLIC "-//W3C//DTD SVG 1.1//EN" "http://www.w3.org/Graphics/SVG/1.1/DTD/svg11.dtd" >
<svg xmlns="http://www.w3.org/2000/svg">
<defs>
  <font id="aut-icon" horiz-adv-x="1536">
    <font-face font-family="aut-icon"
      units-per-em="1024" ascent="1024"
      descent="0" />
    <missing-glyph horiz-adv-x="0" />
    <glyph glyph-name="add-2"
      unicode="&#xE001;"
      horiz-adv-x="1024" d="M512 1024C534.4 1024 550.4 1004.8 550.4 985.6V41.6C550.4 19.2 531.1999999999999 3.2 512 3.2C489.6 3.2 473.6 22.4000000000001 473.6 41.6V985.6C473.6 1004.8 489.6 1024 512 1024zM38.4 550.4H982.4C1004.8 550.4 1020.8 531.2 1020.8 512C1020.8 489.6 1001.6 473.6 982.4 473.6H38.4C19.2 473.6 0 489.6 0 512S19.2 550.4 38.4 550.4z" />
    <glyph glyph-name="add-hover"
      unicode="&#xE002;"
      horiz-adv-x="1024" d="M512 1024C229.216 1024 0 794.784 0 512S229.216 0 512 0C794.784 0 1024 229.216 1024 512S794.784 1024 512 1024zM768 460.8H563.2V256C563.2 227.7440000000001 540.2560000000001 204.8 512 204.8S460.8 227.7439999999999 460.8 256V460.8H256C227.744 460.8 204.8 483.7439999999999 204.8 512S227.744 563.2 256 563.2H460.8V768C460.8 796.256 483.744 819.2 512 819.2S563.2 796.256 563.2 768V563.2H768C796.256 563.2 819.2 540.256 819.2 512S796.2560000000001 460.8 768 460.8z" />
    <glyph glyph-name="add-person"
      unicode="&#xE003;"
      horiz-adv-x="1024" d="M479.04 986.752C337.5360000000001 986.752 222.848 872.128 222.848 730.752S337.536 474.752 479.04 474.752C620.544 474.752 735.232 589.376 735.232 730.752C735.232 872.192 620.544 986.752 479.04 986.752zM478.144 539.072C372.0320000000001 539.072 286.016 625.152 286.016 731.392S372.0320000000001 923.712 478.144 923.712S670.2719999999999 837.6320000000001 670.2719999999999 731.392C670.2719999999999 625.152 584.256 539.072 478.1439999999999 539.072zM155.136 122.3680000000001C155.136 319.36 314.496 479.104 511.04 479.104C555.0079999999999 479.104 596.8639999999999 470.72 635.712 456.128C649.92 473.408 665.3439999999999 488.96 681.856 502.976C629.824 526.4639999999999 572.16 539.904 511.296 539.904C281.6 539.904 95.36 353.3440000000001 95.36 123.264C95.36 112.448 96.192 101.824 96.96 91.2000000000001H156.672C155.84 101.504 155.136 111.808 155.136 122.3680000000001zM735.488 363.8400000000001L735.168 138.3680000000001C735.168 112.128 749.248 90.8800000000001 766.72 90.8800000000001C784.128 90.8800000000001 798.272 112.1280000000002 798.272 138.3680000000002L797.5680000000001 363.8400000000002C797.5680000000001 390.0800000000002 784.4480000000001 411.3280000000002 767.0400000000001 411.3280000000002S735.488 390.0800000000002 735.488 363.8400000000002zM655.488 219.584L878.4000000000001 219.328C904.8320000000002 219.328 926.208 233.536 926.208 251.0079999999999S904.768 282.6879999999999 878.4000000000001 282.6879999999999L655.488 281.9839999999999C629.056 281.9839999999999 607.6800000000001 268.8 607.6800000000001 251.2639999999999S629.056 219.584 655.488 219.584z" />
    <glyph glyph-name="add-position"
      unicode="&#xE004;"
      horiz-adv-x="1024" d="M512 547.2C540.8 547.2 563.2 524.8 563.2 496S540.8000000000001 444.8 512 444.8C483.2 444.8 460.8 467.1999999999999 460.8 496S483.2 547.2 512 547.2zM512 598.4C454.4 598.4 409.6 553.5999999999999 409.6 496S454.4 393.6 512 393.6C569.6 393.6 614.4 438.4 614.4 496S569.6 598.4 512 598.4V598.4zM614.4 956.8C643.1999999999999 956.8 665.6 934.4 665.6 905.6S643.2 854.4 614.4 854.4H409.6C380.8 854.4 358.4 876.8 358.4 905.6S380.8 956.8 409.6 956.8H614.4zM614.4 1008H409.6C352 1008 307.2 963.2 307.2 905.6S352 803.2 409.5999999999999 803.2H614.3999999999999C671.9999999999999 803.2 716.7999999999998 848 716.7999999999998 905.6S671.9999999999999 1008 614.3999999999999 1008V1008zM25.6 598.4H998.4C1011.2 598.4 1024 585.5999999999999 1024 572.8S1011.2 547.1999999999999 998.4 547.1999999999999H25.6C12.8 547.1999999999999 0 560 0 572.8C0 588.8 12.8 598.4 25.6 598.4zM921.6 803.2C950.4 803.2 972.8 780.8 972.8 752V188.8C972.8 160 950.4 137.5999999999999 921.6 137.5999999999999H102.4C73.6 137.5999999999999 51.2 159.9999999999999 51.2 188.8V752C51.2 780.8 73.6 803.2 102.4 803.2H921.6zM921.6 854.4H102.4C44.8 854.4 0 809.6 0 752V188.8C0 131.1999999999999 44.8 86.4 102.4 86.4H921.6C979.2 86.4 1024 131.1999999999999 1024 188.8V752C1024 809.6 979.2 854.4 921.6 854.4V854.4z" />
    <glyph glyph-name="add-staff"
      unicode="&#xE005;"
      horiz-adv-x="1088" d="M613.056 438.624C564.832 467.616 510.304 485.056 457.984 485.056H296.5440000000001C177.4080000000001 485.056 52.096 393.0560000000001 16.64 279.5840000000001L10.336 259.3920000000001C-24.96 146.4000000000001 42.496 53.9200000000001 161.376 53.9200000000001H606.72C564.384 105.1840000000001 538.976 170.8800000000001 538.976 242.5600000000001C538.976 317.7280000000001 566.976 386.4000000000001 613.088 438.6560000000001zM386.24 538.944C252.288 538.944 143.712 647.52 143.712 781.472S252.288 1024 386.24 1024C520.192 1024 628.768 915.424 628.768 781.472S520.192 538.944 386.24 538.944zM835.36 0C701.408 0 592.832 108.576 592.832 242.528S701.408 485.056 835.36 485.056C969.312 485.056 1077.888 376.48 1077.888 242.528S969.3119999999998 0 835.3599999999999 0zM808.416 269.472H700.6400000000001V215.584H808.416V107.808H862.3040000000001V215.584H970.08V269.472H862.3040000000001V377.248H808.416V269.472z" />
    <glyph glyph-name="add"
      unicode="&#xE006;"
      horiz-adv-x="1024" d="M51.2 563.2H972.8C1003.52 563.2 1024 542.72 1024 512S1003.52 460.8 972.8 460.8H51.1999999999999C20.4799999999999 460.8 -1e-13 481.28 -1e-13 512S20.4799999999999 563.2 51.1999999999999 563.2zM512 1024C542.72 1024 563.2 1003.52 563.2 972.8V51.1999999999999C563.2 20.4799999999999 542.72 0 512 0S460.8 20.48 460.8 51.2V972.8C460.8 1003.52 481.28 1024 512 1024z" />
    <glyph glyph-name="advertising"
      unicode="&#xE007;"
      horiz-adv-x="1024" d="M121.92 585.152V97.5360000000001H902.112V585.152H121.92zM73.152 682.656H950.88C977.824 682.656 999.648 660.832 999.648 633.888V48.736C999.648 21.792 977.824 -0.0319999999999 950.88 -0.0319999999999H73.152C46.208 -0.0319999999999 24.384 21.792 24.384 48.7360000000001V633.8880000000001C24.384 660.8320000000001 46.208 682.6560000000002 73.152 682.6560000000002zM268.192 390.0800000000001H463.232V292.5440000000001H268.192V390.0800000000002zM560.768 390.0800000000001H755.808V292.5440000000001H560.768V390.0800000000002zM800.192 647.552L663.072 894.912L250.8160000000001 666.4000000000001L61.376 672.896L658.752 1004.032C682.144 1016.992 711.968 1007.904 725.3439999999999 983.712L913.824 643.6800000000001L800.16 647.5840000000001z" />
    <glyph glyph-name="analyzing"
      unicode="&#xE008;"
      horiz-adv-x="1024" d="M512.544 1022.88C230.08 1022.88 1.12 793.888 1.12 511.456S230.112 0 512.544 0S1024 228.992 1024 511.456S795.008 1022.88 512.544 1022.88zM511.36 153.696C314.336 154.336 154.816 314.24 154.816 511.424C154.816 638.848 221.44 750.688 321.7280000000001 814.0799999999999L323.4880000000001 811.264L487.552 647.2L376.7680000000001 536.4159999999999L327.0080000000001 586.1759999999999C317.824 563.392 312.7360000000001 538.528 312.7360000000001 512.448C312.7360000000001 403.52 401.0560000000001 315.2000000000001 509.984 315.2000000000001C510.432 315.2000000000001 510.8800000000001 315.2000000000001 511.328 315.2320000000001V153.7280000000001zM703.648 208.96L701.7280000000001 211.9680000000001L536.2560000000001 377.4400000000001L647.0400000000001 488.224L694.0160000000001 441.2480000000001C702.5600000000001 463.3280000000001 707.296 487.3280000000001 707.296 512.4480000000001C707.296 620.9280000000001 619.712 708.96 511.3920000000001 709.664V869.152C511.7760000000001 869.152 512.192 869.152 512.576 869.152C710.144 869.152 870.3040000000001 708.9920000000001 870.3040000000001 511.424C870.3040000000001 384.128 803.8080000000001 272.352 703.6800000000001 208.96z" />
    <glyph glyph-name="appaulse"
      unicode="&#xE009;"
      horiz-adv-x="1216" d="M219.584 660.864L76.8 588.8L45.728 679.136L219.616 660.864zM227.936 740.352L76.8 819.2C76.8 819.2 54.72 842.848 128 896L227.936 740.352zM303.872 798.752L247.616 980.448C247.616 980.448 344.992 992.448 358.368 972.8L303.84 798.752zM572.288 821.024C563.616 810.048 557.952 797.76 555.136 784.768L529.408 810.4639999999999C511.936 827.968 509.344 856.1279999999999 524.5120000000001 875.456C534.1120000000001 887.6800000000001 548.192 893.76 562.272 893.76C574.5600000000001 893.76 586.912 889.024 596.224 879.6800000000001C596.224 879.6800000000001 622.784 853.28 622.784 853.28C603.04 848.544 585.28 837.408 572.288 821.024zM1177.6 332.8L1108.8639999999998 641.5999999999999C1107.3919999999998 683.5519999999999 1077.3439999999998 718.208 1037.792 727.0719999999999L1039.0079999999998 771.7439999999999C1039.0079999999998 798.016 1060.4159999999997 819.5519999999999 1086.5279999999998 819.5519999999999S1134.0479999999998 798.016 1134.0479999999998 771.7439999999999C1197.4719999999998 481.6959999999999 1229.0559999999998 336.544 1228.8319999999999 336.2879999999999C1211.7759999999998 316.8959999999999 1194.6879999999999 315.7439999999999 1177.6319999999998 332.7999999999999zM965.216 712.0319999999999C942.592 695.6479999999999 927.744 668.96 927.616 639.008L926.784 609.76L679.328 862.752C661.856 880.2239999999999 659.328 908.384 674.4639999999999 927.744C684.064 939.936 698.1439999999999 946.016 712.2239999999999 946.016C724.512 946.016 736.8319999999999 941.248 746.1759999999999 931.936L965.184 712zM378.752 430.88C387.296 437.632 397.536 440.896 407.872 440.896C420.8640000000001 440.896 433.856 435.7439999999999 443.488 425.9839999999999L551.072 317.8879999999999C555.392 313.5679999999999 561.088 311.392 566.752 311.392C572.4799999999999 311.392 578.144 313.568 582.4639999999999 317.8879999999999C592.064 327.6479999999999 591.808 323.296 582.4639999999999 332.7679999999999L409.216 526.5919999999999C391.744 544.0639999999999 389.152 572.2239999999999 404.32 591.584C413.92 603.776 428 609.8879999999999 442.08 609.8879999999999C454.4319999999999 609.8879999999999 466.7199999999999 605.1199999999999 476.0959999999999 595.808C602.4639999999999 482.592 665.632 425.9839999999999 665.632 425.9839999999999S679.5519999999999 415.424 684.1279999999999 419.872C693.3119999999999 429.088 693.3119999999999 431.712 684.1279999999999 440.896L461.184 676.9599999999999C443.712 694.4319999999999 441.12 722.5919999999999 456.288 741.952C465.888 754.144 479.968 760.2559999999999 494.0479999999999 760.2559999999999C506.3999999999999 760.2559999999999 518.688 755.4879999999999 528.064 746.1759999999999L751.904 521.3439999999999C756.544 516.7359999999999 763.552 522.048 768 526.6239999999999C774.048 532.6719999999999 721.6 600.1599999999999 610.72 729.088C593.248 746.56 590.72 774.7199999999999 605.856 794.0799999999999C615.424 806.2719999999999 629.504 812.3839999999999 643.584 812.3839999999999C655.9359999999999 812.3839999999999 668.2239999999999 807.616 677.5999999999999 798.3039999999999L930.72 544.4799999999999C935.1679999999998 540.0319999999999 940.7359999999998 537.9839999999999 946.1439999999998 537.9839999999999C957.2159999999998 537.9839999999999 967.936 546.5279999999999 968.32 559.52L970.624 638.2079999999999C970.624 664.4799999999999 992.032 686.0159999999998 1018.1439999999998 686.0159999999998S1065.664 664.4799999999999 1065.664 638.2079999999999L1152 281.5999999999999C1152.288 196.2559999999999 1118.144 127.9999999999999 1049.6 76.8S878.656 17.0559999999999 742.3999999999999 51.1999999999999C650.9119999999998 101.8879999999999 569.7599999999999 162.8159999999999 498.9439999999998 233.952C498.9439999999998 233.952 374.5599999999999 358.8160000000001 374.5599999999999 358.8160000000001C354.4959999999998 378.88 356.0319999999998 412.736 378.7519999999999 430.88z" />
    <glyph glyph-name="arrow-down-1"
      unicode="&#xE00A;"
      horiz-adv-x="1024" d="M558.56 216.96V977.44C558.56 1003.136 537.728 1024 511.9999999999999 1024S465.4399999999999 1003.168 465.4399999999999 977.44V216.96L221.184 496.096C204.256 515.456 174.848 517.408 155.5199999999999 500.48S134.2079999999999 454.144 151.1359999999999 434.8160000000001L476.9599999999999 62.4640000000001C495.4879999999999 41.2800000000001 528.4799999999999 41.2800000000001 547.0079999999999 62.4640000000001L872.8319999999999 434.8160000000001C889.7599999999999 454.176 887.8079999999999 483.552 868.4479999999999 500.48S819.7119999999999 515.456 802.7839999999999 496.096L558.5279999999999 216.96z" />
    <glyph glyph-name="arrow-down-2"
      unicode="&#xE00B;"
      horiz-adv-x="1024" d="M537.6 365.376L935.84 763.616L1008.256 691.2L537.6000000000001 220.544L66.9440000000001 691.2L139.3600000000001 763.616z" />
    <glyph glyph-name="arrow-down"
      unicode="&#xE00C;"
      horiz-adv-x="1024" d="M511.072 316.512L60.768 766.8159999999999C49.92 777.728 32.256 777.728 21.344 766.8159999999999V766.8159999999999C10.432 755.9679999999998 10.432 738.3039999999999 21.344 727.3919999999999L482.72 266.016C484.064 262.144 486.272 258.496 489.376 255.424C495.328 249.504 503.296 246.784 511.0720000000001 247.328C518.8480000000001 246.784 526.816 249.504 532.768 255.424C535.8720000000001 258.496 538.08 262.144 539.424 266.016L1000.8 727.3919999999999C1011.712 738.3039999999999 1011.712 755.968 1000.8 766.8159999999999V766.8159999999999C989.888 777.728 972.224 777.728 961.376 766.8159999999999L511.072 316.512z" />
    <glyph glyph-name="arrow-left"
      unicode="&#xE00D;"
      horiz-adv-x="1024" d="M316.512 512.928L766.816 963.232C777.7280000000001 974.08 777.7280000000001 991.744 766.816 1002.656V1002.656C755.9680000000001 1013.568 738.3040000000001 1013.568 727.392 1002.656L266.0160000000001 541.28C262.1440000000001 539.9359999999999 258.4960000000001 537.728 255.4240000000001 534.624C249.5040000000001 528.672 246.7840000000001 520.704 247.3280000000001 512.9279999999999C246.7840000000001 505.1519999999999 249.5040000000001 497.184 255.4240000000001 491.232C258.5280000000001 488.1279999999999 262.1440000000001 485.92 266.0160000000001 484.576L727.392 23.2C738.3040000000001 12.288 755.9680000000001 12.288 766.816 23.2C777.7280000000001 34.1120000000001 777.7280000000001 51.7760000000001 766.816 62.624L316.5120000000001 512.928z" />
    <glyph glyph-name="arrow-right"
      unicode="&#xE00E;"
      horiz-adv-x="1024" d="M696.192 526.1120000000001L245.8880000000001 976.416C234.9760000000001 987.264 234.9760000000001 1004.928 245.8880000000001 1015.84V1015.84C256.7360000000001 1026.752 274.4000000000001 1026.752 285.312 1015.84L746.688 554.4639999999999C750.56 553.12 754.208 550.912 757.28 547.808C763.1999999999999 541.856 765.92 533.8879999999999 765.376 526.112C765.92 518.336 763.1999999999999 510.3679999999999 757.28 504.4159999999999C754.208 501.3119999999999 750.56 499.1039999999999 746.688 497.76L285.312 36.384C274.4000000000001 25.472 256.736 25.472 245.888 36.384V36.384C234.976 47.2960000000001 234.976 64.96 245.888 75.808L696.192 526.112z" />
    <glyph glyph-name="arrow-up-1"
      unicode="&#xE00F;"
      horiz-adv-x="1024" d="M558.56 807.04V46.5599999999999C558.56 20.8639999999999 537.728 0 511.9999999999999 0S465.4399999999999 20.832 465.4399999999999 46.5599999999999V807.04L221.184 527.904C204.256 508.544 174.848 506.592 155.5199999999999 523.52S134.2079999999999 569.856 151.1359999999999 589.184L476.9599999999999 961.5359999999998C495.4879999999999 982.72 528.4799999999999 982.72 547.0079999999999 961.5359999999998L872.8319999999999 589.184C889.7599999999999 569.8239999999998 887.8079999999999 540.4159999999999 868.4479999999999 523.52S819.7119999999999 508.5439999999999 802.7839999999999 527.904L558.5279999999999 807.04z" />
    <glyph glyph-name="arrow-up"
      unicode="&#xE010;"
      horiz-adv-x="1024" d="M512.928 707.488L963.232 257.184C974.08 246.272 991.744 246.272 1002.656 257.184V257.184C1013.568 268.032 1013.568 285.6959999999999 1002.656 296.608L541.28 757.9839999999999C539.9359999999999 761.856 537.728 765.5039999999999 534.624 768.5759999999999C528.672 774.4959999999999 520.7040000000001 777.2159999999999 512.928 776.6719999999999C505.152 777.2159999999999 497.184 774.496 491.232 768.5759999999999C488.128 765.472 485.92 761.856 484.576 757.9839999999999L23.2 296.608C12.288 285.6959999999999 12.288 268.032 23.2 257.184V257.184C34.112 246.272 51.776 246.272 62.624 257.184L512.928 707.4879999999999z" />
    <glyph glyph-name="at"
      unicode="&#xE011;"
      horiz-adv-x="1024" d="M854.816 180.16C808.672 143.872 785.6 130.9119999999999 740.768 114.048C674.1120000000001 88.128 597.216 73.856 524.192 73.856C264.032 73.856 82.048 247.552 82.048 497.7280000000001C82.048 756.96 284.544 952.704 553.664 952.704C786.912 952.704 945.824 807.5200000000001 945.824 593.664C945.824 476.9920000000001 898.4000000000001 375.904 816.384 313.6960000000001C780.5120000000001 287.7760000000001 736.928 269.6320000000001 707.456 269.6320000000001C679.264 269.6320000000001 667.712 281.312 667.712 307.2320000000001C667.712 316.3200000000001 668.992 326.6880000000001 672.832 337.0560000000001L765.12 692.224C781.792 755.744 789.472 781.664 802.272 814.08H717.696L699.744 746.6880000000001C684.352 802.432 636.96 833.5360000000001 563.904 833.5360000000001C474.208 833.5360000000001 387.04 782.9760000000001 328.096 696.128C276.832 620.96 244.8 517.248 244.8 425.2160000000001C244.8 295.5840000000001 315.296 211.3280000000001 422.944 211.3280000000001C460.096 211.3280000000001 498.56 220.4160000000001 530.592 237.2480000000001C557.504 251.5200000000001 572.896 265.76 599.808 300.7680000000001C598.528 294.2720000000001 598.528 289.0880000000001 598.528 285.216C598.528 232.064 635.6800000000001 198.3680000000001 693.376 198.3680000000001C738.24 198.3680000000001 795.904 216.5120000000001 844.608 246.336C958.656 317.6320000000001 1024.032 444.64 1024.032 596.3199999999999C1024.032 852.96 835.6479999999999 1024.064 552.4159999999999 1024.064C232.032 1024.064 0.0319999999999 803.712 0.0319999999999 499.104C0.0319999999999 203.5840000000001 211.4879999999999 0.0640000000001 519.0719999999999 0.0640000000001C594.6879999999999 0.0640000000001 674.1439999999999 13.0240000000001 747.1999999999998 35.0720000000001C804.8639999999998 53.2160000000001 836.8959999999998 68.7680000000001 903.5519999999998 110.2400000000001L854.8479999999998 180.2240000000002zM565.184 763.456C627.968 763.456 660.0319999999999 724.576 660.0319999999999 650.688C660.0319999999999 574.208 635.68 479.5839999999999 598.5279999999999 409.6C557.5039999999999 333.12 493.4399999999999 283.8720000000001 431.9039999999999 283.8720000000001C366.5279999999999 283.8720000000001 329.3759999999999 333.1200000000001 329.3759999999999 419.9680000000001C329.3759999999999 499.0400000000001 358.8479999999999 594.9440000000001 403.7119999999999 664.96C444.7359999999999 728.48 502.3999999999999 763.488 565.1839999999999 763.488z" />
    <glyph glyph-name="backup"
      unicode="&#xE012;"
      horiz-adv-x="1024" d="M963.2 1024H60.8000000000001C25.6000000000001 1024 1e-13 998.4 1e-13 963.2V60.8000000000001C1e-13 28.8000000000001 25.6000000000001 1e-13 60.8000000000001 1e-13H963.2C995.2 1e-13 1024 25.6000000000001 1024 60.8000000000001V963.2C1024 998.4 998.4 1024 963.2 1024zM179.2 601.6H419.2C451.2 601.6 480 576 480 540.8C480 508.8 454.4 480 419.2 480H179.2C147.2 480 118.4 505.6 118.4 540.8C121.6 576 147.2 601.6 179.2 601.6zM844.8 240H179.1999999999999C147.1999999999999 240 118.3999999999999 265.6 118.3999999999999 300.8S144 361.5999999999999 179.1999999999999 361.5999999999999H841.5999999999999C873.5999999999999 361.5999999999999 902.3999999999997 335.9999999999999 902.3999999999997 300.8S876.7999999999998 240 844.7999999999998 240zM902.4 601.6L780.8 662.4000000000001L659.1999999999999 601.6V963.2H899.1999999999999V601.6z" />
    <glyph glyph-name="bind-dingding"
      unicode="&#xE013;"
      horiz-adv-x="1024" d="M553.6 0L620.8000000000001 262.4H524.8000000000001L556.8000000000001 396.8C534.4000000000001 390.4 512.0000000000001 384 486.4000000000001 377.5999999999999C483.2000000000001 374.3999999999999 473.6000000000001 371.2 454.4000000000001 371.2C428.8000000000001 371.2 384.0000000000001 383.9999999999999 323.2000000000001 438.4C310.4000000000001 448 275.2000000000001 483.1999999999999 278.4000000000001 512C278.4000000000001 518.4 284.8000000000001 528 297.6000000000001 534.4C304.0000000000001 537.5999999999999 313.6000000000001 537.5999999999999 326.4000000000001 540.8C307.2000000000001 540.8 294.4000000000001 544 284.8000000000001 544C230.4000000000001 553.5999999999999 166.4000000000001 633.5999999999999 150.4000000000001 710.4C147.2000000000001 716.8 144.0000000000001 729.5999999999999 150.4000000000001 742.4C153.6000000000001 748.8 163.2000000000001 755.2 179.2000000000001 755.2C188.8000000000001 755.2 198.4000000000001 752 211.2000000000001 748.8C224.0000000000001 742.4000000000001 243.2000000000001 736 265.6000000000001 732.8C211.2000000000001 752 166.4000000000001 768 160.0000000000001 777.6C134.4000000000001 806.4000000000001 89.6000000000001 924.8 96.0000000000001 995.2C96.0000000000001 1008 105.6000000000001 1024 124.8000000000001 1024C128.0000000000001 1024 131.2000000000001 1024 134.4000000000001 1024H137.6000000000001C140.8000000000001 1024 390.4000000000001 908.8 560 848C588.8 838.4000000000001 620.8 825.6 649.6 816C784 771.2 889.6 732.8 870.4000000000001 656C870.4000000000001 652.8 867.2 649.6 867.2 646.4L857.6 624C825.6 553.6 739.2 419.2000000000001 736 412.8L723.2 393.5999999999999H848L553.6 0zM560 291.2000000000001H656L617.6 134.4000000000001L787.2 361.6000000000002H668.8000000000001L720.0000000000001 448.0000000000001C745.6000000000001 489.6000000000001 800.0000000000001 582.4000000000001 825.6000000000001 633.6000000000001V633.6000000000001C832.0000000000001 649.6000000000001 835.2000000000002 656.0000000000001 835.2000000000002 659.2000000000002C848.0000000000001 713.6000000000001 752.0000000000001 745.6000000000001 633.6000000000001 787.2000000000002C604.8000000000002 796.8000000000002 576.0000000000001 806.4000000000001 544.0000000000001 819.2000000000002C384.0000000000001 876.8000000000002 144.0000000000001 985.6000000000003 124.8000000000001 995.2000000000002C124.8000000000001 995.2000000000002 124.8000000000001 995.2000000000002 124.8000000000001 995.2000000000002S124.8000000000001 995.2000000000002 124.8000000000001 995.2000000000002C118.4000000000001 928.0000000000002 163.2000000000001 819.2000000000002 182.4000000000001 800.0000000000002C198.4000000000001 784.0000000000002 374.4000000000001 726.4000000000002 537.6000000000001 675.2000000000002L531.2000000000002 646.4000000000001C521.6000000000001 649.6000000000001 268.8000000000002 700.8000000000002 204.8000000000002 716.8000000000002C188.8000000000002 720.0000000000002 179.2000000000002 720.0000000000002 176.0000000000002 720.0000000000002C176.0000000000002 720.0000000000002 176.0000000000002 716.8000000000002 176.0000000000002 716.8000000000002V713.6000000000001C192.0000000000002 649.6000000000001 246.4000000000002 576.0000000000002 288.0000000000002 569.6000000000001C307.2000000000002 566.4000000000002 364.8000000000002 563.2000000000003 448.0000000000002 563.2000000000003C496.0000000000002 563.2000000000003 537.6000000000001 563.2000000000003 537.6000000000001 563.2000000000003L540.8000000000002 534.4000000000002C540.8000000000002 534.4000000000002 499.2000000000002 531.2000000000003 435.2000000000002 521.6000000000001L416.0000000000002 518.4000000000002C374.4000000000002 512.0000000000002 323.2000000000002 505.6000000000003 310.4000000000002 502.4000000000002C307.2000000000002 502.4000000000002 307.2000000000002 502.4000000000002 307.2000000000002 502.4000000000002C307.2000000000002 496.0000000000002 323.2000000000002 473.6000000000003 342.4000000000002 457.6000000000003C400.0000000000003 406.4000000000002 438.4000000000002 400.0000000000003 454.4000000000002 400.0000000000003C467.2000000000002 400.0000000000003 473.6000000000002 403.2000000000003 473.6000000000002 403.2000000000003H476.8000000000002C512.0000000000002 416.0000000000003 544.0000000000002 422.4000000000003 572.8000000000002 432.0000000000003L595.2000000000002 438.4000000000002L560.0000000000001 291.2000000000003z" />
    <glyph glyph-name="briefcase"
      unicode="&#xE014;"
      horiz-adv-x="1024" d="M917.44 577.696V673.056C917.44 725.9200000000001 874.432 768.8960000000001 821.6 768.8960000000001H685.184V827.904C685.184 855.3280000000001 662.88 877.6320000000001 635.456 877.6320000000001H393.952C366.528 877.6320000000001 344.224 855.3280000000001 344.224 827.904V768.8960000000001H205.76C152.896 768.8960000000001 109.92 725.888 109.92 673.056V348.192C109.92 348.192 109.92 348.16 109.92 348.1280000000001V247.2960000000001C109.92 194.432 152.928 151.456 205.76 151.456H821.6C874.464 151.456 917.44 194.4640000000001 917.44 247.2960000000001V577.6C917.44 577.6 917.44 577.6320000000001 917.44 577.664zM398.048 823.84H631.392V768.928H398.0480000000001V823.84zM163.712 673.056C163.712 696.2239999999999 182.56 715.104 205.76 715.104H651.8720000000001C653.9200000000001 714.592 656.0640000000001 714.336 658.3040000000001 714.336S662.6560000000001 714.624 664.7360000000001 715.104H821.6320000000001C844.8000000000001 715.104 863.6800000000001 696.256 863.6800000000001 673.056V608.672C863.0720000000001 608.448 862.464 608.192 861.888 607.904C753.8240000000001 557.184 640.096 540.256 540.224 538.88V557.056C540.224 571.904 528.192 583.968 513.312 583.968S486.4 571.9359999999999 486.4 557.056V539.5840000000001C452.48 540.928 420.8320000000001 543.8720000000001 392.384 547.552C264.416 564.0640000000001 172.064 598.368 163.744 601.5360000000001V605.056L163.744 673.024zM863.648 247.328C863.648 224.16 844.8000000000001 205.28 821.6 205.28H205.76C182.592 205.28 163.712 224.1279999999999 163.712 247.328L163.712 544.4159999999999C199.488 532.288 279.744 507.968 383.968 494.4C418.56 489.888 452.736 486.976 486.3679999999999 485.664V449.216C486.3679999999999 434.3680000000001 498.3999999999999 422.304 513.28 422.304S540.192 434.336 540.192 449.216V484.928C567.872 485.248 595.104 486.72 621.792 489.28C708.576 497.6319999999999 789.8240000000001 517.9839999999999 863.648 549.76L863.648 320.7680000000001L863.648 247.328z" />
    <glyph glyph-name="business-license"
      unicode="&#xE015;"
      horiz-adv-x="1024" d="M812.128 617.9200000000001C696.128 617.9200000000001 600.2560000000001 522.08 600.2560000000001 406.048C600.2560000000001 290.016 696.0960000000001 194.1759999999999 812.1280000000002 194.1759999999999S1024.0000000000002 289.9839999999999 1024.0000000000002 406.048C1024.0000000000002 522.048 928.1600000000002 617.9200000000001 812.1280000000002 617.9200000000001zM811.488 572.0319999999999C857.696 572.0319999999999 898.816 556.64 929.6 520.64C960.416 484.704 980.992 448.736 980.992 402.528S965.6 315.2000000000001 929.6 284.384C893.664 253.6 857.696 233.0560000000001 811.488 233.0560000000001S724.1600000000001 248.4480000000001 693.3760000000001 284.384C662.5600000000001 315.2000000000001 641.984 356.3200000000001 641.984 402.528S657.3760000000001 489.856 693.3760000000001 520.64C729.3120000000001 556.608 770.4000000000001 572.0319999999999 811.488 572.0319999999999zM508.928 282.496H167.136C156.768 282.496 141.248 293.088 141.248 308.992C141.248 324.8639999999999 151.616 335.4559999999999 167.136 335.4559999999999H503.776C514.144 335.4559999999999 529.664 324.8639999999999 529.664 308.992C529.664 293.088 519.2959999999999 282.496 508.928 282.496zM508.928 441.376H167.136C156.768 441.376 141.248 451.968 141.248 467.8399999999999C141.248 478.4319999999999 151.616 494.3359999999999 167.136 494.3359999999999H503.776C514.144 494.3359999999999 529.664 483.7439999999999 529.664 467.8399999999999C529.664 451.968 519.2959999999999 441.376 508.928 441.376zM503.776 600.288H161.984C151.6160000000001 600.288 141.2480000000001 612.032 141.2480000000001 623.808S151.6160000000001 653.28 167.1680000000001 653.28H503.7760000000001C514.1440000000001 653.28 529.6640000000001 641.5039999999999 529.6640000000001 623.808C529.6640000000001 606.1759999999999 514.1440000000001 600.288 503.7760000000001 600.288zM650.336 776.832H166.944C156.64 776.832 141.248 787.424 141.248 803.296C141.248 813.888 151.552 829.792 166.944 829.792H645.152C655.456 829.792 670.88 819.2 670.88 803.296C670.88 787.424 660.576 776.832 650.304 776.832zM700.928 3.296C690.912 3.296 675.936 8.3200000000001 670.912 23.4240000000001V229.5360000000001L715.936 199.3920000000001V204.4160000000001V58.624L810.976 124C820.992 129.024 835.968 129.024 845.984 124L926.016 58.624V199.3920000000001L971.0720000000002 229.5360000000001V28.4480000000001C971.0720000000002 18.4000000000001 966.0480000000002 8.3200000000001 956.0320000000002 3.3280000000001S936.0320000000002 -1.6959999999999 926.0160000000002 8.3520000000001L831.0080000000002 83.7760000000001L720.9600000000002 8.3520000000001C715.9360000000001 8.3520000000001 710.9440000000002 3.3280000000001 700.9600000000002 3.3280000000001zM812.128 494.336C861.152 494.336 900.416 455.072 900.416 406.048C900.416 356.992 861.152 317.76 812.128 317.76C763.072 317.76 723.84 356.9600000000001 723.84 406.048C723.84 455.072 763.0400000000001 494.336 812.128 494.336zM811.488 448.7680000000001C785.8240000000001 448.7680000000001 765.2800000000001 428.2240000000001 765.2800000000001 402.5600000000001S785.8240000000001 356.3520000000001 811.488 356.3520000000001C837.152 356.3520000000001 857.696 376.8960000000001 857.696 402.5600000000001S837.152 448.7680000000001 811.488 448.7680000000001zM598.912 70.624H87.04C35.84 70.624 0 111.424 0 157.312V937.344C0 983.232 40.928 1024.0320000000002 87.04 1024.0320000000002H778.0799999999999C829.2479999999999 1024.0320000000002 865.1199999999999 983.232 865.1199999999999 937.344V677.344H819.0399999999998V937.344C819.0399999999998 962.848 798.5599999999998 978.144 778.0799999999998 978.144H87.0399999999999C61.4079999999999 978.144 46.0799999999999 957.76 46.0799999999999 937.344V162.4000000000001C46.0799999999999 136.9280000000001 66.5599999999999 121.6320000000001 87.0399999999999 121.6320000000001H598.9119999999998C598.9119999999998 121.6320000000001 598.9119999999998 70.624 598.9119999999998 70.624z" />
    <glyph glyph-name="calendar"
      unicode="&#xE016;"
      horiz-adv-x="1024" d="M377.6 172.8L422.4000000000001 128L784 489.6L739.2 534.4000000000001L422.4000000000001 217.6L284.8000000000001 355.2000000000001L240.0000000000001 307.2000000000001zM896 896H832V1024H768V896H256V1024H192V896H128C57.6 896 0 838.4 0 768V128C0 57.6 57.6 0 128 0H896C966.4 0 1024 57.6 1024 128V768C1024 838.4 966.4 896 896 896zM960 128C960 92.8 931.2 64 896 64H128C92.8 64 64 92.8 64 128V614.4H960V128zM960 678.4H64V768C64 803.2 92.8 832 128 832H192V768H256V832H768V768H832V832H896C931.2 832 960 803.2 960 768V678.4z" />
    <glyph glyph-name="call-fail"
      unicode="&#xE017;"
      horiz-adv-x="1024" d="M822.4 201.6C739.1999999999999 118.4 630.4 73.6 512 73.6S284.8 118.4 201.6 201.6C118.4 284.8000000000001 73.6 393.6 73.6 512S118.4 739.2 201.6 822.4C284.8 905.6 393.6 950.4 512 950.4S739.2 905.6 822.4 822.4C905.6 739.2 950.4 630.4 950.4 512S905.6 284.8 822.4 201.6zM512 1024C230.4 1024 0 793.6 0 512S230.4 0 512 0C793.6 0 1024 230.4 1024 512S793.6 1024 512 1024zM726.4 275.2000000000001C723.1999999999999 278.4000000000001 662.4 364.8000000000001 512 364.8000000000001S300.8 278.4000000000001 297.6 275.2000000000001C288 259.2000000000001 291.2000000000001 236.8000000000001 307.2000000000001 224C313.6 220.8 320.0000000000001 217.6 329.6 217.6C342.4000000000001 217.6 352 224 358.4000000000001 233.6C358.4000000000001 233.6 400.0000000000001 291.2000000000001 512 291.2000000000001C620.8 291.2000000000001 665.6 233.6 665.6 233.6C672 224 684.8000000000001 217.6 694.4 217.6C700.8 217.6 710.4 220.8000000000001 716.8 224C732.8 236.8 736 259.2000000000001 726.4 275.2000000000001zM377.6 518.4C345.6 537.5999999999999 307.2000000000001 550.4 262.4000000000001 531.2C217.6 515.2 195.2000000000001 483.2 185.6 444.8C179.2 425.5999999999999 192 406.4 211.2 400C217.6 396.8 227.2 400 233.6 403.2000000000001C246.4000000000001 406.4000000000001 256 416 259.2000000000001 428.8000000000001S268.8000000000001 454.4000000000001 288.0000000000001 464.0000000000001C307.2000000000001 470.4000000000001 323.2000000000001 464.0000000000001 332.8000000000001 457.6000000000001S355.2000000000001 451.2000000000002 368.0000000000001 454.4000000000001C374.4000000000001 457.6000000000001 384.0000000000001 460.8000000000001 387.2000000000001 467.2C400.0000000000001 486.4000000000001 393.6 508.8000000000001 377.6 518.4000000000001zM838.4 448C825.6 486.4 806.4 515.2 761.6 534.4C716.8000000000001 550.4 681.6 540.8 646.4 521.5999999999999C630.4 512 624 489.5999999999999 636.8 470.4C640 464 649.5999999999999 460.8 656 457.6C668.8 454.4 681.6 454.4 691.2 460.8000000000001S716.8000000000001 476.8000000000001 736 467.2C755.2 460.8000000000001 761.6 444.8000000000001 764.8 432S777.5999999999999 412.8 790.4 406.4C796.8 403.2 806.4 403.2 812.8 403.2C835.1999999999999 409.5999999999999 844.8 428.8 838.4 447.9999999999999z" />
    <glyph glyph-name="call"
      unicode="&#xE018;"
      horiz-adv-x="1024" d="M201.6 352C48 624 51.2 908.8 208 998.4C243.2 1017.6 281.6 1027.2 323.2 1024C326.4 1024 329.6 1024 332.8 1024C332.8 1024 336 1024 336 1024C406.4 1024 470.4 937.6 483.2 819.1999999999999C492.8 742.4 480 675.1999999999999 444.8 636.8C425.6 617.5999999999999 403.2 604.8 380.8 604.8C380.8 604.8 377.6 604.8 377.6 601.5999999999999C377.6 601.5999999999999 374.4000000000001 595.2 377.6 582.4C393.6 547.2 409.6 512 428.8 476.8C451.2 438.4 473.6 403.2 499.2 371.2C499.2 371.2 499.2 371.2 499.2 371.2C502.4 364.8 505.6 364.8 508.8000000000001 364.8C515.2 364.8 518.4000000000001 368 524.8000000000001 371.2C540.8000000000001 393.5999999999999 569.6 406.4 601.6 406.4C646.4 406.4 700.8000000000001 384 752 345.6C841.6 275.2000000000001 880 179.2000000000001 848 118.4000000000001C844.8 112.0000000000001 844.8 112.0000000000001 841.6 105.6000000000001C819.2 70.4000000000001 793.6 41.6000000000001 761.6 22.4000000000001S694.4 -3.1999999999998 656 -3.1999999999998V-3.1999999999998C502.4 2e-13 320 140.8000000000002 201.6 352.0000000000003zM566.4 339.2000000000001C566.4 336 563.1999999999999 336 560 332.8000000000001S534.4 310.4000000000001 505.6 310.4000000000001C486.4 310.4000000000001 470.4 316.8000000000001 457.6 332.8000000000001C457.6 332.8000000000001 454.4 336.0000000000001 454.4 336.0000000000001C425.6 371.2000000000002 400.0000000000001 409.6000000000002 377.6 451.2000000000002C355.2000000000001 489.6000000000001 339.2000000000001 528.0000000000002 323.2000000000001 566.4000000000001C323.2000000000001 569.6000000000001 323.2000000000001 569.6000000000001 323.2000000000001 572.8000000000002C316.8000000000001 601.6000000000001 320.0000000000001 624.0000000000001 336.0000000000001 640.0000000000001C355.2000000000001 662.4000000000001 380.8000000000001 662.4000000000001 384.0000000000001 662.4000000000001S396.8000000000001 662.4000000000001 406.4000000000001 675.2C428.8 700.8000000000002 438.4000000000001 755.2 432.0000000000001 812.8000000000001C422.4000000000001 899.2 374.4000000000001 966.4 339.2000000000001 966.4C339.2000000000001 966.4 336.0000000000001 966.4 336.0000000000001 966.4C332.8000000000001 966.4 332.8000000000001 966.4 329.6000000000001 966.4C297.6000000000001 969.6000000000003 268.8000000000001 963.2 243.2000000000001 947.2C118.4000000000001 876.8000000000001 124.8000000000001 614.4000000000001 256.0000000000001 380.8000000000001C361.6 192 528 60.8000000000001 656 60.8000000000001C684.8 60.8000000000001 710.4 67.2000000000001 732.8 80.0000000000001C758.4 92.8000000000001 780.8 118.4000000000001 796.8 144.0000000000001C796.8 147.2000000000002 800 150.4000000000001 803.1999999999999 153.6000000000001C819.1999999999999 182.4000000000001 787.1999999999999 252.8000000000002 719.9999999999999 307.2000000000002C681.5999999999999 339.2000000000002 639.9999999999999 355.2000000000002 604.7999999999998 355.2000000000002C588.7999999999998 352.0000000000001 572.7999999999998 348.8000000000002 566.3999999999999 339.2000000000002zM752 540.8C736 544 726.4 560 729.6 576C742.4 640 697.6 704 633.6 713.6C617.6 716.8 608 732.8 611.2 748.8S630.4000000000001 774.4 646.4000000000001 771.2C742.4000000000001 752 806.4000000000001 662.4000000000001 790.4000000000001 563.2C787.2 550.4000000000001 774.4000000000001 540.8000000000001 761.6000000000001 540.8000000000001C755.2000000000002 540.8000000000001 755.2000000000002 540.8000000000001 752.0000000000001 540.8000000000001zM870.4 515.2C854.4 518.4 844.8 534.4 848 550.4C860.8 614.4 844.8 681.5999999999999 809.6 736C771.2 790.4 716.8000000000001 825.6 649.6 838.4C633.6 841.6 624 857.6 627.2 873.6S646.4000000000001 899.2 662.4000000000001 896C742.4000000000001 880 812.8000000000001 835.2 857.6000000000001 768S921.6000000000003 620.8000000000001 905.6000000000003 540.8000000000001C902.4 528 889.6000000000001 518.4000000000001 876.8000000000002 518.4000000000001C873.6000000000001 515.2 873.6000000000001 515.2 870.4000000000002 515.2z" />
    <glyph glyph-name="campus-edit"
      unicode="&#xE019;"
      horiz-adv-x="960" d="M897.504 925.632C908.448 936.576 926.496 936.256 937.088 925.632C948.032 914.688 947.808 896.768 937.088 886.048L501.76 450.72C490.816 439.7760000000001 472.768 440.096 462.176 450.72C451.232 461.664 451.456 479.5840000000001 462.176 490.3040000000001L897.5039999999999 925.632zM634.368 956.032H70.3040000000001C70.1440000000001 956.032 69.9520000000001 140.8960000000001 69.9520000000001 140.8960000000001C69.9520000000001 140.5440000000001 769.4080000000001 140.4160000000001 769.4080000000001 140.4160000000001C769.3440000000002 140.4160000000001 769.5680000000001 482.8480000000001 769.5680000000001 482.8480000000001H839.5200000000001V140.2240000000001C839.5200000000001 102.7840000000001 807.6480000000001 72.4480000000001 769.3760000000001 72.4480000000001H70.08C31.36 72.4480000000001 -0.064 103.0400000000001 -0.064 140.864V955.52C-0.064 993.312 31.392 1023.936 70.24 1023.936H634.304V955.968z" />
    <glyph glyph-name="center-help"
      unicode="&#xE01A;"
      horiz-adv-x="1024" d="M512 46.5599999999999C254.944 46.5599999999999 46.56 254.944 46.56 512S254.944 977.44 512 977.44C769.056 977.44 977.44 769.056 977.44 512S769.056 46.5599999999999 512 46.5599999999999zM372.352 555.808C576.992 580.2239999999999 372.288 354.848 418.912 279.264C480.032 180.1280000000001 643.072 268.192 651.6479999999999 279.9360000000001C477.9519999999999 235.3280000000001 595.04 464.192 606.2719999999999 511.9680000000001S587.4559999999999 605.0880000000001 511.9999999999999 605.0880000000001C436.544 605.0880000000001 391.776 572.0640000000001 372.352 555.8080000000001zM584.672 770.72C571.0400000000001 784.4159999999999 554.6560000000001 791.264 535.456 791.264S499.808 784.4159999999999 486.08 770.72C472.3200000000001 757.024 465.472 740.512 465.472 721.248S472.3200000000001 685.5360000000001 486.08 671.968C499.808 658.4 516.288 651.616 535.456 651.616S571.04 658.4 584.672 671.968C598.304 685.536 605.0880000000001 701.952 605.0880000000001 721.2479999999999S598.272 757.0239999999999 584.672 770.7199999999999z" />
    <glyph glyph-name="change"
      unicode="&#xE01B;"
      horiz-adv-x="1024" d="M634.336 545.216C653.152 545.216 668.48 530.0160000000001 668.48 511.072V460.832L858.72 650.784L668.48 841.152V791.136C668.48 772.4159999999999 653.152 756.3199999999999 634.336 756.3199999999999H389.8880000000001C370.8160000000001 756.3199999999999 355.3920000000001 772.384 355.3920000000001 791.136C355.3920000000001 810.304 370.8160000000001 825.7280000000001 389.8880000000001 825.7280000000001H599.616V924.64C599.616 943.36 615.264 959.008 634.336 959.008C643.36 959.008 652.384 955.04 658.784 948.864L932.096 675.2C945.184 661.984 945.184 639.936 932.096 626.4960000000001L658.784 353.504C645.12 339.424 623.072 339.424 609.856 353.504C603.04 359.904 599.616 368.7040000000001 599.616 377.5360000000001V476.672H389.888C370.816 476.672 355.392 491.8720000000001 355.392 511.0400000000001V561.056L165.024 371.1040000000001L355.392 180.7360000000001V230.7520000000001C355.392 249.6960000000001 370.816 265.5680000000001 389.888 265.5680000000001H634.336C653.152 265.5680000000001 668.48 249.6960000000002 668.48 230.7520000000001C668.48 211.1360000000001 653.152 196.384 634.336 196.384H424.352V97.2480000000001C424.352 88 421.184 79.3920000000001 414.112 73.216C400.672 59.136 378.656 59.136 365.408 73.216L92.672 345.76L91.904 346.1760000000001C78.464 359.8400000000001 78.464 381.4400000000001 91.904 395.1040000000001L365.408 668.32C371.808 674.72 380.64 678.912 389.8880000000001 678.912C408.7360000000001 678.912 424.3520000000001 663.04 424.3520000000001 644.096V545.184H634.336z" />
    <glyph glyph-name="chat-service"
      unicode="&#xE01C;"
      horiz-adv-x="1024" d="M786.912 512.0319999999999C749.216 511.008 717.856 540.736 716.832 578.432C715.776 616.096 745.536 647.488 783.2 648.512C784.4480000000001 648.544 785.7280000000001 648.544 786.976 648.512C824.64 647.456 854.336 616.0640000000001 853.312 578.3679999999999C852.288 542.144 823.136 513.024 786.912 512.0319999999999V512.0319999999999zM512 512C474.304 512 443.7440000000001 542.56 443.7440000000001 580.288C443.7440000000001 617.984 474.336 648.544 512 648.544S580.256 617.9839999999999 580.256 580.288C580.256 542.56 549.664 512 512 512V512zM275.328 512.0319999999999C237.408 511.008 205.856 540.736 204.832 578.432C203.776 616.096 233.696 647.488 271.584 648.512C272.864 648.544 274.112 648.544 275.392 648.512C313.28 647.008 342.752 615.264 341.28 577.6C339.872 541.984 311.136 513.44 275.328 512.096V512.0319999999999zM512 1024C229.216 1024 0 823.392 0 576C0 434.592 75.04 308.64 192.032 226.528V0L416.3200000000001 136.0320000000001C447.3280000000001 130.9440000000001 479.232 127.936 512 127.936C794.784 127.936 1024 328.5440000000001 1024 576C1024 823.392 794.784 1024 512 1024V1024z" />
    <glyph glyph-name="chat"
      unicode="&#xE01D;"
      horiz-adv-x="1024" d="M512 108.8C473.6 108.8 438.4 112 403.2 118.4L262.4 25.6C259.2 22.4 252.8 22.4 246.4 22.4C230.4 22.4 217.6 35.1999999999999 217.6 51.1999999999999V188.8C86.4 272 -3.2 406.4 -3.2 556.8C-3.2 803.1999999999999 227.2 1004.8 508.8 1004.8C793.5999999999999 1004.8 1020.8 803.1999999999999 1020.8 553.5999999999999C1024 307.2 793.5999999999999 108.8 511.9999999999999 108.8zM512 928C268.8 928 73.6 761.6 73.6 553.6C73.6 432 144 320 259.2000000000001 249.6L278.4000000000001 236.8000000000001C288.0000000000001 230.4000000000001 297.6 217.6 297.6 204.8000000000001V131.2000000000001L364.8 176L377.6 185.6C387.2000000000001 192 396.8 192 406.4000000000001 192L422.4000000000001 188.8C454.4 182.4 486.4 179.1999999999999 518.4000000000001 179.1999999999999C758.4000000000001 179.1999999999999 956.8 348.8 953.6000000000003 553.5999999999999C950.4 761.5999999999999 755.2000000000002 927.9999999999998 512.0000000000001 927.9999999999998zM742.4 483.2C707.1999999999999 483.2 681.6 512 681.6 544C681.6 579.2 710.4 604.8000000000001 742.4 604.8000000000001C777.6 604.8000000000001 803.1999999999999 576 803.1999999999999 544C803.1999999999999 508.8000000000001 777.5999999999999 483.2 742.4 483.2zM518.4 483.2C483.2 483.2 457.6 512 457.6 544C457.6 579.2 486.4 604.8000000000001 518.4 604.8000000000001C553.6 604.8000000000001 579.1999999999999 576 579.1999999999999 544C579.1999999999999 508.8000000000001 550.4 483.2 518.4 483.2zM284.8 483.2C249.6 483.2 224 512 224 544C224 579.2 252.8 604.8000000000001 284.8 604.8000000000001C320 604.8000000000001 345.6 576 345.6 544C345.6 508.8000000000001 316.8 483.2 284.8 483.2z" />
    <glyph glyph-name="checkbox"
      unicode="&#xE01E;"
      horiz-adv-x="1024" d="M931.872 1024H92.064C41.248 1024 0.032 982.752 0.032 931.968V92.064C0.032 41.2479999999999 41.28 0.0319999999999 92.064 0.0319999999999H931.968C982.784 0.0319999999999 1024 41.28 1024 92.064V931.968C1023.904 982.88 982.752 1024 931.872 1024V1024zM92.704 46.5599999999999C67.2 46.5599999999999 46.528 67.7439999999999 46.528 92.736V931.328C46.528 956.832 67.712 977.504 92.704 977.504H931.296C956.8 977.504 977.472 956.32 977.472 931.328V92.736C977.472 67.232 956.288 46.5599999999999 931.296 46.5599999999999H92.704z" />
    <glyph glyph-name="checked"
      unicode="&#xE01F;"
      horiz-adv-x="1024" d="M997.792 832.8V832.8C975.68 854.912 937.696 854.912 915.584 832.8L396.192 310.4960000000001L104.192 605.3120000000001C82.08 627.4240000000001 44.192 627.4240000000001 21.984 605.3120000000001V605.3120000000001C-0.128 583.2 -0.128 548.416 21.984 526.3040000000001L350.688 197.6000000000001C334.176 219.6160000000001 336 250.2080000000001 356.096 270.3040000000001V270.3040000000001C336 250.2080000000001 334.2080000000001 219.6160000000001 350.688 197.6000000000001C352.288 195.3920000000002 354.08 193.3120000000001 356.096 191.2960000000002C367.296 180.0960000000001 381.6960000000001 174.5920000000002 396 174.6880000000002C410.4 174.5920000000002 424.704 180.0960000000002 435.904 191.2960000000002C437.92 193.3120000000001 439.712 195.3920000000002 441.312 197.6000000000001C441.408 197.6960000000002 441.408 197.7920000000002 441.504 197.8880000000002L997.504 753.8880000000001C1019.904 775.9040000000001 1019.904 810.6880000000001 997.792 832.8000000000002z" />
    <glyph glyph-name="checkedbox"
      unicode="&#xE020;"
      horiz-adv-x="1024" d="M866.464 1024H157.5360000000001C70.4960000000001 1024 1e-13 953.504 1e-13 866.4639999999999V157.5360000000001C1e-13 70.5600000000001 70.4960000000001 0 157.5360000000001 0H866.464C953.504 0 1024 70.592 1024 157.5360000000001V866.464C1024 953.504 953.504 1024 866.4639999999999 1024zM852.512 636.288L466.4639999999999 250.24C457.312 241.024 445.184 237.2480000000001 433.216 237.952C421.248 237.2480000000001 409.12 241.024 399.968 250.1760000000001L250.24 400C233.216 416.928 233.216 444.512 250.24 461.4400000000001C267.168 478.3680000000001 294.752 478.3680000000001 311.68 461.4400000000001L433.216 339.904L791.0719999999999 697.76C807.9999999999999 714.688 835.5839999999998 714.688 852.512 697.76C869.536 680.832 869.536 653.248 852.512 636.3199999999999z" />
    <glyph glyph-name="close-s"
      unicode="&#xE021;"
      horiz-adv-x="1024" d="M478.176 512L112 878.1759999999999L145.824 912L512 545.8240000000001L878.1759999999999 912L911.9999999999998 878.1759999999999L545.8239999999998 512L911.9999999999998 145.8240000000001L878.1759999999998 112.0000000000001L511.9999999999998 478.1760000000002L145.8239999999999 112.0000000000002L111.9999999999998 145.8240000000002L478.1759999999998 512.0000000000002z" />
    <glyph glyph-name="close"
      unicode="&#xE022;"
      horiz-adv-x="1024" d="M469.856 512L14.016 967.84L56.16 1009.984L512 554.144L967.84 1009.984L1009.984 967.84L554.144 512L1009.984 56.1600000000001L967.84 14.0160000000001L511.9999999999999 469.856L56.16 14.0160000000001L14.016 56.1600000000001L469.8559999999999 512z" />
    <glyph glyph-name="crying-face"
      unicode="&#xE023;"
      horiz-adv-x="1024" d="M512 981.344V938.688C277.44 938.688 85.344 746.592 85.344 512.0319999999999S277.44 85.376 512 85.376C746.56 85.376 938.656 277.472 938.656 512.0319999999999S746.56 938.688 511.9999999999999 938.688V981.344zM512 981.344V1024C793.696 1024 1024 793.696 1024 512S793.696 0 512 0C230.304 0 0 230.304 0 512S230.304 1024 512 1024V981.344zM298.656 298.656C298.656 275.104 317.76 256 341.312 256S383.968 275.1040000000001 383.968 298.656C383.968 369.344 441.2800000000001 426.656 511.968 426.656S639.9680000000001 369.344 639.9680000000001 298.656C639.9680000000001 275.104 659.0720000000001 256 682.624 256S725.28 275.1040000000001 725.28 298.656C725.28 416.4799999999999 629.76 512 511.936 512S298.592 416.48 298.592 298.656zM362.656 597.344C398.016 597.344 426.656 625.9839999999999 426.656 661.344S398.016 725.344 362.656 725.344C327.296 725.344 298.656 696.704 298.656 661.344S327.296 597.344 362.656 597.344zM661.344 597.344C696.7040000000001 597.344 725.344 625.9839999999999 725.344 661.344S696.7040000000001 725.344 661.344 725.344C625.984 725.344 597.344 696.704 597.344 661.344S625.984 597.344 661.344 597.344z" />
    <glyph glyph-name="delete"
      unicode="&#xE024;"
      horiz-adv-x="1024" d="M563.72 512L718.879 667.159L667.159 718.879L512 563.72L356.841 718.879L305.121 667.159L460.28 512L305.121 356.841L356.841 305.121L512 460.28L667.159 305.121L718.879 356.841L563.72 512zM512 0C229.23 0 0 229.23 0 512S229.23 1024 512 1024C794.77 1024 1024 794.77 1024 512S794.77 0 512 0z" />
    <glyph glyph-name="dingding"
      unicode="&#xE025;"
      horiz-adv-x="1024" d="M749.248 580.1600000000001C748.224 575.712 745.5680000000001 569.088 741.888 561.216H741.984L741.568 560.4480000000001C720.064 514.464 663.9359999999999 424.2560000000001 663.9359999999999 424.2560000000001L663.68 424.8640000000001L647.2959999999999 396.288H726.304L575.36 195.648L609.664 332.1600000000001H547.456L569.088 422.4000000000001C551.616 418.2080000000001 530.944 412.4160000000001 506.4639999999999 404.5440000000001C506.4639999999999 404.5440000000001 473.3759999999999 385.1840000000001 411.136 441.8240000000001C411.136 441.8240000000001 369.152 478.8480000000001 393.504 488.0640000000001C403.84 492.0000000000001 443.744 497.0240000000001 475.136 501.2160000000001C517.632 506.9440000000001 543.68 510.0160000000001 543.68 510.0160000000001S412.8639999999999 508.0640000000001 381.824 512.9280000000001C350.816 517.792 311.424 569.6 303.04 615.1360000000001C303.04 615.1360000000001 290.08 640.1280000000002 330.944 628.288S540.928 582.2080000000001 540.928 582.2080000000001C540.928 582.2080000000001 321.024 649.6320000000001 306.304 666.1120000000001C291.68 682.4960000000001 263.264 755.9360000000001 266.944 800.9920000000001C266.944 800.9920000000001 268.544 812.2560000000001 280.096 809.1840000000001C280.096 809.1840000000001 442.7199999999999 734.9440000000001 553.856 694.24C665.088 653.5360000000001 761.7280000000001 632.8320000000001 749.248 580.1600000000001zM512 1024C229.216 1024 0 794.784 0 512C0 229.2480000000001 229.216 0 512 0C794.752 0 1024 229.2480000000001 1024 512C1024 794.784 794.752 1024 512 1024z" />
    <glyph glyph-name="directory"
      unicode="&#xE026;"
      horiz-adv-x="1088" d="M630.144 827.072L568.832 949.696C558.976 969.408 533.632 984.608 511.712 984.608H39.648C18.336 984.608 0 967.296 0 945.984V117.792C0 75.264 35.52 39.3920000000001 79.296 39.3920000000001H1023.456C1067.328 39.3920000000001 1102.752 74.4960000000001 1102.752 117.792V748.672C1102.752 791.2 1067.232 827.072 1023.456 827.072H630.1439999999999z" />
    <glyph glyph-name="double-arrow-right"
      unicode="&#xE027;"
      horiz-adv-x="928" d="M458.464 526.1120000000001L8.16 976.416C-2.752 987.264 -2.752 1004.928 8.16 1015.84V1015.84C19.008 1026.752 36.672 1026.752 47.584 1015.84L508.96 554.4639999999999C512.832 553.12 516.48 550.912 519.552 547.808C525.472 541.856 528.192 533.8879999999999 527.648 526.112C528.192 518.336 525.472 510.3679999999999 519.552 504.4159999999999C516.48 501.3119999999999 512.832 499.1039999999999 508.96 497.76L47.5840000000001 36.384C36.6720000000001 25.472 19.0080000000001 25.472 8.1600000000001 36.384V36.384C-2.7519999999999 47.2960000000001 -2.7519999999999 64.96 8.1600000000001 75.808L458.4640000000001 526.112zM824.192 526.1120000000001L373.8880000000001 976.416C362.9760000000001 987.264 362.9760000000001 1004.928 373.8880000000001 1015.84V1015.84C384.7360000000001 1026.752 402.4000000000001 1026.752 413.312 1015.84L874.688 554.4639999999999C878.56 553.12 882.208 550.912 885.28 547.808C891.1999999999999 541.856 893.92 533.8879999999999 893.376 526.112C893.92 518.336 891.1999999999999 510.3679999999999 885.28 504.4159999999999C882.208 501.3119999999999 878.56 499.1039999999999 874.688 497.76L413.312 36.384C402.4000000000001 25.472 384.736 25.472 373.8880000000001 36.384V36.384C362.9760000000001 47.2960000000001 362.9760000000001 64.96 373.8880000000001 75.808L824.192 526.112z" />
    <glyph glyph-name="down-arrow"
      unicode="&#xE028;"
      horiz-adv-x="1536" d="M732.544 203.52L128 896H1408z" />
    <glyph glyph-name="down"
      unicode="&#xE029;"
      horiz-adv-x="1024" d="M806.4 640L761.6 684.8L505.6 428.8L249.6 684.8L198.4 640L480.0000000000001 364.8C486.4 358.4 492.8000000000001 352 505.6000000000001 352C512.0000000000001 352 524.8000000000001 358.4 531.2 358.4V358.4L806.4000000000001 640z" />
    <glyph glyph-name="download"
      unicode="&#xE02A;"
      horiz-adv-x="1024" d="M538.944 284.8640000000001V997.12C538.944 1011.968 526.88 1024.032 511.9999999999999 1024.032C497.5679999999999 1024.032 485.0559999999999 1012 485.0559999999999 997.12V284.8640000000001L235.456 557.152C225.408 568.128 208.3519999999999 568.864 197.3759999999999 558.816S185.6639999999999 531.712 195.7119999999999 520.7360000000001L492.1279999999999 197.376C502.8159999999999 185.728 521.184 185.728 531.872 197.376L828.288 520.736C838.336 531.712 837.6 548.768 826.624 558.816S798.592 568.1279999999999 788.544 557.152L538.944 284.8640000000001zM0 53.888H1024V0H0V53.888z" />
    <glyph glyph-name="edit-time"
      unicode="&#xE02B;"
      horiz-adv-x="1024" d="M518.4 896C729.5999999999999 896 902.4 723.2 902.4 512S729.5999999999999 128 518.4 128S134.4 300.8 134.4 512S300.8 896 518.4 896zM518.4 960C268.8 960 70.4 761.6 70.4 512S268.8 64 518.4 64S966.4 262.4 966.4 512S761.5999999999999 960 518.4 960V960zM486.4 704C505.6 704 518.4 691.2 518.4 672V480C518.4 460.8 499.2 448 486.4 448S454.4 460.8 454.4 480V672C454.4 691.2 467.2 704 486.4 704zM486.4 512H678.4C697.6 512 710.4 499.2 710.4 480S697.6 448 678.4 448H486.4C467.2 448 454.4 460.8 454.4 480S467.2 512 486.4 512z" />
    <glyph glyph-name="edit"
      unicode="&#xE02C;"
      horiz-adv-x="1024" d="M1014.656 877.856C1028.032 864.48 1028.032 842.688 1014.656 829.312L538.432 421.408C525.056 408.0320000000001 503.264 408.0320000000001 489.888 421.408S476.5120000000001 456.5120000000001 489.888 469.952L966.112 877.9200000000001C979.488 891.232 1001.28 891.232 1014.656 877.856V877.856zM736.256 136.544H821.5999999999999V375.488C821.5999999999999 394.3359999999999 836.896 409.632 855.7439999999999 409.632S889.8879999999999 394.3359999999999 889.8879999999999 375.488V102.432C889.8879999999999 93.024 886.0799999999999 84.48 879.872 78.304S865.1519999999999 68.288 855.7439999999999 68.288H70.6879999999999C32.9919999999999 68.288 2.4319999999999 98.88 2.4319999999999 136.544V887.4879999999999C2.4319999999999 925.184 33.0239999999999 955.744 70.6879999999999 955.744H787.4879999999998C806.3359999999998 955.744 821.6319999999998 940.448 821.6319999999998 921.6S806.3359999999998 887.4559999999999 787.4879999999998 887.4559999999999H70.6879999999999V136.512H736.2879999999999z" />
    <glyph glyph-name="edu-exp"
      unicode="&#xE02D;"
      horiz-adv-x="1024" d="M906.24 467.2H966.4V227.8400000000001H906.24V467.2zM977.664 596.2239999999999L529.92 824.3199999999999L71.424 596.2239999999999L221.216 521.664V153.408C221.216 153.408 351.648 68.192 524.64 68.192S828.064 153.408 828.064 153.408V520.4159999999999L977.664 596.2239999999999zM529.6 754.144L844.608 593.664L528.704 433.5360000000001L207.0079999999999 593.664L529.5999999999999 754.144zM767.392 189.2480000000001V189.2480000000001C767.392 189.2480000000001 672.8320000000001 128.8960000000001 524.6400000000001 128.8960000000001S281.8880000000001 189.2480000000001 281.8880000000001 189.2480000000001V491.4560000000001L528.6400000000001 368.6400000000001L767.392 489.6320000000001V189.2160000000001z" />
    <glyph glyph-name="email"
      unicode="&#xE02E;"
      horiz-adv-x="1024" d="M812.576 791.456H221.6320000000001C167.4560000000001 791.456 123.1360000000001 747.136 123.1360000000001 692.96V299.0080000000001C123.1360000000001 244.832 167.4560000000001 200.5120000000001 221.6320000000001 200.5120000000001H812.576C866.7520000000001 200.5120000000001 911.072 244.8320000000001 911.072 299.0080000000001V692.96C911.072 747.136 866.752 791.456 812.576 791.456zM656.224 504.6079999999999L859.488 707.872C860.9920000000001 703.1679999999999 861.8240000000001 698.144 861.8240000000001 692.96V299.0080000000001L656.224 504.6080000000001zM812.576 742.24C816.352 742.24 820.032 741.76 823.5840000000001 740.96L514.624 432L208.512 740.4159999999999C212.704 741.568 217.088 742.24 221.6 742.24H812.544zM172.416 299.0080000000001V692.96C172.416 697.408 173.056 701.696 174.176 705.8240000000001L375.968 502.592L172.384 299.04zM221.664 249.76C213.152 249.76 205.152 251.9360000000001 198.144 255.776L410.336 467.968L497.44 380.256C502.368 375.328 507.296 372.8639999999999 514.688 372.8639999999999S527.008 375.328 531.936 380.256L621.792 470.112L836.128 255.776C829.12 251.9359999999999 821.12 249.76 812.6080000000001 249.76H221.6640000000001z" />
    <glyph glyph-name="empty-heart"
      unicode="&#xE02F;"
      horiz-adv-x="1248" d="M612.416 0L598.08 7.264C584.192 14.272 256.7040000000001 182.432 133.6 447.168C122.816 467.776 111.136 503.552 109.856 507.5840000000001C95.232 553.0880000000001 87.808 599.2 87.808 644.6400000000001C87.808 826.2720000000002 229.6320000000001 974.0800000000002 403.9680000000001 974.0800000000002C480.8000000000001 974.0800000000002 555.104 944.6400000000002 612.4480000000001 892.2880000000001C669.7920000000001 944.6400000000002 744.1280000000002 974.0800000000002 820.9280000000001 974.0800000000002C995.232 974.0800000000002 1137.0880000000002 826.2720000000002 1137.0880000000002 644.6400000000001C1137.0880000000002 600.9280000000001 1129.9520000000002 556.2880000000001 1115.2000000000003 508.0640000000001C1107.8400000000004 484.0000000000001 1092.1280000000004 448.9920000000001 1091.4880000000003 447.5200000000001C968.2240000000002 182.432 640.7360000000003 14.2720000000002 626.8480000000003 7.2640000000001L612.4800000000002 1e-13zM403.968 910.496C264.704 910.496 151.424 791.232 151.424 644.64C151.424 605.824 157.824 566.2719999999999 170.432 527.072C173.472 517.6320000000001 183.104 489.792 190.688 475.232C291.2000000000001 259.136 548.8000000000001 106.784 612.48 71.712C676.16 106.848 933.856 259.328 1033.632 473.9839999999999V473.9839999999999C1033.632 473.9839999999999 1048.192 506.4319999999999 1054.4 526.656C1067.2640000000001 568.768 1073.5040000000001 607.328 1073.5040000000001 644.6399999999999C1073.5040000000001 791.232 960.1920000000002 910.4959999999998 820.9600000000002 910.4959999999998C750.2080000000002 910.4959999999998 684.6080000000002 880.512 636.2880000000001 825.9839999999999L612.5120000000002 799.1679999999999L588.7360000000002 825.9839999999999C540.3840000000002 880.512 474.8160000000002 910.4959999999998 404.0640000000002 910.4959999999998z" />
    <glyph glyph-name="error"
      unicode="&#xE030;"
      horiz-adv-x="1024" d="M983.712 711.328C957.92 772.288 921.024 827.04 874.016 874.048S772.256 957.984 711.2959999999999 983.744C648.16 1010.464 581.088 1024 512.0319999999999 1024C442.944 1024 375.872 1010.464 312.736 983.744C251.776 957.952 197.024 921.056 150.0159999999999 874.048S66.0799999999999 772.288 40.3199999999999 711.328C13.5999999999999 648.192 0.0639999999999 581.12 0.0639999999999 512S13.5999999999999 375.8400000000001 40.3199999999999 312.704C66.1119999999999 251.7439999999999 103.0079999999999 196.992 150.0159999999999 149.9839999999999S251.776 66.0479999999999 312.736 40.2879999999999C375.872 13.5679999999999 442.944 0.0319999999999 512.0319999999999 0.0319999999999C581.088 0.0319999999999 648.1279999999999 13.5679999999999 711.2959999999999 40.2879999999999C772.256 66.0799999999999 827.0079999999999 102.9759999999999 874.016 149.9839999999999S957.952 251.7439999999999 983.712 312.704C1010.432 375.8399999999999 1023.968 442.9119999999999 1023.968 512S1010.432 648.192 983.712 711.328zM723.456 295.36C723.456 295.36 723.456 295.36 723.424 295.328C709.216 281.12 686.144 281.088 671.9359999999999 295.296L507.5839999999999 459.328L343.5519999999999 294.976C343.5519999999999 294.976 343.5199999999999 294.944 343.5199999999999 294.944C329.3119999999999 280.736 306.272 280.704 292.032 294.9119999999999S277.76 332.1919999999999 291.9679999999999 346.4319999999999L455.9999999999999 510.7839999999999L291.6479999999999 674.8479999999998C277.4079999999999 689.0559999999998 277.3759999999999 712.1279999999998 291.616 726.3679999999998C291.616 726.3679999999998 291.616 726.3999999999999 291.6479999999999 726.3999999999999C305.856 740.6079999999998 328.8959999999999 740.6079999999998 343.1359999999999 726.3999999999999L507.4879999999999 562.3679999999998L671.5519999999999 726.7519999999998C685.7599999999999 740.9599999999998 708.8319999999999 740.9919999999998 723.0719999999999 726.7519999999998S737.3439999999999 689.4719999999999 723.1039999999999 675.2319999999999L559.04 510.8799999999999L723.3919999999999 346.8479999999999C737.632 332.6399999999999 737.664 309.5679999999999 723.4559999999999 295.3599999999999z" />
    <glyph glyph-name="expend"
      unicode="&#xE031;"
      horiz-adv-x="1024" d="M512.768 1024C558.5600000000001 1024 602.9440000000001 1017.792 645.152 1006.496C655.744 1003.552 666.272 1000.416 676.576 996.928V633.664C667.392 646.336 321.92 986.976 321.92 986.976C363.808 1003.776 408.384 1015.36 454.88 1020.608C473.856 1022.848 493.12 1024 512.768 1024zM873.6 876.032C905.984 843.808 932.896 808.128 954.752 770.4C960.224 760.928 965.44 751.264 970.272 741.568L712.416 484.672C714.9440000000001 500.128 712.416 984.256 712.416 984.256C753.9200000000001 966.688 793.6320000000001 943.392 830.272 914.4C845.248 902.56 859.7760000000001 889.8240000000001 873.6 876.032zM986.784 701.28C1003.712 659.584 1015.264 615.168 1020.544 568.832C1022.784 549.9200000000001 1024 530.656 1024 511.136C1024 465.472 1017.76 421.376 1006.368 379.232C1003.488 368.6720000000001 1000.32 358.176 996.8 347.9359999999999H632.192C644.992 357.088 986.752 701.28 986.752 701.28zM479.776 309.664C495.328 307.168 981.248 309.6960000000001 981.248 309.6960000000001C963.648 268.288 940.192 228.8000000000001 911.136 192.288C899.2320000000001 177.3440000000001 886.464 162.848 872.672 149.12C840.2560000000001 116.8 804.48 89.952 766.624 68.256C757.0880000000001 62.752 747.488 57.632 737.664 52.8L479.808 309.6959999999999zM347.456 390.3680000000001C356.6720000000001 377.6320000000001 702.08 37.056 702.0160000000001 37.0880000000001C660.128 20.224 615.5520000000001 8.7040000000001 569.056 3.4240000000001C550.1120000000001 1.248 530.784 0.032 511.264 0.032C465.44 0.032 421.12 6.24 378.88 17.568C368.32 20.4159999999999 357.792 23.5839999999999 347.456 27.1039999999999V390.3999999999999zM311.168 541.8879999999999C308.6720000000001 526.4 311.296 42.24 311.296 42.24C269.664 59.7760000000001 230.08 83.072 193.408 112.096C178.432 123.936 163.872 136.64 150.08 150.432C117.664 182.688 90.688 218.336 68.928 256.16C63.456 265.6 58.24 275.2 53.408 285.024L311.168 541.9200000000001zM17.568 644.544C20.448 655.104 23.616 665.6320000000001 27.136 675.8399999999999H391.776C378.976 666.72 37.248 322.528 37.248 322.528C20.256 364.192 8.736 408.6080000000001 3.456 454.976C1.216 473.856 0 493.152 0 512.608C0 558.2719999999999 6.208 602.432 17.568 644.512zM254.944 953.792C264.416 959.264 274.08 964.352 283.904 969.248L541.7280000000001 712.352C526.2080000000001 714.848 40.224 712.256 40.224 712.256C57.8880000000001 753.6959999999999 81.2800000000001 793.248 110.3680000000001 829.76C122.2400000000001 844.608 134.9440000000001 859.104 148.8960000000001 872.928C181.2480000000001 905.152 216.9920000000001 932 254.9440000000001 953.76z" />
    <glyph glyph-name="eye"
      unicode="&#xE032;"
      horiz-adv-x="1024" d="M512 876.8C614.4 876.8 713.6 848 793.6 793.6C848 758.4000000000001 940.8 688 976 585.6C937.6 486.4 844.8 412.8 790.4 377.6C710.4 323.2000000000001 611.2 294.4 508.8 294.4S307.2 323.2 227.2 377.6C172.7999999999999 412.8000000000001 79.9999999999999 483.2 44.7999999999999 585.6C83.1999999999999 684.8 175.9999999999999 758.4000000000001 230.3999999999999 793.6C310.3999999999999 848 409.5999999999999 876.8 511.9999999999999 876.8zM512 921.6C400 921.6 291.2 889.6 204.8 832S35.2 694.4 0 598.4C0 592 0 588.8 0 585.5999999999999S0 579.2 3.2 576C38.4 480 118.4 396.8 208 342.4C294.4 284.8 400 252.8 515.2 252.8S736 284.8 822.4000000000001 342.4C908.8 400 992.0000000000002 480 1027.2 576C1027.2 579.2 1030.4 582.4 1030.4 585.6S1030.4 592 1027.2 595.2C992 691.2 912 774.4000000000001 822.4000000000001 828.8000000000001C732.8000000000001 889.6 624.0000000000001 921.6 512.0000000000001 921.6V921.6zM512 697.6C572.8 697.6 624 646.4000000000001 624 585.6S572.8 473.6 512 473.6S400 524.8 400 585.6C400 649.6 451.2 697.6 512 697.6zM512 742.4C425.6 742.4 355.2 672 355.2 585.5999999999999S425.6 428.8 512 428.8C598.4 428.8 668.8 499.1999999999999 668.8 585.5999999999999S598.4 742.4 511.9999999999999 742.4V742.4z" />
    <glyph glyph-name="file-open"
      unicode="&#xE033;"
      horiz-adv-x="1024" d="M43.872 146.2720000000001C43.872 124.3200000000001 58.496 109.696 80.448 109.696H870.4C892.352 109.696 899.648 124.3200000000001 906.976 146.2720000000001C906.976 146.2720000000001 906.976 146.2720000000001 906.976 153.6L987.424 599.7760000000001C987.424 614.4000000000001 972.8 636.3520000000001 950.848 636.3520000000001H160.896C138.944 636.3520000000001 124.32 621.7280000000001 124.32 599.7760000000001V599.7760000000001L43.872 146.3040000000001zM863.072 73.152H80.448C36.576 73.152 -7.328 95.104 7.296 153.6C29.248 270.624 87.744 599.7760000000001 87.744 599.7760000000001C87.744 643.648 124.32 672.928 160.896 672.928H950.848C994.72 672.928 1024 636.352 1024 599.7760000000001V599.7760000000001L943.552 146.3040000000001C943.552 109.7280000000001 906.976 73.152 863.104 73.152zM906.976 672.928V753.376C906.976 775.328 892.352 789.952 870.4 789.952H460.8C446.176 789.952 438.848 797.28 438.848 811.904S453.472 833.856 460.8 833.856H870.4C914.272 833.856 950.848 797.28 950.848 760.704V680.256C950.848 672.928 914.272 672.928 906.976 672.928V672.928zM0 153.6V877.7280000000001C0 921.6 36.576 950.8800000000002 80.448 950.8800000000002H402.272C446.144 950.8800000000002 482.72 914.304 482.72 877.7280000000001V833.856H460.768C446.144 833.856 438.816 819.2320000000001 438.816 811.904S438.816 870.432 438.816 870.432C438.816 892.384 424.192 907.008 402.24 907.008H80.4159999999999C58.4639999999999 907.008 43.8399999999999 892.384 43.8399999999999 877.76V387.712L-0.0320000000001 153.664z" />
    <glyph glyph-name="file"
      unicode="&#xE034;"
      horiz-adv-x="1024" d="M53.952 110.3680000000001C29.376 118.6560000000001 12.832 134.72 3.84 159.072C0.704 167.5840000000001 0.704 168.3200000000001 0.288 505.408C0.032 720.96 0.416 846.752 1.344 852.96C3.584 867.488 11.648 883.104 22.56 894.0160000000001C35.776 907.232 50.656 914.176 69.92 916.064C74.528 916.512 159.776 916.352 259.36 915.712C438.016 914.528 440.544 914.464 449.12 911.328C462.432 906.432 470.944 900.832 479.36 891.392C486.272 883.6800000000001 499.008 861.024 499.008 856.4480000000001C499.008 855.104 517.056 854.624 571.6800000000001 854.4960000000001C611.648 854.368 715.904 853.856 803.3600000000001 853.248C961.6640000000002 852.192 962.4320000000002 852.1600000000001 972.5120000000002 848.8320000000001C984.7040000000002 844.8000000000001 999.1360000000002 835.456 1006.5920000000002 826.7520000000001C1009.6000000000003 823.2640000000001 1014.2080000000002 815.936 1016.8320000000002 810.4960000000001C1021.2800000000002 801.3120000000001 1021.6960000000003 799.0400000000001 1022.7200000000003 778.5600000000001C1023.2960000000002 766.432 1023.8400000000001 625.3120000000001 1023.9040000000002 465.0240000000001C1024.0000000000002 211.5520000000001 1023.7440000000003 172.4160000000002 1021.7600000000002 164.864C1014.8160000000001 138.2080000000001 994.8800000000002 117.472 968.9920000000002 109.984C961.1200000000002 107.6800000000001 923.1360000000002 107.4880000000001 510.9760000000002 107.648C94.2080000000002 107.7760000000001 60.9920000000002 108 53.9520000000002 110.3680000000001V110.3680000000001zM984.448 776.352C984.448 786.4 983.776 790.72 981.376 795.392C977.888 802.208 968.512 809.696 960.288 812.1279999999999C954.56 813.856 509.792 817.12 505.504 815.456C503.712 814.784 503.52 810.752 504.416 791.648C504.992 779.008 505.696 768.448 505.92 768.192C506.464 767.5840000000001 840.672 763.84 921.696 763.5840000000001L984.48 763.36V776.352H984.48z" />
    <glyph glyph-name="filters"
      unicode="&#xE035;"
      horiz-adv-x="1024" d="M928 950.4L585.6 608V121.6L438.4000000000001 252.8V608L96.0000000000001 950.3999999999997H928zM969.6 1024H57.6C35.2 1024 12.8 1011.2 3.2 988.8C-3.2 966.4 0 944 16 928L364.8 579.2V236.8C364.8 227.2 368 217.5999999999999 377.6 211.1999999999999L601.6 12.8C608 6.4 617.6 3.1999999999999 624 3.1999999999999S633.6 3.1999999999999 640 6.4C652.8 12.8 662.4 25.6 662.4 38.4V582.4L1008 928C1024 944 1030.4 969.6 1020.8 992C1011.2 1011.2 988.8 1024 969.6 1024V1024z" />
    <glyph glyph-name="finish"
      unicode="&#xE036;"
      horiz-adv-x="1024" d="M512 1024C229.216 1024 0 794.784 0 512S229.216 0 512 0S1024 229.216 1024 512S794.784 1024 512 1024zM433.984 247.616C427.744 241.376 419.552 238.24 411.36 238.24S394.976 241.376 388.736 247.616L138.464 497.8879999999999C125.952 510.3999999999999 125.952 530.6239999999999 138.464 543.136S171.1999999999999 555.6479999999999 183.7119999999999 543.136L411.3599999999999 315.488L840.2879999999999 744.384C852.8 756.896 873.0239999999999 756.896 885.536 744.384S898.048 711.6479999999999 885.536 699.136L433.9839999999999 247.616z" />
    <glyph glyph-name="fire"
      unicode="&#xE037;"
      horiz-adv-x="768" d="M250.752 21.312C250.752 21.312 113.632 123.8720000000001 183.264 277.3440000000001S244.32 450.0800000000001 250.752 469.3440000000001C250.752 469.3440000000001 323.328 454.432 340.608 319.9680000000001C340.608 319.9680000000001 463.264 437.4400000000001 430.464 661.344C430.464 661.344 649.408 491.456 632.8 298.6560000000001S558.208 69.5040000000001 497.9519999999999 0C497.9519999999999 0 778.528 107.552 767.68 319.9359999999999C756.928 532.3199999999999 729.824 636.5759999999999 318.112 1023.9999999999998C318.112 1023.9999999999998 230.72 790.656 115.776 618.7199999999999C0.928 446.7839999999999 -123.072 142.9119999999999 250.752 21.3119999999999z" />
    <glyph glyph-name="fullscreen"
      unicode="&#xE038;"
      horiz-adv-x="1024" d="M846.496 866.976H467.616V918.176H897.6959999999999V512H846.4959999999999V866.976zM167.264 157.024H546.144V105.824H116.064V512H167.264V157.024zM0 1024V0H1024V1024H0zM51.2 983.04H972.8V61.4399999999999H51.2V983.04zM197.984 266.24H259.424V204.8H197.984V266.24zM259.424 327.68H320.864V266.24H259.424V327.6800000000001zM320.864 389.12H382.304V327.6800000000001H320.864V389.1200000000001zM382.304 450.5599999999999H443.744V389.1199999999999H382.304V450.5599999999999zM443.7440000000001 512H505.184V450.5599999999999H443.7440000000001V512zM508.576 573.44H570.0160000000001V512H508.5760000000001V573.44zM570.016 634.88H631.4559999999999V573.44H570.0159999999998V634.88zM631.456 696.3199999999999H692.896V634.88H631.4559999999999V696.3199999999999zM692.896 757.76H754.336V696.3199999999999H692.896V757.76zM754.336 819.2H815.7760000000001V757.76H754.336V819.2z" />
    <glyph glyph-name="half-selected"
      unicode="&#xE039;"
      horiz-adv-x="1024" d="M0 888.032C0 963.136 60.992 1024 135.968 1024H888C963.104 1024 1023.968 963.008 1023.968 888.032V136C1023.968 60.896 962.976 0.032 888 0.032H135.968C60.864 0.032 0 61.024 0 136V888.032zM204.8 546.144V409.6H819.2V546.144H204.8000000000001z" />
    <glyph glyph-name="help-center"
      unicode="&#xE03A;"
      horiz-adv-x="1024" d="M512 1024C229.216 1024 0 794.784 0 512S229.216 0 512 0C794.784 0 1024 229.216 1024 512S794.784 1024 512 1024zM512 102.4C285.7920000000001 102.4 102.4 285.7919999999999 102.4 512S285.792 921.6 512 921.6C738.208 921.6 921.6 738.2080000000001 921.6 512S738.2080000000001 102.4 512 102.4zM464.064 356.9600000000001V279.808H545.7280000000001V356.9600000000001H464.0640000000001zM542.976 403.712C541.856 414.4 541.28 423.424 541.28 432.448C541.28 462.304 549.728 475.808 585.216 499.456C631.392 531.008 641.5360000000001 539.456 654.496 556.896C668 575.488 674.208 596.3199999999999 674.208 623.36C674.208 689.8240000000001 611.68 736 520.96 736C468.032 736 425.216 722.496 396.48 696.576C372.2560000000001 674.656 360.992 653.248 352 612.1600000000001L435.36 602.0160000000001C437.6 623.424 440.992 632.992 448.8640000000001 644.2560000000001C462.3680000000001 664.5440000000001 486.6560000000001 676.3520000000001 515.936 676.3520000000001C564.384 676.3520000000001 594.2080000000001 654.944 594.2080000000001 620.6080000000001C594.2080000000001 595.2640000000001 580.7040000000001 577.248 544.6400000000001 553.0240000000001C508.0320000000001 529.376 503.5200000000001 525.44 491.7120000000001 510.7840000000001C475.9360000000001 491.0720000000001 468.6080000000001 467.9680000000001 468.6080000000001 438.1440000000001L469.1840000000001 427.4560000000002C469.1840000000001 420.1280000000002 468.6080000000001 413.3760000000001 467.4880000000001 403.8080000000001H542.9440000000001L542.9760000000001 403.7120000000001z" />
    <glyph glyph-name="home"
      unicode="&#xE03B;"
      horiz-adv-x="1024" d="M512 1024C229.216 1024 0 794.784 0 512S229.216 0 512 0S1024 229.216 1024 512S794.784 1024 512 1024zM772.096 546.816C767.776 536.512 757.664 529.824 746.496 529.824H720.256V322.112C720.256 291.456 695.3919999999999 266.592 664.736 266.592H609.216C578.5600000000001 266.592 553.696 291.456 553.696 322.112V397.312C553.696 412.64 541.28 425.088 525.9200000000001 425.088H498.1440000000001C482.8160000000001 425.088 470.3680000000001 412.6719999999999 470.3680000000001 397.312V322.112C470.3680000000001 291.456 445.5040000000001 266.592 414.8480000000001 266.592H359.3280000000001C328.6720000000001 266.592 303.8080000000001 291.456 303.8080000000001 322.112V529.824H277.5680000000001C266.4000000000001 529.824 256.3200000000001 536.512 251.9680000000001 546.816C247.6480000000001 557.1199999999999 249.8880000000001 569.024 257.7280000000001 576.992L492.2240000000002 816.544C497.4400000000002 821.8879999999999 504.6080000000002 824.896 512.0640000000002 824.896S526.6880000000002 821.8879999999999 531.9040000000002 816.544L766.4000000000002 576.992C774.1440000000002 569.0239999999999 776.4160000000002 557.1199999999999 772.0960000000002 546.816z" />
    <glyph glyph-name="hot"
      unicode="&#xE03C;"
      horiz-adv-x="1344" d="M1146.88 1024H327.6800000000001C266.2400000000001 1024 225.2800000000001 983.04 225.2800000000001 921.6V686.0799999999999H1e-13L225.2800000000001 399.3599999999999V102.3999999999999C225.2800000000001 40.9599999999998 266.2400000000001 -2e-13 327.6800000000001 -2e-13H1146.88C1208.3200000000002 -2e-13 1249.2800000000002 40.9599999999998 1249.2800000000002 102.3999999999998V921.5999999999998C1249.2800000000002 983.0399999999998 1208.3200000000002 1023.9999999999998 1146.88 1023.9999999999998zM1024 225.28H911.36V450.5599999999999H573.44V225.28H460.8000000000001V798.72H573.44V573.44H911.3600000000002V798.72H1024.0000000000002V225.28z" />
    <glyph glyph-name="improve-no"
      unicode="&#xE03D;"
      horiz-adv-x="1024" d="M0 161.696H1024V53.9200000000001H0V161.696zM53.888 970.112H215.584V269.472H53.888V970.112zM431.168 970.112H592.864V269.472H431.168V970.112zM808.416 970.112H970.112V269.472H808.416V970.112z" />
    <glyph glyph-name="improve-yes"
      unicode="&#xE03E;"
      horiz-adv-x="1024" d="M25.6 102.4H998.4V0H25.6V102.4zM76.8 768H230.4V204.8H76.8V768zM435.2 870.4H588.8V204.8H435.2V870.4zM793.6 1024H947.2V204.8H793.6V1024z" />
    <glyph glyph-name="index"
      unicode="&#xE03F;"
      horiz-adv-x="1024" d="M1008.544 559.072L550.1759999999999 1009.152C529.9839999999999 1028.96 494.6559999999999 1028.96 474.6239999999999 1009.152L16.6079999999999 560.2239999999999C0.3519999999999 545.248 -4.4480000000001 522.304 4.4479999999999 501.504C13.3759999999999 481.696 32.2239999999999 469.472 53.6319999999999 469.472H102.8479999999999C116.8959999999999 469.472 128.3199999999999 458.2719999999999 128.3199999999999 444.48V52.832C128.3199999999999 23.68 152.3519999999999 0.032 181.9199999999999 0.032H368.32C397.8879999999999 0.032 421.92 23.6800000000001 421.92 52.832V336.512C421.92 350.272 433.344 361.472 447.36 361.472H578.9119999999999C592.896 361.472 604.352 350.272 604.352 336.512V52.8319999999999C604.352 23.6799999999998 628.384 0.0319999999999 657.9839999999999 0.0319999999999H844.3839999999999C874.3999999999999 0.0319999999999 898.848 23.68 898.848 52.8319999999999V443.6479999999999C898.848 451.4559999999999 900.832 456.4799999999999 905.984 461.5359999999999C910.752 466.2399999999999 916.896 468.5759999999999 924.224 468.5759999999999H970.2399999999998C991.648 468.5759999999999 1010.464 480.896 1019.552 500.896C1028.32 521.0239999999999 1023.9999999999998 543.808 1008.5439999999998 559.0719999999999z" />
    <glyph glyph-name="infinite"
      unicode="&#xE040;"
      horiz-adv-x="1024" d="M512 1024C230.4 1024 0 793.6 0 512S230.4 0 512 0C793.6 0 1024 230.4 1024 512S793.6 1024 512 1024zM668.8 364.8C595.1999999999999 364.8 553.5999999999999 419.2 540.8 435.2C540.8 435.2 540.8 438.4 537.5999999999999 438.4C527.9999999999999 448 527.9999999999999 467.1999999999999 534.3999999999999 480C543.9999999999999 492.8 559.9999999999999 492.8 572.7999999999998 483.2C575.9999999999999 480 575.9999999999999 476.8000000000001 579.1999999999998 473.6C588.7999999999998 460.8000000000001 614.3999999999999 425.6 665.5999999999998 425.6C691.1999999999998 425.6 707.1999999999998 438.4 719.9999999999998 460.8000000000001C729.5999999999998 483.2 732.7999999999997 505.6 732.7999999999997 512C732.7999999999997 521.6000000000001 732.7999999999997 544 723.1999999999997 566.4000000000001C713.5999999999997 592 691.1999999999997 601.6 659.1999999999997 601.6C604.7999999999997 601.6 566.3999999999997 547.2 524.7999999999997 489.6C479.9999999999997 428.8000000000001 431.9999999999997 361.6 361.5999999999998 361.6C284.7999999999998 361.6 230.3999999999998 441.6 230.3999999999998 512S284.7999999999998 659.2 364.7999999999998 659.2C444.7999999999998 659.2 483.1999999999997 588.8 486.3999999999997 585.6C492.7999999999997 572.8 489.5999999999997 553.6 476.7999999999997 544S447.9999999999997 540.8 438.3999999999998 553.6C438.3999999999998 556.8 412.7999999999998 598.4000000000001 364.7999999999998 598.4000000000001C319.9999999999997 601.6 287.9999999999997 550.4000000000001 287.9999999999997 515.2C287.9999999999997 476.8000000000001 316.7999999999998 422.4000000000001 364.7999999999998 422.4000000000001C409.5999999999998 422.4000000000001 447.9999999999997 473.6000000000001 486.3999999999997 528.0000000000001C531.1999999999997 592.0000000000001 585.5999999999998 662.4000000000001 662.3999999999997 662.4000000000001C729.5999999999998 662.4000000000001 758.3999999999997 624.0000000000001 774.3999999999997 592.0000000000001C783.9999999999998 569.6000000000001 790.3999999999997 544.0000000000001 790.3999999999997 512.0000000000001C790.3999999999997 464.0000000000001 758.3999999999997 364.8000000000002 668.7999999999997 364.8000000000002z" />
    <glyph glyph-name="info"
      unicode="&#xE041;"
      horiz-adv-x="1024" d="M512 956.8C755.2 956.8 956.8 758.4 956.8 512S755.1999999999999 67.2000000000001 511.9999999999999 67.2000000000001S67.1999999999999 268.8000000000001 67.1999999999999 512S268.8 956.8 511.9999999999999 956.8zM512 1024C230.4 1024 0 793.6 0 512S230.4 0 512 0S1024 230.4 1024 512S793.6 1024 512 1024V1024zM476.8 614.4H544V272H476.8V614.4zM476.8 752H544V684.8H476.8V752z" />
    <glyph glyph-name="job"
      unicode="&#xE042;"
      horiz-adv-x="512" d="M113.984 832H398.048L430.048 960H81.984L113.984 832zM0 1024H512L448 768H64L0 1024zM256 107.456L443.424 224.6080000000001L384.48 696.0640000000001L448 704L511.9999999999999 192L256 32L-1e-13 192L63.9999999999999 704L127.52 696.0640000000001L68.576 224.608L256 107.4559999999999zM286.816 425.7920000000001C299.072 438.048 319.52 437.504 331.648 425.376V425.376C344.16 412.8640000000001 344.544 393.024 332.064 380.544L195.424 243.904C183.168 231.648 162.72 232.192 150.592 244.3200000000001V244.3200000000001C138.08 256.8320000000001 137.696 276.6720000000001 150.176 289.1520000000001L286.816 425.7920000000001zM286.816 617.7919999999999C299.072 630.048 319.52 629.5039999999999 331.648 617.376V617.376C344.16 604.864 344.544 585.024 332.064 572.544L195.424 435.904C183.168 423.648 162.72 424.192 150.592 436.3200000000001V436.3200000000001C138.08 448.8320000000001 137.696 468.672 150.176 481.152L286.816 617.792z" />
    <glyph glyph-name="line"
      unicode="&#xE043;"
      horiz-adv-x="1024" d="M46.56 512C46.56 537.696 67.392 558.56 93.12 558.56H930.944C956.64 558.56 977.504 537.7280000000001 977.504 512S956.672 465.4400000000001 930.944 465.4400000000001H93.12C67.424 465.4400000000001 46.56 486.272 46.56 512z" />
    <glyph glyph-name="list"
      unicode="&#xE044;"
      horiz-adv-x="1024" d="M960 892.8C976 892.8 992 880 992 860.8V796.8C992 780.8 979.2 764.8 960 764.8H320C304 764.8 288 777.6 288 796.8V860.8C288 876.8 300.8 892.8 320 892.8H960zM960 924.8H320C284.8 924.8 256 896 256 860.8V796.8C256 761.6 284.8 732.8 320 732.8H960C995.2 732.8 1024 761.6 1024 796.8V860.8C1024 896 995.2 924.8 960 924.8V924.8zM960 572.8C976 572.8 992 560 992 540.8V476.8C992 460.8 979.2 444.8 960 444.8H320C304 444.8 288 457.5999999999999 288 476.8V540.8C288 556.8 300.8 572.8 320 572.8H960zM960 604.8H320C284.8 604.8 256 576 256 540.8V476.8C256 441.5999999999999 284.8 412.8 320 412.8H960C995.2 412.8 1024 441.5999999999999 1024 476.8V540.8C1024 576 995.2 604.8 960 604.8V604.8zM960 252.8C976 252.8 992 240 992 220.8V156.8C992 140.8 979.2 124.8 960 124.8H320C304 124.8 288 137.5999999999999 288 156.8V220.8C288 236.8 300.8 252.8 320 252.8H960zM960 284.8H320C284.8 284.8 256 256 256 220.8V156.8C256 121.5999999999999 284.8 92.8 320 92.8H960C995.2 92.8 1024 121.5999999999999 1024 156.8V220.8C1024 256 995.2 284.8 960 284.8V284.8zM128 892.8C144 892.8 160 880 160 860.8V796.8C160 780.8 147.2 764.8 128 764.8H64C48 764.8 32 777.6 32 796.8V860.8C32 876.8 44.8 892.8 64 892.8H128zM128 924.8H64C28.8 924.8 0 896 0 860.8V796.8C0 761.6 28.8 732.8 64 732.8H128C163.2 732.8 192 761.6 192 796.8V860.8C192 896 163.2 924.8 128 924.8V924.8zM128 572.8C144 572.8 160 560 160 540.8V476.8C160 460.8 147.2 444.8 128 444.8H64C48 444.8 32 457.5999999999999 32 476.8V540.8C32 556.8 44.8 572.8 64 572.8H128zM128 604.8H64C28.8 604.8 0 576 0 540.8V476.8C0 441.5999999999999 28.8 412.8 64 412.8H128C163.2 412.8 192 441.5999999999999 192 476.8V540.8C192 576 163.2 604.8 128 604.8V604.8zM128 252.8C144 252.8 160 240 160 220.8V156.8C160 140.8 147.2 124.8 128 124.8H64C48 124.8 32 137.5999999999999 32 156.8V220.8C32 236.8 44.8 252.8 64 252.8H128zM128 284.8H64C28.8 284.8 0 256 0 220.8V156.8C0 121.5999999999999 28.8 92.8 64 92.8H128C163.2 92.8 192 121.5999999999999 192 156.8V220.8C192 256 163.2 284.8 128 284.8V284.8z" />
    <glyph glyph-name="loading"
      unicode="&#xE045;"
      horiz-adv-x="1024" d="M980.752 710.303C954.963 771.275 918.05 826.028 871.039 873.039C824.027 920.05 769.275 956.963 708.3029999999999 982.752C645.161 1009.458 578.106 1023 509 1023C506.758 1023 504.52 1022.985 502.285 1022.957C485.718 1022.746 472.459 1009.145 472.67 992.577C472.879 976.139 486.269 962.959 502.66 962.959L503.05 962.961C505.03 962.987 507.013 963 509 963C570.033 963 629.224 951.053 684.9300000000001 927.492C738.75 904.728 787.092 872.133 828.613 830.613S902.728 740.751 925.493 686.9300000000001C949.054 631.2239999999999 961 572.033 961 511C961 494.432 974.432 481 991 481S1021 494.432 1021 511C1021 580.106 1007.459 647.162 980.752 710.303z" />
    <glyph glyph-name="location"
      unicode="&#xE046;"
      horiz-adv-x="1024" d="M457.664 92.192C406.72 147.4880000000001 149.088 424.224 149.088 603.552C149.12 802.176 310.688 963.744 509.312 963.744S869.536 802.176 869.536 603.52C869.536 424.6080000000001 612.608 148.864 561.088 92.3200000000001C508.672 36.864 508.672 36.864 457.664 92.192V92.192V92.192zM509.312 912.448C339.328 912.448 201.024 774.144 201.024 604.16C201.024 443.5519999999999 391.488 238.656 505.28 116.192L509.344 111.872L513.536 116.3839999999999C627.2959999999999 238.9119999999999 817.6959999999999 443.9359999999999 817.6959999999999 604.1919999999999C817.632 774.1759999999999 679.3599999999999 912.48 509.3439999999999 912.48V912.48V912.48zM509.312 424.736C411.9360000000001 424.736 332.704 503.936 332.704 601.344C332.704 698.688 411.904 777.92 509.312 777.92C606.688 777.92 685.9200000000001 698.72 685.9200000000001 601.344C685.9200000000001 503.904 606.72 424.736 509.3120000000001 424.736V424.736V424.736zM509.312 727.328C439.168 727.328 382.0800000000001 670.304 382.0800000000001 600.1279999999999S439.136 472.896 509.312 472.896C579.456 472.896 636.544 529.9839999999999 636.544 600.1279999999999C636.576 670.2719999999999 579.4879999999999 727.328 509.312 727.328V727.328V727.328z" />
    <glyph glyph-name="man"
      unicode="&#xE047;"
      horiz-adv-x="1024" d="M580.8 578.752C496.736 656.8 364.928 651.84 286.944 567.8720000000001C208.832 483.84 213.792 352 297.76 273.9840000000001C381.824 196 513.5999999999999 200.8960000000001 591.616 284.8960000000001V284.8960000000001H591.616C669.6 368.9280000000001 664.768 500.768 580.8 578.7520000000001zM936.928 1024H87.104C39.008 1024 0.032 985.024 0.032 936.928V87.104C0.032 39.008 39.008 0.032 87.104 0.032H936.96C985.056 0.032 1024.0320000000002 39.008 1024.0320000000002 87.104V936.928C1024.0320000000002 985.024 985.0560000000002 1024 936.9600000000002 1024zM833.504 570.336C814.592 570.336 799.232 585.664 799.232 604.608C799.232 605.856 799.2959999999999 607.072 799.424 608.288V766.816L652.896 608.96C748.832 495.008 740.896 341.216 643.7439999999999 236.6080000000001C537.92 122.72 360.5119999999999 114.8800000000001 246.6559999999999 220.6400000000001C132.7039999999999 326.4000000000001 125.2799999999999 505.8880000000001 231.0079999999999 619.7760000000001C328.1599999999999 724.4160000000002 491.5839999999999 733.9520000000001 598.7199999999999 659.296L738.1119999999999 809.3760000000001H599.5839999999998C596.8959999999998 808.7040000000002 594.0799999999998 808.3200000000002 591.1999999999998 808.3200000000002C571.9359999999998 808.3200000000002 556.3199999999998 823.9360000000001 556.3199999999998 843.2S571.9359999999998 878.0800000000002 591.1999999999998 878.0800000000002C593.8879999999998 878.0800000000002 596.4799999999998 877.7600000000001 599.0079999999998 877.1840000000001H867.2959999999998V610.0480000000001C867.5839999999998 608.2880000000001 867.7759999999998 606.4960000000001 867.7759999999998 604.6400000000001C867.7759999999998 585.7280000000001 852.4479999999999 570.4000000000001 833.5039999999998 570.4000000000001z" />
    <glyph glyph-name="manage"
      unicode="&#xE048;"
      horiz-adv-x="1024" d="M0 666.0160000000001C0 722.336 45.984 768 101.92 768H922.048C978.336 768 1023.968 722.2719999999999 1023.968 666.0160000000001V101.9839999999999C1023.968 45.6639999999999 977.984 0 922.048 0H101.92C45.632 0 0 45.728 0 101.984V666.0160000000001zM0 512V460.8H1024V512H0zM358.4 922.4C358.4 922.4 358.4 768.672 358.4 768.672H256V922.336C256 978.464 301.44 1023.968 358.368 1023.968H665.5999999999999C722.1439999999999 1023.968 767.9679999999998 978.208 767.9679999999998 922.784V767.968L665.5679999999999 768.096V922.7839999999998C665.5679999999999 922.368 358.3679999999999 922.368 358.3679999999999 922.368z" />
    <glyph glyph-name="money"
      unicode="&#xE049;"
      horiz-adv-x="1024" d="M517.632 954.88C287.8399999999999 954.88 100.864 767.936 100.864 538.144S287.84 121.376 517.632 121.376S934.3999999999997 308.32 934.3999999999997 538.144C934.3999999999997 767.9359999999999 747.4239999999999 954.8799999999998 517.6319999999998 954.8799999999998zM517.632 171.2000000000001C315.328 171.2000000000001 150.72 335.808 150.72 538.1120000000001S315.296 905.024 517.632 905.024S884.5439999999999 740.448 884.5439999999999 538.1120000000001C884.5439999999999 335.7760000000001 719.9679999999998 171.2000000000001 517.6319999999998 171.2000000000001zM618.464 756.1279999999999L552.288 634.1759999999999C534.624 601.12 523.872 579.168 519.904 568.288H518.752C507.1039999999999 594.752 474.2719999999999 657.376 420.192 756.128H357.952L473.6959999999999 557.28H378.7839999999999V513.312H490.0479999999999V452.768H378.8159999999999V408.288H490.0799999999999V320.096H545.28V408.288H652.608V452.768H545.28V513.312H652.608V557.28H560.512L677.4079999999999 756.128H618.5279999999999z" />
    <glyph glyph-name="no"
      unicode="&#xE04A;"
      horiz-adv-x="1024" d="M921.6 519.328C921.6 299.904 738.752 117.0560000000001 519.328 117.0560000000001S117.056 299.904 117.056 519.328C117.056 738.7520000000001 299.904 921.6 519.328 921.6S921.6 738.752 921.6 519.328V519.328zM994.752 519.328C994.752 782.656 782.624 994.752 519.328 994.752S43.904 782.624 43.904 519.328C43.904 256 256.032 43.904 519.328 43.904S994.752 256.032 994.752 519.328V519.328V519.328zM841.152 841.152C826.528 848.48 804.576 848.48 789.952 841.152L204.8 256C190.176 241.376 190.176 219.424 204.8 204.8S241.376 190.1759999999999 256 204.8L841.152 789.952C855.7760000000001 797.28 855.7760000000001 826.528 841.152 841.152V841.152z" />
    <glyph glyph-name="notice"
      unicode="&#xE04B;"
      horiz-adv-x="1024" d="M849.92 409.6V614.4000000000001C849.92 783.36 711.68 972.8 542.72 972.8V1024H440.3200000000001V972.8C271.36 972.8 133.1200000000001 783.36 133.1200000000001 614.4000000000001V409.6L81.9200000000001 204.8C81.9200000000001 174.0799999999999 102.4000000000001 153.5999999999999 133.1200000000001 153.5999999999999H849.9200000000001C880.6400000000001 153.5999999999999 901.1200000000002 174.0799999999999 901.1200000000002 204.8L849.9200000000001 409.5999999999999zM542.72 256H199.68L230.4 384L235.52 394.24V614.4C235.52 732.16 327.68 870.4 440.3200000000001 870.4H542.72C655.36 870.4 747.52 732.16 747.52 614.4V399.36L752.64 389.12L783.36 261.12L542.72 256zM491.52 0C547.84 0 593.92 46.08 593.92 102.4H389.12C389.12 46.0799999999999 435.2 0 491.52 0z" />
    <glyph glyph-name="online"
      unicode="&#xE04C;"
      horiz-adv-x="1024" d="M1024 512C1024 229.216 794.784 0 512 0S0 229.216 0 512C0 794.784 229.216 1024 512 1024S1024 794.784 1024 512z" />
    <glyph glyph-name="paying"
      unicode="&#xE04D;"
      horiz-adv-x="1024" d="M86.4 288H736C764.8 288 790.4 313.6 790.4 342.4L777.6 441.6H1004.8C1017.6 441.6 1027.2 451.2 1027.2 464S1017.6 486.4 1004.8 486.4H771.2L764.8000000000001 531.2H937.6000000000003C950.4 531.2 960.0000000000002 540.8 960.0000000000002 553.5999999999999S950.4 576 937.6000000000003 576H758.4000000000001L752.0000000000001 608H867.2000000000002C880.0000000000001 608 889.6000000000001 617.5999999999999 889.6000000000001 630.3999999999999S880.0000000000001 652.8 867.2000000000002 652.8H745.6000000000001L739.2000000000002 710.3999999999999C739.2000000000002 739.1999999999999 713.6000000000001 761.5999999999999 684.8000000000002 761.5999999999999H54.4000000000002C22.4000000000002 761.5999999999999 2e-13 739.1999999999999 2e-13 707.1999999999999L32.0000000000002 339.2C32.0000000000002 310.4 57.6000000000002 287.9999999999999 86.4000000000002 287.9999999999999zM54.4 729.6H688C697.6 729.6 707.2 720 707.2 710.4000000000001L713.6 652.8H608C595.2 652.8 585.6 643.2 585.6 630.4000000000001S595.2 608 608 608H720L723.2 572.8000000000001H675.2C662.4000000000001 572.8000000000001 652.8000000000001 563.2 652.8000000000001 550.4000000000001S662.4000000000001 528.0000000000001 675.2 528.0000000000001H729.6L736 486.4000000000001H54.4L35.2 710.4000000000001C35.2 720.0000000000001 41.6 729.6000000000001 54.4 729.6000000000001zM736 320H86.4C76.8 320 67.2 329.6 67.2 342.4L64 368H748.8L752 339.2000000000001C755.2 329.6 745.6 320 736 320z" />
    <glyph glyph-name="pdf"
      unicode="&#xE04E;"
      horiz-adv-x="864" d="M825.664 749.152H682.016C638.56 749.152 603.168 783.296 603.168 825.248V973.728H78.816C64 973.728 52 962.112 52 947.808V76.096C52 61.824 64 50.208 78.816 50.208H798.8480000000001C813.6 50.208 825.6640000000001 61.824 825.6640000000001 76.096V749.12zM655.232 936.288V825.28C655.232 811.008 667.232 799.424 682.048 799.424H790.816L655.232 936.288zM647.616 1016.608L648 1016.224L877.7280000000001 784.352V76.1279999999999C877.7280000000001 34.1439999999999 842.336 0 798.8800000000001 0H78.8480000000001C35.3920000000001 0 1e-13 34.144 1e-13 76.128V947.84C1e-13 989.856 35.3920000000001 1024 78.8480000000001 1024H640.2880000000001L647.5840000000002 1016.608zM787.488 403.872V403.904C783.168 401.216 770.624 399.7440000000001 762.5920000000001 399.7440000000001C736.6400000000001 399.7440000000001 704.5120000000001 411.264 659.4240000000001 430.048C676.7680000000001 431.2960000000001 692.5760000000001 431.968 706.8480000000001 431.968C732.8960000000001 431.968 740.6400000000001 432 766.1120000000001 425.6959999999999C791.6160000000001 419.392 791.936 406.56 787.5200000000001 403.872V403.872zM335.392 399.968H335.36C345.2800000000001 417.312 355.616 435.52 366.2080000000001 454.848C391.9360000000001 502.24 408.2240000000001 539.328 420.3520000000001 569.7919999999999C444.4160000000001 527.104 474.4640000000001 490.88 509.7280000000001 461.856C514.1440000000001 458.208 518.7840000000001 454.592 523.648 450.944C451.936 437.12 389.952 420.352 335.3920000000001 399.968V399.968zM419.04 847.808C433.2800000000001 847.808 441.44 812.832 442.0800000000001 780.064C442.7200000000001 747.296 434.8800000000001 724.288 425.088 707.264C416.992 732.4480000000001 413.0560000000001 772.2239999999999 413.0560000000001 798.176C413.0560000000001 798.176 412.48 847.808 419.04 847.808V847.808zM138.528 219.36C146.592 240.896 178.656 283.4880000000001 226.016 321.216C228.96 323.552 236.288 330.24 243.04 336.48C193.504 259.5840000000001 160.288 228.992 138.496 219.36V219.36zM811.936 431.424C811.1360000000001 437.152 806.464 444.288 801.408 449.12H801.344C787.008 462.848 755.2 470.176 706.7520000000001 470.784C673.984 471.136 634.464 468.3199999999999 592.9920000000001 462.6559999999999C574.368 473.12 555.2640000000001 484.3839999999999 540.224 498.112C499.808 534.848 466.0480000000001 585.856 444.9600000000001 641.952C446.336 647.168 447.4880000000001 651.7760000000001 448.6080000000001 656.512C448.6080000000001 656.512 471.3600000000001 782.3679999999999 465.3440000000001 824.928C464.5120000000001 830.752 464.0000000000001 832.48 462.4 837.024L460.448 841.952C454.24 855.84 442.112 870.592 423.04 869.792L411.584 870.144C390.336 870.144 373.024 859.5840000000001 368.448 843.7760000000001C354.624 794.24 368.928 720.128 394.72 624.096L388.096 608.48C369.568 564.608 346.432 520.4480000000001 325.9839999999999 481.4400000000001L323.296 476.384C301.824 435.424 282.3039999999999 400.704 264.608 371.2000000000001L246.336 361.8240000000001C244.96 361.1200000000001 213.664 345.0240000000001 206.368 340.7360000000001C144.0319999999999 304.5120000000001 102.7199999999999 263.4240000000001 95.9359999999999 230.8160000000002C93.7599999999999 220.4160000000002 95.3919999999999 207.1360000000002 106.4639999999999 200.9600000000002L124.128 192.2560000000002C131.8079999999999 188.5760000000003 139.872 186.6240000000003 148.1279999999999 186.6240000000003C192.5439999999999 186.6240000000003 244.064 240.4480000000002 314.976 360.9280000000002C396.928 386.8800000000002 490.208 408.4800000000003 571.968 420.3200000000003C634.304 386.1760000000003 710.88 362.4960000000003 759.2959999999999 362.4960000000003C767.9039999999999 362.4960000000003 775.2639999999999 363.2640000000004 781.28 364.8320000000004C790.56 367.2320000000003 798.3679999999999 372.3840000000004 803.168 379.3920000000003C812.576 393.1200000000003 814.464 412.0640000000003 811.904 431.4560000000003V431.4560000000003z" />
    <glyph glyph-name="pen"
      unicode="&#xE04F;"
      horiz-adv-x="960" d="M722.592 957.568C746.2719999999999 981.248 784.576 981.312 808.384 957.472L907.68 858.1759999999999C931.392 834.4639999999999 931.264 795.872 907.776 772.384L802.464 667.072L617.2800000000001 852.256L722.5920000000001 957.568zM580.288 815.232L765.472 630.048L246.944 111.52L6.208 55.968L61.76 296.704L580.288 815.232z" />
    <glyph glyph-name="people"
      unicode="&#xE050;"
      horiz-adv-x="1024" d="M754.816 383.168C714.3040000000001 423.6800000000001 665.408 452.736 612.032 468.768C689.376 505.7280000000001 742.9440000000001 584.7360000000001 742.9440000000001 676.032C742.9440000000001 802.624 639.9680000000001 905.632 513.344 905.632S283.7440000000001 802.624 283.7440000000001 676.032C283.7440000000001 584.7360000000001 337.312 505.7280000000001 414.6560000000001 468.768C361.2800000000001 452.736 312.3840000000001 423.6800000000001 271.8720000000001 383.168C207.3920000000001 318.688 171.8720000000001 232.928 171.8720000000001 141.7280000000001C171.8720000000001 127.456 183.0720000000001 115.936 197.1520000000001 115.1680000000001V115.0400000000001H198.0800000000001V114.6560000000001L828.0640000000001 115.0400000000001C842.816 115.0400000000001 854.7840000000001 127.0080000000001 854.7840000000001 141.7600000000001C854.7840000000001 232.9600000000002 819.2640000000001 318.7200000000002 754.7840000000001 383.2000000000001zM337.216 676.0319999999999C337.216 773.152 416.224 852.192 513.376 852.192S689.536 773.184 689.536 676.0319999999999S610.5279999999999 499.872 513.376 499.872S337.216 578.8799999999999 337.216 676.0319999999999zM513.376 429.728C663.4879999999999 429.728 786.976 314.272 800.096 167.52H226.656C239.776 314.272 363.264 429.7280000000001 513.376 429.7280000000001z" />
    <glyph glyph-name="person-group"
      unicode="&#xE051;"
      horiz-adv-x="1024" d="M620.599 511.98C706.1220000000001 511.98 775.625 582.427 775.625 669.538S706.122 827.096 620.5989999999999 827.096V890.072C741.0939999999999 890.072 838.6009999999999 791.241 838.6009999999999 669.538C838.6009999999999 594.5540000000001 801.5859999999999 528.252 744.9859999999999 488.398C872.5969999999999 437.999 962.9439999999998 312.3390000000001 962.9439999999998 165.415H899.9679999999998C899.9679999999998 322.131 774.7939999999999 449.0039999999999 620.5989999999998 449.0039999999999V511.9799999999999zM331.483 466.01C245.845 500.972 185.399 585.977 185.399 685.292C185.399 815.801 289.781 921.6 418.5420000000001 921.6S651.6850000000001 815.801 651.6850000000001 685.292C651.6850000000001 590.495 596.613 508.736 517.129 471.0890000000001C683.176 432.827 807.114 282.2840000000001 807.114 102.4000000000001H744.138C744.138 276.6230000000001 605.1310000000001 417.5160000000001 434.0850000000001 417.5160000000001S124.0320000000001 276.6220000000001 124.0320000000001 102.4000000000001H61.056C61.056 275.1470000000002 175.3560000000001 420.836 331.4830000000001 466.0100000000001zM418.542 511.961C512.331 511.961 588.709 589.376 588.709 685.293S512.3309999999999 858.625 418.5419999999999 858.625C324.753 858.625 248.3749999999999 781.21 248.3749999999999 685.293S324.753 511.961 418.5419999999999 511.961z" />
    </font>
</defs>
</svg>
